<svg width="25" height="24" viewBox="0 0 25 24" fill="none" xmlns="http://www.w3.org/2000/svg">
<path opacity="0.4" d="M21.5017 8.94H3V6.42C3 4.25614 4.75614 2.5 6.92 2.5H9.25C10.0121 2.5 10.4501 2.62406 10.7601 2.80535C11.0779 2.99123 11.3166 3.26718 11.6394 3.69926L11.6405 3.70069L13.0405 5.56069L13.0412 5.56155C13.0518 5.57564 13.0627 5.59013 13.0738 5.60494C13.1956 5.76755 13.3461 5.96848 13.564 6.08752C13.8132 6.22369 14.0953 6.23 14.37 6.23L17.16 6.23L17.1621 6.23C19.0596 6.22199 20.7128 7.32689 21.5017 8.94Z" fill="#52B8AB" fill-opacity="0.56" stroke="#52B8AB"/>
<path d="M21.9904 10.8604L21.9914 10.8857L21.995 10.9107C21.999 10.9384 22 10.9897 22 11.07V16.65C22 19.3239 19.8239 21.5 17.15 21.5H7.85C5.17614 21.5 3 19.3239 3 16.65V9.94H21.8642C21.9361 10.2349 21.9773 10.5389 21.9904 10.8604ZM13.81 18V16.75H15C15.6861 16.75 16.25 16.1861 16.25 15.5C16.25 14.8139 15.6861 14.25 15 14.25H13.81V13C13.81 12.3139 13.2461 11.75 12.56 11.75C11.8739 11.75 11.31 12.3139 11.31 13V14.25H10C9.31386 14.25 8.75 14.8139 8.75 15.5C8.75 16.1861 9.31386 16.75 10 16.75H11.31V18C11.31 18.6861 11.8739 19.25 12.56 19.25C13.2461 19.25 13.81 18.6861 13.81 18Z" fill="#52B8AB" fill-opacity="0.56" stroke="#52B8AB"/>
</svg>
