<svg width="25" height="24" viewBox="0 0 25 24" fill="none" xmlns="http://www.w3.org/2000/svg">
<path opacity="0.5" d="M17 11.5C17 10.3954 17.8954 9.5 19 9.5C20.1046 9.5 21 10.3954 21 11.5C21 12.4319 20.3626 13.215 19.5 13.437V17C19.5 18.5172 18.9072 19.6628 17.9875 20.4113C17.0807 21.1491 15.8942 21.4714 14.7353 21.4373C12.443 21.3699 10 19.8628 10 17L11 17C11 19.1372 12.807 20.3801 14.7647 20.4377C15.7308 20.4661 16.6693 20.1946 17.3563 19.6356C18.0303 19.0872 18.5 18.2328 18.5 17V13.437C17.6374 13.215 17 12.4319 17 11.5Z" fill="#637381" stroke="#637381"/>
<mask id="path-2-inside-1_698_171" fill="white">
<path d="M19.5 11.5C19.5 11.7761 19.2761 12 19 12C18.7239 12 18.5 11.7761 18.5 11.5C18.5 11.2239 18.7239 11 19 11C19.2761 11 19.5 11.2239 19.5 11.5Z"/>
</mask>
<path d="M19.5 11.5C19.5 11.7761 19.2761 12 19 12C18.7239 12 18.5 11.7761 18.5 11.5C18.5 11.2239 18.7239 11 19 11C19.2761 11 19.5 11.2239 19.5 11.5Z" fill="#637381"/>
<path d="M18.5 11.5C18.5 11.2239 18.7239 11 19 11V13C19.8284 13 20.5 12.3284 20.5 11.5H18.5ZM19 11C19.2761 11 19.5 11.2239 19.5 11.5H17.5C17.5 12.3284 18.1716 13 19 13V11ZM19.5 11.5C19.5 11.7761 19.2761 12 19 12V10C18.1716 10 17.5 10.6716 17.5 11.5H19.5ZM19 12C18.7239 12 18.5 11.7761 18.5 11.5H20.5C20.5 10.6716 19.8284 10 19 10V12Z" fill="#637381" mask="url(#path-2-inside-1_698_171)"/>
<path d="M13.895 5.55254C13.9627 5.38154 14 5.19512 14 5C14 4.83817 13.9744 4.68233 13.927 4.53631C15.1043 4.7389 16 5.76484 16 7V12C16 15.0376 13.5376 17.5 10.5 17.5C7.46243 17.5 5 15.0376 5 12V7.5C5 5.98736 6.1195 4.7362 7.57516 4.52985C7.52639 4.67773 7.5 4.83578 7.5 5C7.5 5.19035 7.53546 5.37243 7.60013 5.53998C6.68717 5.72523 6 6.53237 6 7.5V12C6 14.4853 8.01472 16.5 10.5 16.5C12.9853 16.5 15 14.4853 15 12V7C15 6.30826 14.5318 5.72589 13.895 5.55254Z" fill="#637381" stroke="#637381"/>
<path opacity="0.5" d="M9 3.5C8.17157 3.5 7.5 4.17157 7.5 5C7.5 5.82843 8.17157 6.5 9 6.5C9.82843 6.5 10.5 5.82843 10.5 5C10.5 4.17157 9.82843 3.5 9 3.5Z" fill="#22202A"/>
<path opacity="0.5" d="M12.5 3.5C11.6716 3.5 11 4.17157 11 5C11 5.82843 11.6716 6.5 12.5 6.5C13.3284 6.5 14 5.82843 14 5C14 4.17157 13.3284 3.5 12.5 3.5Z" fill="#22202A"/>
</svg>
