<svg width="25" height="24" viewBox="0 0 25 24" fill="none" xmlns="http://www.w3.org/2000/svg">
<path opacity="0.4" d="M8.32001 2.5H16.69C18.4106 2.5 19.7238 3.01093 20.6064 3.89355C21.4891 4.77618 22 6.08944 22 7.81V16.18C22 17.9006 21.4891 19.2138 20.6064 20.0964C19.7238 20.9791 18.4106 21.49 16.69 21.49H8.32001C6.59944 21.49 5.28619 20.9791 4.40356 20.0964C3.52094 19.2138 3.01001 17.9006 3.01001 16.18V7.81C3.01001 6.08944 3.52094 4.77618 4.40356 3.89355C5.28619 3.01093 6.59944 2.5 8.32001 2.5Z" fill="#637381" stroke="#637381"/>
<path d="M14.335 10.2307L14.3963 10.66H14.83H22V11.16H14.59H14.2881L14.1475 11.4271C13.9833 11.7392 13.7616 11.9869 13.4893 12.1533L13.25 12.2996V12.58V14.56C13.25 14.9738 12.9139 15.31 12.5 15.31C12.0861 15.31 11.75 14.9738 11.75 14.56V12.58V12.2996L11.5107 12.1533C11.2384 11.9869 11.0167 11.7392 10.8525 11.4271L10.7119 11.16H10.41H3V10.66H10.17H10.5936L10.6632 10.2422C10.8362 9.20402 11.8655 8.46076 13.0124 8.76343L13.0131 8.76359C13.6385 8.92777 14.1522 9.44145 14.3164 10.0669L14.3163 10.067L14.318 10.073C14.3184 10.0754 14.3196 10.0834 14.3212 10.0997C14.3222 10.1097 14.3229 10.1169 14.3237 10.126C14.3243 10.133 14.325 10.1411 14.3261 10.1523C14.328 10.1732 14.3308 10.2009 14.335 10.2307Z" fill="#637381" stroke="#637381"/>
</svg>
