<svg width="25" height="24" viewBox="0 0 25 24" fill="none" xmlns="http://www.w3.org/2000/svg">
    <path opacity="0.4"
        d="M8.32001 2.5H16.69C18.4106 2.5 19.7238 3.01093 20.6064 3.89355C21.4891 4.77618 22 6.08943 22 7.81V16.18C22 17.9006 21.4891 19.2138 20.6064 20.0964C19.7238 20.9791 18.4106 21.49 16.69 21.49H8.32001C6.59944 21.49 5.28619 20.9791 4.40356 20.0964C3.52094 19.2138 3.01001 17.9006 3.01001 16.18V7.81C3.01001 6.08943 3.52094 4.77618 4.40356 3.89355C5.28619 3.01093 6.59944 2.5 8.32001 2.5Z"
        fill="#52B8AB" stroke="#52B8AB" />
    <path d="M7.95999 11.65H10.11V16.91H7.32001V12.29C7.32001 11.9361 7.60612 11.65 7.95999 11.65Z"
        fill="#52B8AB" stroke="#52B8AB" />
    <path opacity="0.4"
        d="M13.26 6.59998H11.74C11.11 6.59998 10.6 7.10999 10.6 7.73999V17.4H14.39V7.73999C14.39 7.10999 13.89 6.59998 13.26 6.59998Z"
        fill="#52B8AB" stroke="#52B8AB" />
    <path d="M17.05 12.85H14.4V17.4H18.19V13.99C18.18 13.36 17.67 12.85 17.05 12.85Z" fill="#52B8AB"
        stroke="#52B8AB" />
</svg>