<svg width="25" height="24" viewBox="0 0 25 24" fill="none" xmlns="http://www.w3.org/2000/svg">
<path opacity="0.4" d="M18.11 10.69H21C21.2739 10.69 21.5 10.9161 21.5 11.19V16.43C21.5 18.0923 20.9239 19.3476 20.0277 20.1893C19.1266 21.0356 17.8629 21.5 16.43 21.5H8.57C7.13711 21.5 5.87343 21.0356 4.9723 20.1893C4.07612 19.3476 3.5 18.0923 3.5 16.43V7.57C3.5 5.90766 4.07612 4.65241 4.9723 3.81071C5.87343 2.96436 7.13711 2.5 8.57 2.5H12.81C13.0839 2.5 13.31 2.72614 13.31 3V5.89C13.31 8.53614 15.4639 10.69 18.11 10.69Z" fill="#637381" stroke="#637381"/>
<path d="M17.9353 8.31002L17.9353 8.30999H17.93C16.6829 8.30999 15.68 7.31077 15.68 6.13999V2.64999C15.68 2.61542 15.6895 2.59388 15.7012 2.57784C15.7148 2.55924 15.7376 2.54025 15.7693 2.52778C15.8326 2.50287 15.8966 2.51366 15.9464 2.56355C16.9449 3.562 18.4438 5.07454 19.756 6.39873C20.3879 7.03643 20.9766 7.63045 21.4452 8.10232L21.4464 8.10355C21.4723 8.12937 21.4794 8.15048 21.4818 8.16561C21.4848 8.18366 21.4828 8.20721 21.4715 8.23266C21.4495 8.28243 21.403 8.31999 21.33 8.31999C20.199 8.31999 18.882 8.31999 17.9353 8.31002ZM21.33 8.81999C21.9 8.81999 22.2 8.14999 21.8 7.74999C21.3322 7.27896 20.7441 6.68552 20.1125 6.04817C18.7999 4.72353 17.2992 3.20922 16.3 2.20999C15.89 1.79999 15.18 2.07999 15.18 2.64999V6.13999C15.18 7.59999 16.42 8.80999 17.93 8.80999C18.8799 8.81999 20.1997 8.81999 21.3297 8.81999H21.33Z" fill="#637381" stroke="#637381"/>
</svg>
