<svg width="25" height="24" viewBox="0 0 25 24" fill="none" xmlns="http://www.w3.org/2000/svg">
<path opacity="0.4" d="M13.63 15.72C13.63 16.3441 13.1241 16.85 12.5 16.85C11.8759 16.85 11.37 16.3441 11.37 15.72C11.37 15.0959 11.8759 14.59 12.5 14.59C13.1241 14.59 13.63 15.0959 13.63 15.72Z" fill="#637381" stroke="#637381"/>
<path d="M7.85 9.94H17.15C19.1824 9.94 20.3359 10.258 21.0089 10.9311C21.682 11.6041 22 12.7576 22 14.79V16.65C22 18.6824 21.682 19.8359 21.0089 20.5089C20.3359 21.182 19.1824 21.5 17.15 21.5H7.85C5.81759 21.5 4.66409 21.182 3.99105 20.5089C3.31802 19.8359 3 18.6824 3 16.65V14.79C3 12.7576 3.31802 11.6041 3.99105 10.9311C4.66409 10.258 5.81759 9.94 7.85 9.94ZM8.98 15.72C8.98 17.6551 10.5528 19.24 12.5 19.24C14.4472 19.24 16.02 17.6551 16.02 15.72C16.02 13.7849 14.4472 12.2 12.5 12.2C10.5528 12.2 8.98 13.7849 8.98 15.72Z" fill="#637381" stroke="#637381"/>
<path opacity="0.4" d="M7.11997 8.28V8.9594C6.9834 8.96458 6.85 8.97182 6.71997 8.98093V8.28C6.71997 6.95107 6.8848 5.51482 7.65779 4.41501C8.40525 3.35152 9.79848 2.5 12.5 2.5C15.2015 2.5 16.5947 3.35152 17.3422 4.41501C18.1151 5.51482 18.28 6.95107 18.28 8.28V8.98627C18.1486 8.9769 18.0153 8.96979 17.88 8.96425V8.28C17.88 6.7923 17.6753 5.41688 16.8423 4.42055C15.9923 3.40382 14.5937 2.9 12.5 2.9C10.4062 2.9 9.00762 3.40382 8.15762 4.42055C7.32467 5.41688 7.11997 6.7923 7.11997 8.28Z" fill="#637381" stroke="#637381"/>
</svg>
