<svg width="25" height="24" viewBox="0 0 25 24" fill="none" xmlns="http://www.w3.org/2000/svg">
<path opacity="0.4" d="M22 12C22 17.2467 17.7467 21.5 12.5 21.5C7.25329 21.5 3 17.2467 3 12C3 6.75329 7.25329 2.5 12.5 2.5C17.7467 2.5 22 6.75329 22 12Z" fill="#637381" stroke="#637381"/>
<path d="M12.75 13C12.75 13.1339 12.6339 13.25 12.5 13.25C12.3661 13.25 12.25 13.1339 12.25 13V8C12.25 7.86614 12.3661 7.75 12.5 7.75C12.6339 7.75 12.75 7.86614 12.75 8V13Z" fill="#637381" stroke="#637381"/>
<path d="M12.0467 16.2005L12.0469 16.2004L12.0415 16.1877C12.0128 16.1188 12 16.0542 12 16C12 15.9459 12.0128 15.8812 12.0415 15.8123C12.066 15.7536 12.0996 15.6978 12.1444 15.6444C12.1978 15.5996 12.2536 15.566 12.3123 15.5415C12.4292 15.4928 12.5708 15.4928 12.6877 15.5415C12.7464 15.566 12.8022 15.5996 12.8556 15.6444C12.9004 15.6978 12.934 15.7536 12.9585 15.8123C12.9872 15.8812 13 15.9459 13 16C13 16.0542 12.9872 16.1188 12.9585 16.1877L12.9583 16.1876L12.9533 16.2005C12.9336 16.2517 12.9069 16.2962 12.8565 16.3549C12.8028 16.4001 12.7467 16.4339 12.6877 16.4585C12.6188 16.4872 12.5541 16.5 12.5 16.5C12.4459 16.5 12.3812 16.4872 12.3123 16.4585C12.2533 16.4339 12.1972 16.4001 12.1435 16.3549C12.0931 16.2962 12.0664 16.2517 12.0467 16.2005Z" fill="#637381" stroke="#637381"/>
</svg>
