<svg width="25" height="24" viewBox="0 0 25 24" fill="none" xmlns="http://www.w3.org/2000/svg">
<path d="M4.64031 11.1022L4.64033 11.1023L4.64702 11.0994L10.347 8.64942L10.3603 8.64372L10.3732 8.63727C10.5497 8.54903 10.687 8.40691 10.7794 8.26418C10.8712 8.12229 10.9496 7.93154 10.9496 7.72006V4.66006C10.9496 4.2947 11.0883 3.85687 11.337 3.45153C11.5847 3.04773 11.9118 2.72476 12.236 2.55586C12.3941 2.47797 12.5861 2.47813 12.7441 2.55633C13.0743 2.72598 13.4037 3.04763 13.652 3.4484C13.9011 3.85041 14.0396 4.28515 14.0396 4.65006V7.71006C14.0396 7.92154 14.118 8.11229 14.2098 8.25419C14.3021 8.39692 14.4395 8.53903 14.616 8.62727L14.6301 8.63436L14.6448 8.64054L15.0012 8.79134L10.9562 12.8363C10.934 12.5313 10.8016 12.2345 10.5263 12.0528C10.2225 11.8523 9.85912 11.8671 9.55066 12.0013C9.55036 12.0015 9.55007 12.0016 9.54978 12.0017L4.54191 14.1608C4.25869 14.2827 4.08552 14.2373 4.00145 14.1825C3.91809 14.1281 3.80957 13.9909 3.80957 13.6901V12.3701C3.80957 12.1475 3.89645 11.8737 4.06163 11.6215C4.22702 11.3689 4.43992 11.1849 4.64031 11.1022Z" fill="#637381" stroke="#637381"/>
<path opacity="0.4" d="M15.4482 12.0008L15.4481 12.001L20.4578 14.1608C20.741 14.2827 20.9142 14.2374 20.9983 14.1826C21.0816 14.1282 21.1902 13.991 21.1902 13.6901V12.3701C21.1902 12.1477 21.1033 11.8736 20.9376 11.6195C20.7718 11.3653 20.5572 11.1771 20.3532 11.0897L20.3525 11.0894L15.9939 9.21344L10.9602 14.2472V15.8401C10.9602 16.0372 10.9075 16.2417 10.8394 16.4121C10.7719 16.5808 10.6679 16.7693 10.5243 16.9131L10.5245 16.9129L10.1702 16.5602L10.5237 16.9137L15.4482 12.0008ZM15.4482 12.0008L15.4359 11.9959C15.1327 11.8746 14.7733 11.8571 14.4707 12.056C14.1646 12.257 14.0402 12.5976 14.0402 12.9301V15.8401C14.0402 16.0375 14.0929 16.243 14.1637 16.4159C14.2328 16.5846 14.34 16.7734 14.4907 16.9177L16.8058 19.2429L16.8066 19.2437C16.8428 19.2799 16.895 19.3661 16.924 19.4929C16.9528 19.6188 16.9449 19.7248 16.9258 19.782L16.9255 19.7831L16.4766 21.1396C16.4765 21.1401 16.4763 21.1406 16.4761 21.1411C16.3792 21.4245 16.069 21.5639 15.7974 21.4616L13.4739 19.5091C12.9271 19.0405 12.0632 19.0405 11.5164 19.5091L9.18979 21.4642C8.923 21.5702 8.62188 21.4278 8.5384 21.1542L8.53853 21.1542L8.53485 21.1431L8.08588 19.7862M15.4482 12.0008L8.0855 19.785M8.0855 19.785L8.08485 19.7831L7.61016 19.9401L8.08588 19.7862M8.0855 19.785C8.08563 19.7854 8.08575 19.7858 8.08588 19.7862M8.0855 19.785L8.08588 19.7862" fill="#637381" stroke="#637381"/>
</svg>
