<svg width="8" height="3" viewBox="0 0 11 6" fill="none" xmlns="http://www.w3.org/2000/svg">
<path d="M5.50022 5.3342C5.34445 5.33451 5.19349 5.28026 5.07355 5.18087L1.07355 1.84754C0.790046 1.6119 0.751244 1.19104 0.986886 0.907537C1.22253 0.624031 1.64338 0.585229 1.92689 0.82087L5.50022 3.80754L9.07355 0.927537C9.21128 0.81569 9.38791 0.763358 9.56434 0.782127C9.74077 0.800896 9.90244 0.889217 10.0136 1.02754C10.137 1.16611 10.1971 1.34986 10.1793 1.53458C10.1616 1.7193 10.0677 1.88828 9.92022 2.00087L5.92022 5.22087C5.79683 5.30455 5.64895 5.34445 5.50022 5.3342Z" fill="#52B8AB"/>
</svg>
