<svg width="6" height="4" viewBox="0 0 6 10" fill="none" xmlns="http://www.w3.org/2000/svg">
<path d="M1.16668 9.66667C1.01091 9.66698 0.859957 9.61273 0.740016 9.51334C0.603678 9.40031 0.517917 9.23767 0.501658 9.06132C0.485398 8.88497 0.539977 8.70939 0.653349 8.57334L3.64002 5L0.760016 1.42C0.648169 1.28227 0.595836 1.10564 0.614605 0.929216C0.633374 0.752788 0.721696 0.591119 0.860016 0.480004C0.99946 0.357311 1.18377 0.298354 1.36853 0.317336C1.5533 0.336319 1.72177 0.431521 1.83335 0.580004L5.05335 4.58C5.25556 4.826 5.25556 5.18067 5.05335 5.42667L1.72002 9.42667C1.58437 9.5903 1.37884 9.67945 1.16668 9.66667Z" fill="#637381"/>
</svg>
