<svg width="25" height="24" viewBox="0 0 25 24" fill="none" xmlns="http://www.w3.org/2000/svg">
<path opacity="0.4" d="M6.85 14.5C5.93567 14.5 5.1053 14.8689 4.5 15.4655V7C4.5 4.99643 4.76256 3.94455 5.35355 3.35355C5.94455 2.76256 6.99643 2.5 9 2.5H16C18.0036 2.5 19.0555 2.76256 19.6464 3.35355C20.2374 3.94455 20.5 4.99643 20.5 7V14.5H6.85Z" fill="#637381" stroke="#637381"/>
<path d="M20.5 15.5V18.5C20.5 20.1539 19.1539 21.5 17.5 21.5H7.5C5.84614 21.5 4.5 20.1539 4.5 18.5V17.85C4.5 16.5561 5.55614 15.5 6.85 15.5H20.5Z" fill="#637381" stroke="#637381"/>
<path d="M16.5 7.25H8.5C8.36614 7.25 8.25 7.13386 8.25 7C8.25 6.86614 8.36614 6.75 8.5 6.75H16.5C16.6339 6.75 16.75 6.86614 16.75 7C16.75 7.13386 16.6339 7.25 16.5 7.25Z" fill="#637381" stroke="#637381"/>
<path d="M13.5 11.25H8.5C8.09 11.25 7.75 10.91 7.75 10.5C7.75 10.09 8.09 9.75 8.5 9.75H13.5C13.91 9.75 14.25 10.09 14.25 10.5C14.25 10.91 13.91 11.25 13.5 11.25Z" fill="#292D32"/>
</svg>
