<svg width="25" height="24" viewBox="0 0 25 24" fill="none" xmlns="http://www.w3.org/2000/svg">
<path d="M16.7502 3.56V4.01584L17.2041 4.05787C18.4609 4.17424 19.3398 4.60009 19.9288 5.22533C20.5189 5.8518 20.8661 6.72969 20.961 7.83991C20.9606 7.84 20.9603 7.84 20.9602 7.84H4.04185C4.04122 7.83968 4.04042 7.83918 4.0396 7.83853C4.1346 6.72896 4.48181 5.85154 5.07168 5.22533C5.66065 4.60009 6.53955 4.17424 7.79633 4.05787L8.25023 4.01584V3.56V2C8.25023 1.86614 8.36637 1.75 8.50023 1.75C8.63409 1.75 8.75023 1.86614 8.75023 2V3.5V4H9.25023H15.7502H16.2502V3.5V2C16.2502 1.86614 16.3664 1.75 16.5002 1.75C16.6341 1.75 16.7502 1.86614 16.7502 2V3.56Z" fill="#637381" stroke="#637381"/>
<path opacity="0.4" d="M20.4422 13.0669L20.4422 13.0668L20.4307 13.0651C20.1389 13.0234 19.823 12.9901 19.5 12.9901C16.1939 12.9901 13.5 15.6839 13.5 18.9901C13.5 19.5415 13.7077 20.2544 13.8948 20.8258L13.8948 20.8258L13.8964 20.8304C14.0063 21.1553 13.7688 21.4901 13.42 21.4901H8.5C6.8453 21.4901 5.74565 21.0198 5.0539 20.2749C4.35591 19.5232 4 18.4134 4 16.9901V10.8301C4 10.5562 4.22614 10.3301 4.5 10.3301H20.4947C20.7757 10.3372 21 10.5692 21 10.8401V12.5801C21 12.8907 20.7281 13.1145 20.4422 13.0669Z" fill="#637381" stroke="#637381"/>
<path d="M19.5 15C17.29 15 15.5 16.79 15.5 19C15.5 19.75 15.71 20.46 16.08 21.06C16.77 22.22 18.04 23 19.5 23C20.96 23 22.23 22.22 22.92 21.06C23.29 20.46 23.5 19.75 23.5 19C23.5 16.79 21.71 15 19.5 15ZM21.57 18.57L19.44 20.54C19.3 20.67 19.11 20.74 18.93 20.74C18.74 20.74 18.55 20.67 18.4 20.52L17.41 19.53C17.12 19.24 17.12 18.76 17.41 18.47C17.7 18.18 18.18 18.18 18.47 18.47L18.95 18.95L20.55 17.47C20.85 17.19 21.33 17.21 21.61 17.51C21.89 17.81 21.87 18.28 21.57 18.57Z" fill="#292D32"/>
<path d="M9 14.9999C8.74 14.9999 8.48 14.8899 8.29 14.7099C8.11 14.5199 8 14.2599 8 13.9999C8 13.7399 8.11 13.4799 8.29 13.2899C8.52 13.0599 8.87 12.9499 9.2 13.0199C9.26 13.0299 9.32 13.0499 9.38 13.0799C9.44 13.0999 9.5 13.1299 9.56 13.1699C9.61 13.2099 9.66 13.2499 9.71 13.2899C9.89 13.4799 10 13.7399 10 13.9999C10 14.2599 9.89 14.5199 9.71 14.7099C9.66 14.7499 9.61 14.7899 9.56 14.8299C9.5 14.8699 9.44 14.8999 9.38 14.9199C9.32 14.9499 9.26 14.9699 9.2 14.9799C9.13 14.9899 9.06 14.9999 9 14.9999Z" fill="#292D32"/>
<path d="M12.5 14.9999C12.24 14.9999 11.98 14.8899 11.79 14.7099C11.61 14.5199 11.5 14.2599 11.5 13.9999C11.5 13.7399 11.61 13.48 11.79 13.29C12.17 12.92 12.84 12.92 13.21 13.29C13.39 13.48 13.5 13.7399 13.5 13.9999C13.5 14.2599 13.39 14.5199 13.21 14.7099C13.02 14.8899 12.76 14.9999 12.5 14.9999Z" fill="#292D32"/>
<path d="M9 18.4999C8.74 18.4999 8.48 18.3899 8.29 18.2099C8.11 18.0199 8 17.7599 8 17.4999C8 17.2399 8.11 16.9799 8.29 16.7899C8.39 16.6999 8.49 16.6299 8.62 16.5799C8.99 16.4199 9.43 16.5099 9.71 16.7899C9.89 16.9799 10 17.2399 10 17.4999C10 17.7599 9.89 18.0199 9.71 18.2099C9.52 18.3899 9.26 18.4999 9 18.4999Z" fill="#292D32"/>
</svg>
