<svg width="25" height="24" viewBox="0 0 25 24" fill="none" xmlns="http://www.w3.org/2000/svg">
<path opacity="0.4" d="M21.7512 9.95766L21.7512 9.95858L21.2312 18.2185C21.1708 19.1752 20.8884 19.9872 20.3563 20.5559C19.8338 21.1143 19.0126 21.5 17.7402 21.5H7.26017C5.98751 21.5 5.16369 21.1142 4.63994 20.5555C4.10698 19.987 3.82494 19.1757 3.76933 18.2209L3.76918 18.2186L3.24918 9.95858L3.24912 9.95766C3.12789 8.08726 4.6177 6.5 6.50017 6.5C7.30198 6.5 8.03045 6.04138 8.39404 5.34016L8.39411 5.34019L8.398 5.33237L9.11716 3.88406C9.29687 3.52946 9.63829 3.178 10.0647 2.91379C10.4918 2.64922 10.9591 2.5 11.3602 2.5H13.6502C14.0454 2.5 14.51 2.64869 14.9363 2.91349C15.3619 3.17782 15.7035 3.52944 15.8832 3.88416C15.8835 3.88463 15.8837 3.8851 15.8839 3.88557L16.6023 5.33237L16.6023 5.3324L16.6063 5.34016C16.9699 6.04138 17.6984 6.5 18.5002 6.5C20.3826 6.5 21.8724 8.08726 21.7512 9.95766Z" fill="#637381" stroke="#637381"/>
<path d="M14 8.25H11C10.8661 8.25 10.75 8.13386 10.75 8C10.75 7.86614 10.8661 7.75 11 7.75H14C14.1339 7.75 14.25 7.86614 14.25 8C14.25 8.13386 14.1339 8.25 14 8.25Z" fill="#637381" stroke="#637381"/>
<path d="M15.3801 14.7501C15.3801 16.3407 14.0907 17.6301 12.5001 17.6301C10.9095 17.6301 9.62012 16.3407 9.62012 14.7501C9.62012 13.1595 10.9095 11.8701 12.5001 11.8701C14.0907 11.8701 15.3801 13.1595 15.3801 14.7501Z" fill="#637381" stroke="#637381"/>
</svg>
