<svg width="25" height="24" viewBox="0 0 25 24" fill="none" xmlns="http://www.w3.org/2000/svg">
<path opacity="0.4" d="M22 8.45888V8.4999H21.47C21.6514 8.4999 21.8284 8.48731 22 8.45888ZM18.53 8.4999H3V7.5399C3 5.52761 4.63457 3.8999 6.65 3.8999H16V5.9699C16 6.70482 16.2218 7.35136 16.6852 7.81471C17.1485 8.27805 17.7951 8.4999 18.53 8.4999Z" fill="#637381" stroke="#637381"/>
<path d="M9.75 16.5C9.75 15.8139 9.18614 15.25 8.5 15.25H6.5C5.81386 15.25 5.25 15.8139 5.25 16.5C5.25 17.1861 5.81386 17.75 6.5 17.75H8.5C9.18614 17.75 9.75 17.1861 9.75 16.5ZM9.75 16.5C9.75 15.8139 10.3139 15.25 11 15.25H15C15.6861 15.25 16.25 15.8139 16.25 16.5C16.25 17.1861 15.6861 17.75 15 17.75H11C10.3139 17.75 9.75 17.1861 9.75 16.5ZM3 16.46V9.5H22V16.46C22 18.4723 20.3654 20.1 18.35 20.1H6.65C4.63457 20.1 3 18.4723 3 16.46Z" fill="#637381" stroke="#637381"/>
<path d="M17.5464 5.52355L17.5464 5.52357L17.5497 5.52678L18.6483 6.60545C18.848 6.80406 19.1072 6.9 19.37 6.9H19.3701H19.3701H19.3702H19.3702H19.3703H19.3703H19.3704H19.3705H19.3705H19.3706H19.3706H19.3707H19.3707H19.3708H19.3709H19.3709H19.371H19.371H19.3711H19.3711H19.3712H19.3712H19.3713H19.3713H19.3714H19.3714H19.3715H19.3716H19.3716H19.3717H19.3717H19.3718H19.3718H19.3719H19.3719H19.372H19.372H19.3721H19.3721H19.3722H19.3722H19.3723H19.3723H19.3724H19.3724H19.3725H19.3725H19.3726H19.3726H19.3727H19.3727H19.3728H19.3728H19.3729H19.3729H19.3729H19.373H19.373H19.3731H19.3731H19.3732H19.3732H19.3733H19.3733H19.3734H19.3734H19.3735H19.3735H19.3735H19.3736H19.3736H19.3737H19.3737H19.3738H19.3738H19.3739H19.3739H19.3739H19.374H19.374H19.3741H19.3741H19.3742H19.3742H19.3742H19.3743H19.3743H19.3744H19.3744H19.3745H19.3745H19.3745H19.3746H19.3746H19.3747H19.3747H19.3747H19.3748H19.3748H19.3749H19.3749H19.3749H19.375H19.375H19.3751H19.3751H19.3751H19.3752H19.3752H19.3753H19.3753H19.3753H19.3754H19.3754H19.3755H19.3755H19.3755H19.3756H19.3756H19.3756H19.3757H19.3757H19.3758H19.3758H19.3758H19.3759H19.3759H19.3759H19.376H19.376H19.376H19.3761H19.3761H19.3762H19.3762H19.3762H19.3763H19.3763H19.3763H19.3764H19.3764H19.3764H19.3765H19.3765H19.3765H19.3766H19.3766H19.3766H19.3767H19.3767H19.3768H19.3768H19.3768H19.3769H19.3769H19.3769H19.377H19.377H19.377H19.3771H19.3771H19.3771H19.3772H19.3772H19.3772H19.3773H19.3773H19.3773H19.3774H19.3774H19.3774H19.3775H19.3775H19.3775H19.3775H19.3776H19.3776H19.3776H19.3777H19.3777H19.3777H19.3778H19.3778H19.3778H19.3779H19.3779H19.3779H19.378H19.378H19.378H19.3781H19.3781H19.3781H19.3781H19.3782H19.3782H19.3782H19.3783H19.3783H19.3783H19.3784H19.3784H19.3784H19.3785H19.3785H19.3785H19.3785H19.3786H19.3786H19.3786H19.3787H19.3787H19.3787H19.3788H19.3788H19.3788H19.3788H19.3789H19.3789H19.3789H19.379H19.379H19.379H19.3791H19.3791H19.3791H19.3791H19.3792H19.3792H19.3792H19.3793H19.3793H19.3793H19.3794H19.3794H19.3794H19.3794H19.3795H19.3795H19.3795H19.3796H19.3796H19.3796H19.3796H19.3797H19.3797H19.3797H19.3798H19.3798H19.3798H19.3799H19.3799H19.3799H19.3799H19.38H19.38H19.38H19.3801H19.3801H19.3801H19.3801H19.3802H19.3802H19.3802H19.3803H19.3803H19.3803H19.3804H19.3804H19.3804H19.3804H19.3805H19.3805H19.3805H19.3806H19.3806H19.3806H19.3806H19.3807H19.3807H19.3807H19.3808H19.3808H19.3808H19.3809H19.3809H19.3809H19.3809H19.381H19.381H19.381H19.3811H19.3811H19.3811H19.3812H19.3812H19.3812H19.3812H19.3813H19.3813H19.3813H19.3814H19.3814H19.3814H19.3815H19.3815H19.3815H19.3815H19.3816H19.3816H19.3816H19.3817H19.3817H19.3817H19.3818H19.3818H19.3818H19.3819H19.3819H19.3819H19.3819H19.382H19.382H19.382H19.3821H19.3821H19.3821H19.3822H19.3822H19.3822H19.3823H19.3823H19.3823H19.3824H19.3824H19.3824H19.3825H19.3825H19.3825H19.3825H19.3826H19.3826H19.3826H19.3827H19.3827H19.3827H19.3828H19.3828H19.3828H19.3829H19.3829H19.3829H19.383H19.383H19.383H19.3831H19.3831H19.3831H19.3832H19.3832H19.3832H19.3833H19.3833H19.3834H19.3834H19.3834H19.3835H19.3835H19.3835H19.3836H19.3836H19.3836H19.3837H19.3837H19.3837H19.3838H19.3838H19.3838H19.3839H19.3839H19.384H19.384H19.384H19.3841H19.3841H19.3841H19.3842H19.3842H19.3842H19.3843H19.3843H19.3844H19.3844H19.3844H19.3845H19.3845H19.3845H19.3846H19.3846H19.3847H19.3847H19.3847H19.3848H19.3848H19.3849H19.3849H19.3849H19.385H19.385H19.3851H19.3851H19.3851H19.3852H19.3852H19.3853H19.3853H19.3853H19.3854H19.3854H19.3855H19.3855H19.3855H19.3856H19.3856H19.3857H19.3857H19.3858H19.3858H19.3858H19.3859H19.3859H19.386H19.386H19.3861H19.3861H19.3861H19.3862H19.3862H19.3863H19.3863H19.3864H19.3864H19.3865H19.3865H19.3865H19.3866H19.3866H19.3867H19.3867H19.3868H19.3868H19.3869H19.3869H19.387H19.387H19.3871H19.3871H19.3871H19.3872H19.3872H19.3873H19.3873H19.3874H19.3874H19.3875H19.3875H19.3876H19.3876H19.3877H19.3877H19.3878H19.3878H19.3879H19.3879H19.388H19.388H19.3881H19.3881H19.3882H19.3882H19.3883H19.3883H19.3884H19.3884H19.3885H19.3886H19.3886H19.3887H19.3887H19.3888H19.3888H19.3889H19.3889H19.389H19.389H19.3891H19.3891H19.3892H19.3893H19.3893H19.3894H19.3894H19.3895H19.3895H19.3896H19.3897H19.3897H19.3898H19.3898H19.3899H19.3899H19.39C19.6873 6.9 19.964 6.75723 20.1429 6.54162L22.5096 3.7754C22.8654 3.36036 22.8329 2.70387 22.3724 2.3396C21.9502 1.99777 21.3237 2.03233 20.9516 2.46319L20.9499 2.46514L19.2987 4.39707L18.9857 4.08857C18.5775 3.66734 17.9283 3.70454 17.5464 4.08645C17.1512 4.48171 17.1512 5.12829 17.5464 5.52355ZM18.53 1.5H21.47C22.0051 1.5 22.3735 1.65815 22.6077 1.8923C22.8418 2.12646 23 2.49492 23 3.03V5.97C23 6.50508 22.8418 6.87354 22.6077 7.1077C22.3735 7.34185 22.0051 7.5 21.47 7.5H18.53C17.9949 7.5 17.6265 7.34185 17.3923 7.1077C17.1582 6.87354 17 6.50508 17 5.97V3.03C17 2.49492 17.1582 2.12646 17.3923 1.8923C17.6265 1.65815 17.9949 1.5 18.53 1.5Z" fill="#637381" stroke="#637381"/>
</svg>
