<svg width="25" height="24" viewBox="0 0 25 24" fill="none" xmlns="http://www.w3.org/2000/svg">
<path opacity="0.4" d="M12 15.7V15.81H3V15.7C3 14.8162 3.12268 14.4656 3.29471 14.2949C3.4681 14.1228 3.82545 14 4.71997 14H10.28C11.1746 14 11.5319 14.1228 11.7053 14.2949C11.8773 14.4656 12 14.8162 12 15.7Z" fill="#637381" stroke="#637381"/>
<path d="M3 17.8101V16.8101H12V17.8101V19.8001C12 20.6838 11.8773 21.0344 11.7053 21.2052C11.5319 21.3773 11.1746 21.5001 10.28 21.5001H4.71997C3.82545 21.5001 3.4681 21.3773 3.29471 21.2052C3.12268 21.0344 3 20.6838 3 19.8001V17.8101Z" fill="#637381" stroke="#637381"/>
<g opacity="0.4">
<path fill-rule="evenodd" clip-rule="evenodd" d="M22.5 14.25C22.9142 14.25 23.25 14.5858 23.25 15C23.25 19.2842 19.7842 22.75 15.5 22.75C15.2298 22.75 14.9805 22.6047 14.8474 22.3695C14.7142 22.1344 14.7179 21.8458 14.8569 21.6141L15.9069 19.8641C16.12 19.5089 16.5807 19.3938 16.9359 19.6069C17.291 19.82 17.4062 20.2807 17.1931 20.6359L16.9218 21.0881C19.6909 20.4456 21.75 17.9666 21.75 15C21.75 14.5858 22.0858 14.25 22.5 14.25Z" fill="#292D32"/>
<path fill-rule="evenodd" clip-rule="evenodd" d="M8.07821 2.91194C5.3091 3.55436 3.25 6.03342 3.25 9C3.25 9.41421 2.91421 9.75 2.5 9.75C2.08579 9.75 1.75 9.41421 1.75 9C1.75 4.71579 5.21579 1.25 9.5 1.25C9.7702 1.25 10.0195 1.39534 10.1526 1.63047C10.2858 1.8656 10.2821 2.15417 10.1431 2.38587L9.09313 4.13587C8.88002 4.49105 8.41933 4.60623 8.06414 4.39312C7.70896 4.18001 7.59378 3.71932 7.80689 3.36413L8.07821 2.91194Z" fill="#292D32"/>
</g>
<path opacity="0.4" d="M23.5 6.5H14.5C14.5 8.98 16.52 11 19 11C21.49 11 23.5 8.98 23.5 6.5Z" fill="#292D32"/>
<path d="M23.5 6.5C23.5 4.01 21.49 2 19 2C16.52 2 14.5 4.01 14.5 6.5H23.5Z" fill="#292D32"/>
</svg>
