<svg width="25" height="24" viewBox="0 0 25 24" fill="none" xmlns="http://www.w3.org/2000/svg">
<path opacity="0.4" d="M20.99 8.51856V8.52V16.48C20.99 18.1107 20.5065 19.3514 19.6739 20.1839C18.8414 21.0165 17.6007 21.5 15.97 21.5H8.02C6.39461 21.5 5.15378 21.0167 4.3198 20.1827C3.48586 19.3488 3 18.1055 3 16.47V8.52C3 6.88993 3.48564 5.64912 4.31957 4.81629C5.15361 3.98334 6.3946 3.5 8.02 3.5H15.98C17.6055 3.5 18.8463 3.98339 19.6789 4.81605C20.5114 5.6485 20.9947 6.88882 20.99 8.51856Z" fill="#637381" stroke="#637381"/>
<path d="M16.4924 3.33515L16.4924 3.33516L16.494 3.33358C17.3621 2.46549 18.1388 2.11105 18.8464 2.11502C19.555 2.119 20.3209 2.48299 21.1655 3.33213C22.0245 4.20078 22.3805 4.97143 22.3805 5.69003C22.3805 6.39536 22.0278 7.14556 21.1669 8.00648L21.1653 8.00807L20.1027 9.0803C17.8709 8.41825 16.0823 6.62969 15.4202 4.39789L16.4924 3.33515Z" fill="#637381" stroke="#637381"/>
<path d="M13.6464 6.34013C13.7722 6.61277 13.9096 6.87728 14.0686 7.14278C14.1894 7.35385 14.3249 7.56462 14.4495 7.72662C14.5788 7.93217 14.723 8.11888 14.8349 8.24692C14.899 8.34917 14.9657 8.42171 15.0003 8.45724C15.3131 8.82905 15.6536 9.18172 15.9858 9.45272C16.0254 9.49165 16.0626 9.52612 16.0958 9.55475L16.0978 9.55646C16.1121 9.56888 16.1431 9.59566 16.1824 9.62284C16.3444 9.75787 16.5364 9.91747 16.7182 10.0334C16.9179 10.1797 17.1251 10.3141 17.329 10.4365C17.593 10.6011 17.8729 10.7404 18.1432 10.8706L18.1531 10.8753L18.1631 10.8797C18.1883 10.8904 18.2134 10.9012 18.2386 10.9121C18.2415 10.9133 18.2444 10.9146 18.2473 10.9158L13.4065 15.7565L13.4065 15.7565L13.4016 15.7615C13.2763 15.8904 13.0743 16.0329 12.8373 16.1525C12.6007 16.2719 12.366 16.3498 12.1896 16.3751C12.1895 16.3751 12.1894 16.3751 12.1894 16.3751L9.23246 16.7933C9.12461 16.803 9.04057 16.8101 8.9601 16.8101C8.5755 16.8101 8.25838 16.6813 8.03365 16.4565C7.77457 16.1974 7.63316 15.7748 7.70503 15.2711C7.70505 15.271 7.70506 15.2709 7.70508 15.2708L8.13498 12.2915L8.13508 12.2908C8.15993 12.1168 8.23917 11.883 8.36065 11.6445C8.48181 11.4066 8.62588 11.2014 8.75365 11.0736L13.5966 6.23074C13.6127 6.26685 13.6293 6.30331 13.6464 6.34013ZM13.6464 6.34013C13.6463 6.33996 13.6462 6.33979 13.6461 6.33962L14.1001 6.13009L13.6466 6.34064C13.6465 6.34047 13.6464 6.3403 13.6464 6.34013Z" fill="#637381" stroke="#637381"/>
</svg>
