<svg width="25" height="24" viewBox="0 0 25 24" fill="none" xmlns="http://www.w3.org/2000/svg">
<path d="M18.25 16.75V17.25H18.75H21C21.1339 17.25 21.25 17.3661 21.25 17.5C21.25 17.6339 21.1339 17.75 21 17.75H18.75H18.25V18.25V20.5C18.25 20.6339 18.1339 20.75 18 20.75C17.8661 20.75 17.75 20.6339 17.75 20.5V18.25V17.75H17.25H15C14.8661 17.75 14.75 17.6339 14.75 17.5C14.75 17.3661 14.8661 17.25 15 17.25H17.25H17.75V16.75V14.5C17.75 14.3661 17.8661 14.25 18 14.25C18.1339 14.25 18.25 14.3661 18.25 14.5V16.75Z" fill="#637381" stroke="#637381"/>
<path opacity="0.4" d="M20.2731 9.99001V9.99H20.27H16.23C15.4723 9.99 15.0694 9.85211 14.8501 9.65808C14.6466 9.47796 14.5 9.15669 14.5 8.51V3.98C14.5 3.33935 14.6461 3.01693 14.8509 2.83503C15.0707 2.63973 15.474 2.5 16.23 2.5H20.27C21.026 2.5 21.4293 2.63973 21.6491 2.83503C21.8539 3.01693 22 3.33935 22 3.98V8.52C22 9.16102 21.8537 9.48268 21.6499 9.66308C21.4312 9.85664 21.0288 9.99476 20.2731 9.99001Z" fill="#637381" stroke="#637381"/>
<path d="M8.77315 9.99001V9.99H8.77H4.73C3.97225 9.99 3.56936 9.85211 3.35012 9.65808C3.14661 9.47796 3 9.15669 3 8.51V3.98C3 3.33935 3.14613 3.01693 3.35085 2.83503C3.57065 2.63973 3.97403 2.5 4.73 2.5H8.77C9.52597 2.5 9.92935 2.63973 10.1491 2.83503C10.3539 3.01693 10.5 3.33935 10.5 3.98V8.52C10.5 9.16102 10.3537 9.48268 10.1499 9.66308C9.93116 9.85664 9.52884 9.99476 8.77315 9.99001Z" fill="#637381" stroke="#637381"/>
<path opacity="0.4" d="M11 19.77V15.73C11 14.14 10.36 13.5 8.77 13.5H4.73C3.14 13.5 2.5 14.14 2.5 15.73V19.77C2.5 21.36 3.14 22 4.73 22H8.77C10.36 22 11 21.36 11 19.77Z" fill="#292D32"/>
</svg>
