<svg width="33" height="32" viewBox="0 0 33 32" fill="none" xmlns="http://www.w3.org/2000/svg">
<rect x="1" y="0.5" width="31" height="31" rx="4.5" stroke="#FF000F"/>
<path opacity="0.4" d="M16.0666 25.5599V25.103L15.6116 25.062C10.5458 24.6049 6.5733 20.3511 6.5733 15.1866V13.0799C6.5733 12.8361 6.76278 12.6466 7.00664 12.6466C7.25049 12.6466 7.43997 12.8361 7.43997 13.0799V15.1999C7.43997 20.1961 11.5038 24.2599 16.5 24.2599C21.4961 24.2599 25.56 20.1961 25.56 15.1999V13.0933C25.56 12.8494 25.7494 12.6599 25.9933 12.6599C26.2197 12.6599 26.4175 12.8469 26.4266 13.0877V15.1866C26.4266 20.3516 22.4405 24.6177 17.3895 25.0619L16.9333 25.102V25.5599V28.3999C16.9333 28.6438 16.7438 28.8333 16.5 28.8333C16.2561 28.8333 16.0666 28.6438 16.0666 28.3999V25.5599Z" fill="#322929" stroke="#322929"/>
<path d="M18.7295 12.0633L18.7295 12.0633L18.7308 12.0582C18.9022 11.3943 18.5226 10.6862 17.8442 10.5041C16.9727 10.2677 16.0567 10.2675 15.1851 10.5033C14.512 10.679 14.0886 11.376 14.2844 12.0655C14.4619 12.7371 15.1458 13.159 15.8487 12.9613L15.8491 12.9612C16.2803 12.8396 16.733 12.8396 17.1643 12.9612L17.183 12.9664L17.202 12.9703C17.2052 12.9709 17.2087 12.9716 17.2124 12.9723C17.2728 12.9845 17.3824 13.0066 17.5 13.0066C18.0691 13.0066 18.5764 12.6318 18.7295 12.0633ZM19.4215 9.52219L19.4228 9.51875C19.668 8.84996 19.3084 8.12872 18.6588 7.89052L18.658 7.89021C17.2693 7.38392 15.737 7.38321 14.3479 7.88807C13.6784 8.11583 13.3369 8.86328 13.5773 9.51875C13.8178 10.1748 14.5563 10.5257 15.2188 10.2827L15.2188 10.2827L15.2208 10.282C16.0418 9.97706 16.9582 9.97706 17.7793 10.282L17.7974 10.2887L17.816 10.2941C17.9448 10.3309 18.0716 10.3533 18.22 10.3533C18.7386 10.3533 19.2249 10.0464 19.4215 9.52219ZM11.1067 8.55996C11.1067 5.58277 13.5228 3.16663 16.5 3.16663C19.4772 3.16663 21.8934 5.58277 21.8934 8.55996V15.3866C21.8934 18.3638 19.4772 20.78 16.5 20.78C13.5228 20.78 11.1067 18.3638 11.1067 15.3866V8.55996Z" fill="#FF000F" stroke="#FF000F"/>
</svg>
