<svg width="25" height="24" viewBox="0 0 25 24" fill="none" xmlns="http://www.w3.org/2000/svg">
<path opacity="0.4" d="M8.47749 12.17L3 12.1975V7.81C3 6.08944 3.51093 4.77618 4.39355 3.89355C5.27618 3.01093 6.58944 2.5 8.31 2.5H16.69C18.4106 2.5 19.7238 3.01093 20.6064 3.89355C21.4891 4.77618 22 6.08944 22 7.81V13.5H18.42C18.1967 13.5 17.9204 13.4168 17.659 13.2585C17.3975 13.1002 17.1959 12.894 17.0926 12.6974L17.0922 12.6966L16.0522 10.7266L16.0521 10.7264C15.8842 10.4086 15.5726 10.0523 15.1068 10.0809C14.6458 10.1093 14.3775 10.495 14.2458 10.8243L14.2451 10.826L11.9451 16.636L11.9451 16.636L11.945 16.6362C11.9448 16.6358 11.9447 16.6354 11.9445 16.635C11.9444 16.6347 11.9443 16.6345 11.9442 16.6343L10.8057 13.758C10.6264 13.2946 10.2732 12.903 9.87157 12.6293C9.46926 12.3552 8.97542 12.17 8.48 12.17L8.47749 12.17Z" fill="#637381" stroke="#637381"/>
<path d="M22 14.4999V16.1899C22 17.878 21.5099 19.172 20.6614 20.0515C19.8137 20.9301 18.553 21.4523 16.8986 21.49L16.8865 21.4903L16.8744 21.4912C16.7554 21.4997 16.6239 21.4999 16.47 21.4999H8.47C8.35527 21.4999 8.25862 21.4995 8.17527 21.492L8.15692 21.4903L8.1385 21.49C6.4746 21.4617 5.20449 20.9415 4.34995 20.0616C3.49466 19.1808 3 17.8823 3 16.1899V13.1974L8.48 13.1699C8.48038 13.1699 8.48076 13.1699 8.48114 13.1699C8.73548 13.1702 9.03614 13.27 9.30843 13.4556C9.5812 13.6415 9.78257 13.8841 9.8735 14.1198L9.87348 14.1198L9.8751 14.1239L11.0151 17.0039L11.0158 17.0056C11.0959 17.2058 11.2019 17.3921 11.3432 17.536C11.4867 17.682 11.6924 17.8074 11.9487 17.8074C12.206 17.8074 12.412 17.6812 12.5552 17.5332C12.6952 17.3884 12.7986 17.2016 12.8758 17.0017L15.172 11.2012L16.2074 13.1625C16.2075 13.1626 16.2075 13.1628 16.2076 13.1629C16.4144 13.5562 16.7627 13.8848 17.141 14.1139C17.5196 14.3431 17.9733 14.4999 18.42 14.4999H22Z" fill="#637381" stroke="#637381"/>
<mask id="path-3-inside-1_3090_12046" fill="white">
<path d="M2.49973 12.7V16.01C2.47973 15.69 2.46973 15.35 2.46973 15V12.7H2.49973Z"/>
</mask>
<path d="M2.49973 12.7V16.01C2.47973 15.69 2.46973 15.35 2.46973 15V12.7H2.49973Z" fill="#637381"/>
<path d="M2.49973 12.7H3.49973V11.7H2.49973V12.7ZM2.49973 16.01L1.50167 16.0723L3.49973 16.01H2.49973ZM2.46973 12.7V11.7H1.46973V12.7H2.46973ZM1.49973 12.7V16.01H3.49973V12.7H1.49973ZM3.49778 15.9476C3.47921 15.6504 3.46973 15.3313 3.46973 15H1.46973C1.46973 15.3686 1.48025 15.7295 1.50167 16.0723L3.49778 15.9476ZM3.46973 15V12.7H1.46973V15H3.46973ZM2.46973 13.7H2.49973V11.7H2.46973V13.7Z" fill="#637381" mask="url(#path-3-inside-1_3090_12046)"/>
</svg>
