<svg width="25" height="24" viewBox="0 0 25 24" fill="none" xmlns="http://www.w3.org/2000/svg">
<path opacity="0.4" d="M20.243 7.22939L20.2433 7.22955C20.7125 7.55801 21.1567 8.0965 21.4827 8.72319C21.8088 9.34999 21.9943 10.022 21.99 10.5962V10.5999V17.3799C21.99 19.6545 20.1432 21.4999 17.88 21.4999H7.11C4.84825 21.4999 3 19.6459 3 17.3699V10.4699C3 9.9344 3.1685 9.29497 3.46516 8.69011C3.76177 8.08536 4.16559 7.55776 4.59561 7.22567L4.59562 7.22567L4.59762 7.2241L9.60625 3.31518C9.60646 3.31501 9.60668 3.31484 9.6069 3.31467C10.9438 2.27936 13.1028 2.22538 14.493 3.19939C14.4931 3.1994 14.4931 3.19942 14.4931 3.19943L20.243 7.22939Z" fill="#52B8AB" fill-opacity="0.56" stroke="#52B8AB"/>
<path d="M15.9904 13.2H16.4904V12.7V12C16.4904 10.5739 15.3265 9.41001 13.9004 9.41001H13.2004H12.7004V9.91001V12.7V13.2H13.2004H15.9904ZM12.3004 9.91001V9.41001H11.8004H11.1004C9.67421 9.41001 8.51035 10.5739 8.51035 12V12.7V13.2H9.01035H11.8004H12.3004V12.7V9.91001ZM9.01035 13.59H8.51035V14.09V14.79C8.51035 16.2162 9.67421 17.38 11.1004 17.38H11.8004H12.3004V16.88V14.09V13.59H11.8004H9.01035ZM12.7004 16.88V17.38H13.2004H13.9004C15.3265 17.38 16.4904 16.2162 16.4904 14.79V14.09V13.59H15.9904H13.2004H12.7004V14.09V16.88ZM11.1004 9.01001H13.9004C15.5423 9.01001 16.8804 10.3543 16.8804 12V14.79C16.8804 16.4429 15.5351 17.78 13.8904 17.78H11.1004C9.45649 17.78 8.11035 16.4339 8.11035 14.79V12C8.11035 10.3471 9.45556 9.01001 11.1004 9.01001Z" fill="#52B8AB" fill-opacity="0.56" stroke="#52B8AB"/>
</svg>
