<svg width="400" height="400" viewBox="0 0 212 160" fill="none" xmlns="http://www.w3.org/2000/svg">
<g opacity="0.2">
<path opacity="0.64" fill-rule="evenodd" clip-rule="evenodd" d="M0 88.347C0 106.772 6.60088 123.562 17.4631 136.252C29.9244 150.814 47.9947 159.969 68.1371 160C76.9401 160.013 85.3574 158.272 93.0891 155.095C97.0867 153.451 101.561 153.64 105.433 155.587C109.975 157.868 115.06 159.147 120.431 159.147C122.649 159.147 124.822 158.928 126.923 158.51C132.921 157.323 138.38 154.515 142.863 150.537C145.68 148.036 149.288 146.779 152.976 146.783H153.038C165.223 146.783 176.542 142.902 185.939 136.252C194.34 130.314 201.2 122.165 205.771 112.596C209.757 104.258 212 94.8391 212 84.8701C212 50.6788 185.6 22.9571 153.038 22.9571C149.719 22.9571 146.467 23.2515 143.294 23.8008C134.893 9.52003 119.849 0 102.687 0C95.4412 0 88.572 1.69675 82.4232 4.73832C76.5757 7.62148 71.3767 11.7183 67.1238 16.7111C52.6826 16.9529 39.3295 21.9066 28.4005 30.174C11.1969 43.1801 0 64.3922 0 88.347Z" fill="url(#paint0_linear_3247_10895)"/>
</g>
<path opacity="0.05" d="M129.411 91.6407C128.418 92.8286 127.346 92.8087 126.707 92.6412L126.731 92.026C126.731 92.026 129.372 90.8115 129.304 91.0667C129.279 91.1623 129.329 91.3922 129.411 91.6407Z" fill="#FF5630"/>
<path opacity="0.05" d="M136.649 92.9853C134.963 93.9659 133.974 92.8165 133.744 92.491C133.885 92.1176 134.098 91.5117 134.054 91.3389C133.991 91.0825 136.628 92.297 136.628 92.297L136.649 92.9853Z" fill="#FF5630"/>
<path opacity="0.05" d="M134.842 83.2016C134.842 83.2016 136.446 82.2715 136.796 82.69C137.146 83.1086 134.842 83.2016 134.842 83.2016Z" fill="#FF5630"/>
<path opacity="0.05" d="M135.811 83.7132C135.811 83.7132 135.547 83.8461 136.129 84.0162C136.711 84.1862 135.811 83.7132 135.811 83.7132Z" fill="#FF5630"/>
<path opacity="0.05" d="M126.11 81.1553C126.056 81.1712 127.445 82.0987 128.699 81.3307C128.694 81.3307 126.423 81.0596 126.11 81.1553Z" fill="#FF5630"/>
<path opacity="0.05" d="M128.631 82.9292C128.631 82.9292 128.251 83.6813 127.472 83.7929C126.693 83.9045 128.631 82.9292 128.631 82.9292Z" fill="#FF5630"/>
<path opacity="0.05" d="M133.73 84.5609C133.73 84.5609 135.558 87.4842 135.208 88.1738C134.858 88.8635 133.73 84.5609 133.73 84.5609Z" fill="#FF5630"/>
<path opacity="0.05" d="M130.125 96.1849C130.125 96.3484 130.125 96.5012 130.109 96.6274C130.061 97.2187 128.615 96.9955 128.615 96.9955C127.295 97.1802 126.82 96.5424 126.663 95.9325C126.613 95.7343 126.589 95.5308 126.59 95.3265C126.589 95.2048 126.597 95.0831 126.614 94.9625V94.8415C126.898 94.7552 127.207 94.8186 127.435 95.0103C128.023 95.49 128.802 95.1219 128.802 95.1219C128.802 95.1219 129.373 95.1697 129.594 95.3611C129.718 95.4687 129.923 95.2096 130.079 94.9625C130.088 95.1219 130.102 95.4102 130.112 95.7185C130.122 95.8766 130.125 96.0361 130.125 96.1849Z" fill="#FF5630"/>
<path opacity="0.05" d="M127.806 96.1504C127.806 96.1504 127.41 96.5411 126.663 95.9378C126.613 95.7397 126.589 95.5361 126.59 95.3319C126.971 95.6242 127.679 96.1504 127.806 96.1504Z" fill="#FF5630"/>
<path opacity="0.05" d="M130.124 96.1849C130.059 96.2355 129.976 96.2567 129.895 96.2436C129.814 96.2306 129.742 96.1843 129.695 96.1158C129.849 95.9978 129.991 95.8643 130.118 95.7172C130.122 95.8766 130.124 96.0361 130.124 96.1849Z" fill="#FF5630"/>
<path opacity="0.05" d="M133.223 96.4587C133.223 96.6234 133.223 96.7763 133.237 96.9012C133.285 97.4938 134.731 97.2692 134.731 97.2692C136.051 97.4553 136.527 96.8174 136.684 96.2062C136.762 95.889 136.778 95.5597 136.733 95.2362V95.1153C136.448 95.0304 136.139 95.0937 135.91 95.2841C135.322 95.7637 134.545 95.3957 134.545 95.3957C134.545 95.3957 133.973 95.4448 133.752 95.6362C133.628 95.7438 133.424 95.4847 133.269 95.2375C133.26 95.397 133.244 95.6853 133.235 95.9936C133.224 96.1491 133.222 96.3085 133.223 96.4587Z" fill="#FF5630"/>
<path opacity="0.05" d="M135.542 96.4216C135.542 96.4216 135.938 96.8122 136.684 96.209C136.734 96.0114 136.759 95.8082 136.758 95.6044C136.375 95.8954 135.667 96.4216 135.542 96.4216Z" fill="#FF5630"/>
<path opacity="0.05" d="M133.223 96.4587C133.288 96.5092 133.371 96.5304 133.452 96.5173C133.533 96.5043 133.605 96.458 133.651 96.3896C133.497 96.2718 133.355 96.1382 133.228 95.991C133.224 96.1491 133.222 96.3085 133.223 96.4587Z" fill="#FF5630"/>
<g opacity="0.05">
<path d="M141.163 47.2306C141.191 47.1695 141.217 47.1084 141.242 47.0486C141.267 46.9888 141.277 46.9556 141.291 46.9077C141.243 47.0129 141.2 47.1207 141.163 47.2306Z" fill="#FF5630"/>
</g>
<path fill-rule="evenodd" clip-rule="evenodd" d="M69.6036 124.205C69.2836 123.817 69.1369 123.314 69.1982 122.813L75.0268 74.8224L75.51 70.8361C75.6221 69.9189 76.3928 69.2275 77.3112 69.2204L94.3834 69.1061C94.8745 69.1031 95.3437 68.9011 95.685 68.5458C96.0264 68.1906 96.2112 67.7119 96.1977 67.2179L96.1911 67.0359C96.1743 66.5376 96.3592 66.0539 96.7035 65.6954C97.0477 65.3369 97.5219 65.1345 98.0173 65.1344H115.957C116.964 65.1344 117.781 65.9547 117.783 66.9681C117.783 67.0507 117.778 67.1333 117.767 67.2152C117.699 67.7325 117.852 68.2547 118.188 68.6517C118.525 69.0487 119.013 69.283 119.532 69.2961L136.761 69.7386C137.291 69.7517 137.789 69.9962 138.126 70.4085C138.463 70.8207 138.604 71.36 138.515 71.8859L129.901 122.512L129.739 123.469C129.699 123.713 129.609 123.946 129.475 124.154L69.6036 124.205Z" fill="#005249"/>
<rect width="10.1089" height="34.3868" transform="matrix(0.821068 0.570831 -0.566006 0.824401 121.598 54.9669)" fill="white"/>
<rect width="7.1368" height="7.15241" transform="matrix(0.819427 0.573184 -0.568359 0.822781 122.195 56.3102)" fill="#FFAB00"/>
<rect opacity="0.5" width="7.14633" height="7.1622" transform="matrix(0.821068 0.570831 -0.566006 0.824401 117.614 63.402)" fill="#FFAB00"/>
<rect opacity="0.3" width="7.14633" height="7.1622" transform="matrix(0.821068 0.570831 -0.566006 0.824401 112.719 70.5306)" fill="#FFAB00"/>
<rect width="10.0933" height="34.3092" transform="matrix(0.959378 0.282123 -0.278883 0.960325 109.871 53.1915)" fill="white"/>
<rect width="7.13535" height="7.17314" transform="matrix(0.959378 0.282123 -0.278883 0.960325 111.142 54.1427)" fill="#FF5630"/>
<rect opacity="0.5" width="7.13535" height="7.17314" transform="matrix(0.959378 0.282123 -0.278883 0.960325 108.727 62.459)" fill="#FF5630"/>
<rect opacity="0.3" width="7.13535" height="7.17315" transform="matrix(0.959378 0.282124 -0.278883 0.960325 106.312 70.774)" fill="#FF5630"/>
<rect width="10.0887" height="34.3246" transform="matrix(0.996738 0.0807 -0.0797009 0.996819 103.012 53.7111)" fill="white"/>
<rect width="7.1321" height="7.17638" transform="matrix(0.996738 0.0807 -0.0797009 0.996819 104.442 54.3839)" fill="#00B8D9"/>
<rect opacity="0.5" width="7.1321" height="7.17638" transform="matrix(0.996738 0.0807001 -0.0797008 0.996819 103.751 63.0186)" fill="#00B8D9"/>
<rect opacity="0.3" width="7.1321" height="7.17637" transform="matrix(0.996738 0.0807 -0.0797009 0.996819 103.062 71.6556)" fill="#00B8D9"/>
<rect width="10.0885" height="34.3256" transform="matrix(0.99895 -0.0458231 0.0452533 0.998976 98.4873 55.0868)" fill="white"/>
<rect width="7.1319" height="7.17657" transform="matrix(0.99895 -0.0458232 0.0452533 0.998976 99.9902 55.5715)" fill="url(#paint1_linear_3247_10895)"/>
<rect opacity="0.5" width="7.14083" height="7.18552" transform="matrix(0.998737 -0.0502509 0.0496263 0.998768 100.661 63.9523)" fill="url(#paint2_linear_3247_10895)"/>
<rect opacity="0.3" width="7.1319" height="7.17657" transform="matrix(0.99895 -0.0458232 0.0452533 0.998976 100.773 72.8821)" fill="url(#paint3_linear_3247_10895)"/>
<path d="M102.767 100.323L93.8038 103.812L80.7035 108.908C80.2083 107.978 79.4795 106.721 78.5776 105.22C75.4745 100.046 70.3405 91.9979 65.7691 84.9249C60.6193 76.9523 56.1865 70.2248 56.1865 70.2248L59.3952 69.2946L85.6064 61.637L102.767 100.323Z" fill="#F4F6F8"/>
<path opacity="0.1" d="M102.767 100.323L93.8037 103.812C88.7966 104.862 83.6869 105.334 78.5735 105.22C75.4705 100.046 70.3365 91.9979 65.7651 84.9249L59.3965 69.2893L85.6063 61.637L102.767 100.323Z" fill="black"/>
<path d="M109.435 98.1515C109.435 98.1515 95.5109 106.44 74.7215 104.565L58.1484 63.9052L66.091 62.5313L93.5487 57.7863L109.13 97.3609L109.435 98.1515Z" fill="url(#paint4_linear_3247_10895)"/>
<path opacity="0.1" d="M109.125 97.3663C105.846 97.5284 102.052 97.5124 98.2361 97.054C94.1057 96.565 89.9516 95.5578 86.3903 93.7108C83.4126 92.1681 80.8668 90.4899 78.6471 88.4768C72.8727 83.2508 69.2995 75.7751 66.0908 62.5366L93.5485 57.7916L109.125 97.3663Z" fill="#FF5630"/>
<path d="M119.34 95.0928C119.34 95.0928 109.076 97.1152 98.6282 95.8701C94.4978 95.3811 90.3436 94.3739 86.7823 92.5269C83.8047 90.9843 81.2602 89.306 79.0391 87.2929C71.8928 80.8232 68.1189 70.9079 64.2275 50.8848C64.2275 50.8848 81.2905 55.0292 98.1634 45.951C98.1581 45.9577 103.845 81.6723 119.34 95.0928Z" fill="white"/>
<g opacity="0.3">
<path d="M73.0537 58.2355C73.0537 58.2355 86.9291 57.4462 90.8033 54.4365L91.3909 56.3367C91.3909 56.3367 82.223 60.4067 73.0537 60.4558V58.2355Z" fill="url(#paint5_linear_3247_10895)"/>
<path d="M73.0537 67.6165C73.0537 67.6165 86.4881 66.8764 96.6385 61.9427L96.9818 62.732C96.9818 62.732 88.927 67.4637 73.0537 68.7021V67.6165Z" fill="url(#paint6_linear_3247_10895)"/>
<path d="M74.1354 71.272C74.1354 71.272 87.5698 70.5319 97.7189 65.5982L98.0622 66.3875C98.0622 66.3875 90.0074 71.1179 74.1354 72.3576V71.272Z" fill="url(#paint7_linear_3247_10895)"/>
<path d="M75.2155 74.9327C75.2155 74.9327 88.6498 74.1926 98.8002 69.2589L99.1422 70.0482C99.1422 70.0482 91.0874 74.7799 75.2155 76.0183V74.9327Z" fill="url(#paint8_linear_3247_10895)"/>
<path d="M76.2968 78.5935C76.2968 78.5935 89.7311 77.8534 99.8802 72.9197L100.224 73.709C100.224 73.709 92.1687 78.4407 76.2968 79.6791V78.5935Z" fill="url(#paint9_linear_3247_10895)"/>
<path d="M77.3768 82.2555C77.3768 82.2555 90.8111 81.5154 100.962 76.5817L101.304 77.371C101.304 77.371 93.2487 82.1014 77.3768 83.3411V82.2555Z" fill="url(#paint10_linear_3247_10895)"/>
</g>
<path d="M171.839 127.709C171.839 127.709 166.256 127.37 166.914 131.307C166.914 131.307 166.782 132.002 167.41 132.318C167.41 132.318 167.419 132.026 167.982 132.125C168.183 132.159 168.386 132.169 168.589 132.155C168.863 132.136 169.123 132.028 169.33 131.846C169.33 131.846 170.9 131.194 171.51 128.614C171.51 128.614 171.962 128.05 171.943 127.905L171.002 128.304C171.002 128.304 171.324 128.988 171.07 129.556C171.07 129.556 171.04 128.329 170.859 128.36C170.822 128.36 170.369 128.596 170.369 128.596C170.369 128.596 170.923 129.792 170.501 130.653C170.501 130.653 170.66 129.185 170.192 128.683L169.532 129.072C169.532 129.072 170.179 130.302 169.741 131.307C169.741 131.307 169.853 129.767 169.392 129.166L168.791 129.638C168.791 129.638 169.4 130.851 169.029 131.684C169.029 131.684 168.98 129.891 168.661 129.755C168.661 129.755 168.132 130.221 168.056 130.419C168.056 130.419 168.472 131.299 168.213 131.764C168.213 131.764 168.055 130.568 167.925 130.568C167.925 130.568 167.397 131.365 167.347 131.897C167.347 131.897 167.369 131.089 167.798 130.487C167.496 130.545 167.217 130.691 166.996 130.906C166.996 130.906 167.077 130.345 167.928 130.297C167.928 130.297 168.361 129.697 168.476 129.659C168.476 129.659 167.631 129.589 167.118 129.817C167.118 129.817 167.57 129.286 168.632 129.529L169.224 129.043C169.224 129.043 168.111 128.889 167.64 129.059C167.64 129.059 168.183 128.591 169.384 128.926L170.03 128.538C170.03 128.538 169.082 128.332 168.517 128.405C168.517 128.405 169.112 128.081 170.22 128.432L170.681 128.223C170.681 128.223 169.986 128.09 169.783 128.063C169.58 128.037 169.568 127.986 169.568 127.986C170.008 127.912 170.46 127.962 170.874 128.133C170.874 128.133 171.855 127.771 171.839 127.709Z" fill="url(#paint11_linear_3247_10895)"/>
<path d="M174.439 114.712C174.439 114.712 171.292 114.521 171.666 116.741C171.627 116.972 171.739 117.202 171.945 117.311C171.945 117.311 171.951 117.146 172.268 117.202C172.381 117.221 172.496 117.226 172.61 117.218C172.764 117.208 172.911 117.147 173.028 117.045C173.028 117.045 173.912 116.677 174.257 115.222C174.257 115.222 174.512 114.905 174.501 114.824L173.973 115.051C173.973 115.051 174.154 115.438 174.011 115.758C174.011 115.758 173.994 115.065 173.892 115.081C173.871 115.081 173.617 115.214 173.617 115.214C173.617 115.214 173.928 115.879 173.693 116.374C173.693 116.374 173.783 115.546 173.519 115.262L173.145 115.483C173.145 115.483 173.51 116.176 173.263 116.742C173.263 116.742 173.326 115.873 173.066 115.536L172.728 115.802C172.728 115.802 173.07 116.486 172.86 116.955C172.86 116.955 172.832 115.944 172.653 115.868C172.524 115.977 172.41 116.102 172.311 116.239C172.311 116.239 172.546 116.736 172.4 116.997C172.4 116.997 172.311 116.324 172.238 116.321C172.238 116.321 171.942 116.766 171.912 117.072C171.926 116.788 172.014 116.513 172.167 116.275C171.996 116.307 171.838 116.389 171.714 116.511C171.714 116.511 171.76 116.195 172.242 116.168C172.242 116.168 172.486 115.83 172.551 115.808C172.551 115.808 172.074 115.768 171.785 115.897C171.785 115.897 172.04 115.6 172.638 115.735L172.973 115.46C172.973 115.46 172.345 115.374 172.079 115.469C172.079 115.469 172.386 115.204 173.063 115.398L173.428 115.178C173.147 115.117 172.86 115.092 172.573 115.105C172.573 115.105 172.91 114.922 173.533 115.12L173.797 115.003C173.797 115.003 173.401 114.925 173.29 114.913C173.179 114.901 173.169 114.869 173.169 114.869C173.417 114.827 173.672 114.856 173.906 114.951C173.906 114.951 174.45 114.747 174.439 114.712Z" fill="url(#paint12_linear_3247_10895)"/>
<path d="M155.863 116.639C155.863 116.639 152.063 116.407 152.511 119.088C152.464 119.366 152.6 119.644 152.848 119.776C152.848 119.776 152.848 119.577 153.244 119.643C153.381 119.666 153.52 119.673 153.658 119.663C153.844 119.65 154.021 119.577 154.162 119.453C154.162 119.453 155.23 119.009 155.646 117.253C155.646 117.253 155.954 116.87 155.941 116.77L155.292 117.047C155.292 117.047 155.512 117.512 155.339 117.898C155.339 117.898 155.317 117.064 155.195 117.082C155.17 117.082 154.862 117.245 154.862 117.245C154.862 117.245 155.238 118.055 154.954 118.645C154.954 118.645 155.063 117.646 154.744 117.303L154.293 117.569C154.293 117.569 154.732 118.407 154.434 119.09C154.434 119.09 154.511 118.042 154.198 117.629L153.788 117.95C153.788 117.95 154.203 118.775 153.949 119.343C153.949 119.343 153.918 118.122 153.7 118.03C153.7 118.03 153.342 118.347 153.288 118.478C153.288 118.478 153.57 119.077 153.395 119.393C153.395 119.393 153.287 118.58 153.198 118.576C153.198 118.576 152.843 119.115 152.802 119.484C152.82 119.142 152.926 118.812 153.11 118.524C152.904 118.564 152.714 118.663 152.564 118.81C152.564 118.81 152.62 118.429 153.198 118.395C153.198 118.395 153.493 117.986 153.572 117.962C153.572 117.962 152.996 117.913 152.647 118.068C152.647 118.068 152.954 117.71 153.676 117.873L154.08 117.541C154.08 117.541 153.324 117.437 153.001 117.552C153.001 117.552 153.371 117.234 154.19 117.466L154.629 117.201C154.629 117.201 153.984 117.061 153.598 117.112C153.598 117.112 154.005 116.891 154.758 117.13L155.072 116.988C155.072 116.988 154.599 116.895 154.46 116.881C154.322 116.866 154.315 116.827 154.315 116.827C154.615 116.776 154.923 116.81 155.204 116.926C155.204 116.926 155.875 116.68 155.863 116.639Z" fill="url(#paint13_linear_3247_10895)"/>
<rect width="22.6645" height="40.3538" rx="5" transform="matrix(0.307434 -0.951569 0.950429 0.31094 122.842 55.5616)" fill="white"/>
<g opacity="0.24">
<path d="M138.237 46.0031C138.237 48.3044 136.383 50.1701 134.096 50.1701C131.809 50.1701 129.955 48.3044 129.955 46.0031C129.955 43.7017 131.809 41.8361 134.096 41.8361C136.383 41.8361 138.237 43.7017 138.237 46.0031Z" fill="url(#paint14_linear_3247_10895)"/>
<path d="M144.004 45.2529L144.354 44.1674L161.512 49.7806L161.161 50.8661L144.004 45.2529Z" fill="url(#paint15_linear_3247_10895)"/>
<path d="M143.109 48.0204L143.46 46.9349L152.2 49.7943L151.85 50.8798L143.109 48.0204Z" fill="url(#paint16_linear_3247_10895)"/>
<path d="M142.214 50.7897L142.564 49.7042L156.7 54.3289L156.35 55.4144L142.214 50.7897Z" fill="url(#paint17_linear_3247_10895)"/>
<path d="M141.32 53.5578L141.671 52.4724L158.828 58.0856L158.477 59.171L141.32 53.5578Z" fill="url(#paint18_linear_3247_10895)"/>
</g>
<rect opacity="0.5" width="2.20576" height="4.99566" transform="matrix(0.307433 -0.95157 0.950429 0.310941 152.11 62.6282)" fill="url(#paint19_linear_3247_10895)"/>
<rect width="22.3149" height="34.6483" rx="4" transform="matrix(0.53836 -0.842715 0.839631 0.543157 119.323 94.943)" fill="white"/>
<path d="M137.403 100.965L144.806 89.24L145.951 89.9718L138.548 101.696L137.403 100.965Z" fill="#F4F6F8"/>
<path d="M139.848 102.527L147.251 90.8021L148.396 91.5339L140.993 103.258L139.848 102.527Z" fill="#F4F6F8"/>
<path d="M123.634 93.6313L127.004 88.2927L128.253 89.0908L124.882 94.4293L123.634 93.6313Z" fill="#DFE3E8"/>
<path d="M127.623 94.7127L135.026 82.9882L136.171 83.72L128.768 95.4446L127.623 94.7127Z" fill="#DFE3E8"/>
<path d="M130.069 96.2746L137.471 84.55L138.616 85.2818L131.213 97.0064L130.069 96.2746Z" fill="#DFE3E8"/>
<path d="M132.513 97.8391L139.916 86.1145L141.061 86.8463L133.658 98.5709L132.513 97.8391Z" fill="#DFE3E8"/>
<path d="M135.043 100.106L142.497 88.4373L143.636 89.1742L136.182 100.843L135.043 100.106Z" fill="#DFE3E8"/>
<path d="M150.113 95.8664L152.03 92.8304L155.047 94.7593L153.13 97.7953L150.113 95.8664Z" fill="#DFE3E8"/>
<path d="M118.931 75.0045L98.7173 75.2237C97.9607 75.2317 97.3513 75.8508 97.3506 76.6123V78.2932C97.3501 79.047 96.7526 79.663 96.0038 79.6817L81.4179 80.0338C80.7818 80.0499 80.2173 79.6262 80.0513 79.008L79.3659 76.4741C79.2016 75.8628 78.647 75.4408 78.0178 75.4483L58.5343 75.6595C58.1303 75.6635 57.7484 75.8455 57.4892 76.1574C57.2301 76.4693 57.1198 76.8798 57.1875 77.2806L65.0257 123.702C65.1381 124.369 65.7103 124.857 66.3818 124.86L127.934 125.126C128.346 125.127 128.738 124.943 129.001 124.623C129.265 124.304 129.373 123.883 129.295 123.475L120.3 76.1326C120.175 75.4727 119.598 74.9977 118.931 75.0045Z" fill="url(#paint20_linear_3247_10895)"/>
<g opacity="0.2">
<path d="M171.945 132.661C171.945 133.032 170.176 133.333 167.994 133.333C165.812 133.333 164.043 133.032 164.043 132.661C164.043 132.29 165.812 131.989 167.994 131.989C170.176 131.989 171.945 132.29 171.945 132.661Z" fill="url(#paint21_linear_3247_10895)"/>
<path d="M174.501 117.504C174.501 117.713 173.504 117.882 172.274 117.882C171.043 117.882 170.046 117.713 170.046 117.504C170.046 117.294 171.043 117.125 172.274 117.125C173.504 117.125 174.501 117.294 174.501 117.504Z" fill="url(#paint22_linear_3247_10895)"/>
<path d="M155.936 120.01C155.936 120.262 154.732 120.467 153.246 120.467C151.761 120.467 150.556 120.262 150.556 120.01C150.556 119.757 151.761 119.553 153.246 119.553C154.732 119.553 155.936 119.757 155.936 120.01Z" fill="url(#paint23_linear_3247_10895)"/>
<path d="M54.9615 114.962C54.9615 115.125 54.0031 115.258 52.821 115.258C51.6388 115.258 50.6805 115.125 50.6805 114.962C50.6805 114.798 51.6388 114.665 52.821 114.665C54.0031 114.665 54.9615 114.798 54.9615 114.962Z" fill="url(#paint24_linear_3247_10895)"/>
<path d="M46.7626 115.798C46.7626 115.961 45.8043 116.094 44.6221 116.094C43.44 116.094 42.4816 115.961 42.4816 115.798C42.4816 115.634 43.44 115.501 44.6221 115.501C45.8043 115.501 46.7626 115.634 46.7626 115.798Z" fill="url(#paint25_linear_3247_10895)"/>
<path d="M49.4248 118.18C49.4248 118.296 48.7438 118.39 47.9036 118.39C47.0635 118.39 46.3825 118.296 46.3825 118.18C46.3825 118.064 47.0635 117.97 47.9036 117.97C48.7438 117.97 49.4248 118.064 49.4248 118.18Z" fill="url(#paint26_linear_3247_10895)"/>
<path d="M40.9154 117.97C40.9154 118.086 40.2343 118.18 39.3942 118.18C38.5541 118.18 37.873 118.086 37.873 117.97C37.873 117.854 38.5541 117.76 39.3942 117.76C40.2343 117.76 40.9154 117.854 40.9154 117.97Z" fill="url(#paint27_linear_3247_10895)"/>
</g>
<path d="M38.5555 117.492C38.4598 117.413 38.3903 117.307 38.3561 117.187C38.3224 117.064 38.3813 116.934 38.4961 116.878C38.6281 116.829 38.7602 116.918 38.8658 117.011C38.9714 117.104 39.0916 117.202 39.2236 117.179C39.0811 117.049 39.0169 116.854 39.0546 116.664C39.06 116.625 39.076 116.589 39.1008 116.559C39.1721 116.482 39.3016 116.515 39.3874 116.576C39.6515 116.768 39.7347 117.138 39.736 117.473C39.7492 117.35 39.7492 117.226 39.736 117.104C39.7289 116.978 39.7843 116.857 39.8839 116.781C39.9482 116.746 40.0206 116.728 40.0938 116.73C40.2165 116.713 40.3409 116.748 40.4358 116.829C40.5283 116.955 40.5229 117.129 40.4226 117.25C40.3215 117.364 40.2018 117.46 40.0687 117.534C39.9677 117.595 39.8816 117.678 39.8165 117.777C39.8086 117.791 39.8023 117.805 39.798 117.82H39.0295C38.8575 117.733 38.698 117.622 38.5555 117.492Z" fill="url(#paint28_linear_3247_10895)"/>
<path d="M51.9514 114.592C51.8555 114.514 51.7859 114.409 51.752 114.289C51.7182 114.166 51.7764 114.036 51.8907 113.98C52.0227 113.931 52.1548 114.02 52.2604 114.113C52.3661 114.206 52.4849 114.307 52.6209 114.287C52.4783 114.157 52.4137 113.962 52.4506 113.772C52.4564 113.734 52.4729 113.697 52.4981 113.668C52.5694 113.59 52.6988 113.624 52.7846 113.683C53.0553 113.876 53.1319 114.247 53.1332 114.582C53.1465 114.458 53.1465 114.334 53.1332 114.211C53.1213 114.087 53.1706 113.965 53.2653 113.884C53.3299 113.85 53.4022 113.833 53.4752 113.835C53.5977 113.818 53.7218 113.853 53.8172 113.932C53.91 114.059 53.904 114.234 53.8027 114.354C53.7023 114.469 53.583 114.565 53.4502 114.639C53.3491 114.699 53.2629 114.782 53.1979 114.881C53.1902 114.895 53.184 114.909 53.1795 114.925H52.4281C52.2548 114.836 52.0944 114.725 51.9514 114.592Z" fill="url(#paint29_linear_3247_10895)"/>
<path d="M47.4872 117.492C47.3916 117.413 47.3217 117.307 47.2865 117.187C47.2528 117.064 47.3117 116.933 47.4265 116.878C47.5585 116.829 47.6905 116.918 47.7962 117.011C47.9018 117.104 48.0193 117.205 48.1567 117.186C48.0143 117.056 47.9497 116.86 47.9863 116.671C47.9922 116.632 48.0086 116.595 48.0339 116.566C48.1052 116.488 48.2346 116.522 48.3204 116.583C48.5911 116.774 48.6664 117.145 48.669 117.48C48.6822 117.357 48.6822 117.233 48.669 117.11C48.6586 116.985 48.7105 116.863 48.8077 116.783C48.8719 116.748 48.9444 116.731 49.0176 116.733C49.1403 116.715 49.2646 116.751 49.3596 116.831C49.4522 116.958 49.4462 117.132 49.3451 117.252C49.2444 117.367 49.1252 117.463 48.9925 117.537C48.8915 117.598 48.8054 117.681 48.7403 117.78C48.7323 117.793 48.7261 117.808 48.7218 117.823H47.956C47.7858 117.734 47.6281 117.622 47.4872 117.492Z" fill="url(#paint30_linear_3247_10895)"/>
<g opacity="0.08">
<path d="M40.1625 38.668C40.1625 40.2554 38.8838 41.5421 37.3064 41.5421C35.7289 41.5421 34.4502 40.2554 34.4502 38.668C34.4502 37.0807 35.7289 35.7939 37.3064 35.7939C38.8838 35.7939 40.1625 37.0807 40.1625 38.668Z" fill="url(#paint31_linear_3247_10895)"/>
<path d="M177.502 61.6357C177.502 63.223 176.224 64.5098 174.646 64.5098C173.069 64.5098 171.79 63.223 171.79 61.6357C171.79 60.0484 173.069 58.7616 174.646 58.7616C176.224 58.7616 177.502 60.0484 177.502 61.6357Z" fill="url(#paint32_linear_3247_10895)"/>
<path d="M126.16 29.5407C126.16 31.1281 124.882 32.4149 123.304 32.4149C121.727 32.4149 120.448 31.1281 120.448 29.5407C120.448 27.9534 121.727 26.6666 123.304 26.6666C124.882 26.6666 126.16 27.9534 126.16 29.5407Z" fill="url(#paint33_linear_3247_10895)"/>
<path d="M47.8053 54.5242C47.8053 57.1844 45.6622 59.341 43.0186 59.341C40.375 59.341 38.232 57.1844 38.232 54.5242C38.232 51.864 40.375 49.7074 43.0186 49.7074C45.6622 49.7074 47.8053 51.864 47.8053 54.5242Z" fill="url(#paint34_linear_3247_10895)"/>
</g>
<path fill-rule="evenodd" clip-rule="evenodd" d="M90.996 93.2936C87.4736 93.2936 84.6182 96.167 84.6182 99.7115C84.6182 103.256 87.4736 106.129 90.996 106.129C94.5184 106.129 97.3738 103.256 97.3738 99.7115C97.3738 96.167 94.5184 93.2936 90.996 93.2936V93.2936Z" fill="#007B55"/>
<path opacity="0.72" fill-rule="evenodd" clip-rule="evenodd" d="M90.9963 94.0401C94.1089 94.0401 96.6322 96.5793 96.6322 99.7115C96.6322 102.844 94.1089 105.383 90.9963 105.383C87.8836 105.383 85.3604 102.844 85.3604 99.7115C85.3631 96.5804 87.8848 94.0428 90.9963 94.0401Z" fill="url(#paint35_linear_3247_10895)"/>
<path fill-rule="evenodd" clip-rule="evenodd" d="M88.3592 100.18L88.0508 99.8775C87.9841 99.8162 87.9463 99.7305 87.9463 99.6408C87.9463 99.5512 87.9841 99.4655 88.0508 99.4042L90.7567 96.7446C90.8191 96.6791 90.9063 96.642 90.9976 96.642C91.0889 96.642 91.1762 96.6791 91.2386 96.7446L93.9445 99.4019C94.0099 99.4638 94.0468 99.5492 94.0468 99.6385C94.0468 99.7277 94.0099 99.8131 93.9445 99.8751L93.6361 100.178C93.573 100.242 93.486 100.278 93.3951 100.278C93.3043 100.278 93.2173 100.242 93.1542 100.178L91.5542 98.5216V102.452C91.5549 102.539 91.5201 102.623 91.4577 102.684C91.3953 102.746 91.3103 102.781 91.2217 102.781H90.776C90.591 102.781 90.441 102.634 90.441 102.452V98.5263L88.8411 100.183C88.7777 100.247 88.6905 100.282 88.5996 100.282C88.5088 100.282 88.422 100.245 88.3592 100.18Z" fill="#007B55"/>
<path d="M44.5751 115.732C44.5751 115.732 47.5765 105.83 44.105 101.864C41.5076 98.897 38.559 99.2518 37.2386 99.6185C36.5476 99.8043 35.9723 100.286 35.6646 100.935C35.2024 101.937 35.2856 103.564 38.5445 105.462C43.9993 108.641 44.3387 113.001 44.3387 113.001L44.5751 115.732Z" fill="url(#paint36_linear_3247_10895)"/>
<path d="M44.697 115.811C44.697 115.811 41.1806 108.614 40.2154 108.768C39.7572 108.844 39.5459 109.3 39.4495 109.754C39.331 110.344 39.3979 110.956 39.641 111.506C40.1401 112.662 41.4804 114.847 44.697 115.811Z" fill="url(#paint37_linear_3247_10895)"/>
<path d="M44.5923 115.811C44.5923 115.811 48.1074 108.614 49.0726 108.768C49.5322 108.844 49.7434 109.3 49.8385 109.754C49.957 110.344 49.8901 110.956 49.647 111.506C49.1479 112.662 47.8063 114.847 44.5923 115.811Z" fill="url(#paint38_linear_3247_10895)"/>
<path fill-rule="evenodd" clip-rule="evenodd" d="M37.6047 100.99C37.6229 100.931 37.6849 100.899 37.7431 100.917L37.71 101.023C37.7431 100.917 37.7431 100.917 37.7431 100.917L37.7437 100.917L37.7452 100.918L37.7505 100.919L37.7705 100.926C37.788 100.932 37.8134 100.941 37.8464 100.953C37.9123 100.977 38.008 101.013 38.1287 101.064C38.3702 101.165 38.7119 101.322 39.1152 101.548C39.9217 102.001 40.976 102.729 41.9679 103.834C43.9554 106.047 45.6811 109.759 44.6853 115.751C44.6753 115.811 44.6184 115.852 44.5582 115.842C44.4981 115.832 44.4575 115.775 44.4675 115.714C45.4525 109.787 43.745 106.144 41.8041 103.983C40.8318 102.9 39.7981 102.186 39.0077 101.742C38.6126 101.521 38.2786 101.367 38.0439 101.269C37.9266 101.22 37.8342 101.185 37.7714 101.162C37.7401 101.15 37.7161 101.142 37.7002 101.137L37.6824 101.131L37.6781 101.129L37.6772 101.129C37.619 101.111 37.5864 101.048 37.6047 100.99Z" fill="#007B55"/>
<path fill-rule="evenodd" clip-rule="evenodd" d="M42.9699 101.959C43.004 102.01 42.9906 102.079 42.9401 102.113L42.9398 102.113L42.9378 102.115L42.929 102.121C42.921 102.127 42.9091 102.135 42.8937 102.147C42.8631 102.171 42.8192 102.206 42.7674 102.252C42.6636 102.345 42.5295 102.481 42.4074 102.654C42.1635 102.999 41.9729 103.48 42.1531 104.056C42.1714 104.115 42.1391 104.177 42.0809 104.196C42.0227 104.214 41.9607 104.182 41.9424 104.123C41.7345 103.458 41.9592 102.904 42.2275 102.525C42.3616 102.336 42.508 102.187 42.6206 102.086C42.677 102.036 42.7252 101.997 42.7597 101.971C42.777 101.957 42.7908 101.947 42.8005 101.94L42.8119 101.932L42.8151 101.93L42.8161 101.929L42.8165 101.929C42.8165 101.929 42.8166 101.929 42.8762 102.018L42.8165 101.929C42.8671 101.895 42.9358 101.908 42.9699 101.959Z" fill="#007B55"/>
<path fill-rule="evenodd" clip-rule="evenodd" d="M38.676 102.835L38.6771 102.834L38.6823 102.829C38.6872 102.824 38.6947 102.817 38.7049 102.808C38.7251 102.789 38.7556 102.763 38.7951 102.733C38.8742 102.671 38.9885 102.594 39.129 102.529C39.4092 102.4 39.7872 102.323 40.2029 102.516C40.2583 102.542 40.3239 102.518 40.3494 102.462C40.375 102.406 40.3508 102.34 40.2954 102.315C39.8039 102.086 39.356 102.18 39.0371 102.327C38.8779 102.401 38.7494 102.488 38.6605 102.556C38.616 102.591 38.5812 102.621 38.5572 102.643C38.5452 102.653 38.5359 102.662 38.5294 102.668L38.5218 102.676L38.5196 102.678L38.5189 102.679L38.5186 102.679C38.5186 102.679 38.5185 102.679 38.5973 102.757L38.5186 102.679C38.4758 102.723 38.4764 102.793 38.5199 102.836C38.5634 102.879 38.6333 102.879 38.676 102.835Z" fill="#007B55"/>
<path fill-rule="evenodd" clip-rule="evenodd" d="M42.145 106.691L42.1454 106.691L42.1478 106.69L42.1577 106.685C42.1667 106.681 42.1801 106.674 42.1975 106.666C42.2323 106.65 42.2827 106.629 42.3444 106.605C42.4684 106.557 42.635 106.503 42.8099 106.473C42.9862 106.444 43.1617 106.441 43.3083 106.489C43.4497 106.534 43.5683 106.627 43.6396 106.803C43.6627 106.859 43.7271 106.887 43.7836 106.864C43.84 106.84 43.8671 106.775 43.8441 106.719C43.7463 106.478 43.5746 106.341 43.3756 106.277C43.1818 106.215 42.9667 106.222 42.7736 106.254C42.5791 106.287 42.3975 106.347 42.2655 106.397C42.1992 106.423 42.1448 106.446 42.1067 106.464C42.0877 106.472 42.0727 106.479 42.0623 106.484L42.0502 106.49L42.0469 106.492L42.046 106.492L42.0456 106.493C42.0456 106.493 42.0455 106.493 42.0952 106.592L42.0456 106.493C41.9911 106.52 41.9692 106.587 41.9966 106.642C42.0241 106.697 42.0905 106.719 42.145 106.691Z" fill="#007B55"/>
<path fill-rule="evenodd" clip-rule="evenodd" d="M40.1787 110.046C40.229 110.011 40.2977 110.023 40.3323 110.074L40.2414 110.137L40.1505 110.2C40.1159 110.15 40.1285 110.08 40.1787 110.046ZM40.2414 110.137C40.1505 110.2 40.1505 110.2 40.1505 110.2L40.1923 110.261C40.2195 110.3 40.2596 110.358 40.3108 110.432C40.4131 110.58 40.5602 110.792 40.7389 111.046C41.0962 111.555 41.5801 112.236 42.0865 112.925C42.5926 113.613 43.1222 114.31 43.5704 114.851C43.7943 115.121 43.9994 115.354 44.172 115.527C44.2582 115.614 44.3377 115.687 44.4086 115.743C44.4774 115.797 44.5459 115.842 44.6093 115.863C44.6672 115.882 44.7296 115.851 44.7487 115.793C44.7678 115.734 44.7363 115.671 44.6784 115.652C44.6527 115.644 44.6088 115.619 44.5452 115.568C44.4837 115.52 44.4109 115.453 44.328 115.37C44.1623 115.203 43.9621 114.976 43.7399 114.709C43.2958 114.173 42.7693 113.48 42.264 112.793C41.7589 112.106 41.276 111.426 40.9192 110.918C40.7409 110.664 40.5941 110.453 40.4919 110.305C40.4409 110.232 40.4009 110.174 40.3738 110.134L40.3323 110.074C40.3323 110.074 40.3323 110.074 40.2414 110.137Z" fill="#007B55"/>
<path fill-rule="evenodd" clip-rule="evenodd" d="M39.7916 110.978C39.7916 110.917 39.841 110.867 39.902 110.867H40.7629C40.8239 110.867 40.8733 110.917 40.8733 110.978C40.8733 111.039 40.8239 111.089 40.7629 111.089H39.902C39.841 111.089 39.7916 111.039 39.7916 110.978Z" fill="#007B55"/>
<path fill-rule="evenodd" clip-rule="evenodd" d="M40.8229 112.943C40.8256 112.881 40.8771 112.834 40.938 112.836L42.2888 112.895C42.3498 112.897 42.397 112.949 42.3944 113.011C42.3918 113.072 42.3403 113.119 42.2793 113.117L40.9285 113.058C40.8676 113.056 40.8203 113.004 40.8229 112.943Z" fill="#007B55"/>
<path fill-rule="evenodd" clip-rule="evenodd" d="M41.7782 111.263C41.8379 111.275 41.8762 111.334 41.8638 111.394L41.7172 112.102C41.7048 112.162 41.6463 112.201 41.5866 112.188C41.5269 112.176 41.4886 112.117 41.501 112.057L41.6476 111.349C41.66 111.289 41.7185 111.25 41.7782 111.263Z" fill="#007B55"/>
<path fill-rule="evenodd" clip-rule="evenodd" d="M43.1956 113.414C43.2565 113.417 43.3039 113.469 43.3014 113.53L43.275 114.173C43.2725 114.234 43.221 114.282 43.1601 114.28C43.0992 114.277 43.0518 114.225 43.0543 114.164L43.0807 113.521C43.0833 113.459 43.1347 113.412 43.1956 113.414Z" fill="#007B55"/>
<path fill-rule="evenodd" clip-rule="evenodd" d="M48.9568 110.074C48.9914 110.023 49.0602 110.011 49.1104 110.046C49.1605 110.081 49.1731 110.15 49.1384 110.2L49.0476 110.137L48.9568 110.074ZM48.9568 110.074C48.9568 110.074 48.9568 110.074 49.0476 110.137C49.1384 110.2 49.1384 110.2 49.1384 110.2L49.0966 110.261C49.0693 110.301 49.0292 110.359 48.9779 110.432C48.8753 110.58 48.728 110.792 48.549 111.046C48.1911 111.555 47.7063 112.236 47.1994 112.925C46.6926 113.613 46.1628 114.31 45.7148 114.851C45.4909 115.121 45.2861 115.354 45.114 115.527C45.028 115.613 44.9487 115.687 44.8782 115.743C44.8098 115.797 44.7417 115.842 44.6787 115.863C44.6209 115.883 44.5583 115.851 44.5391 115.793C44.5198 115.735 44.5511 115.672 44.609 115.652C44.6343 115.644 44.6779 115.619 44.7412 115.568C44.8025 115.52 44.8751 115.453 44.9578 115.37C45.1231 115.203 45.3231 114.977 45.5452 114.709C45.9891 114.173 46.516 113.48 47.0219 112.793C47.5276 112.106 48.0113 111.426 48.3687 110.918C48.5474 110.664 48.6945 110.453 48.7968 110.305C48.848 110.231 48.888 110.174 48.9152 110.134L48.9568 110.074Z" fill="#007B55"/>
<path fill-rule="evenodd" clip-rule="evenodd" d="M48.4153 110.978C48.4153 110.917 48.4647 110.867 48.5257 110.867H49.3866C49.4476 110.867 49.4971 110.917 49.4971 110.978C49.4971 111.039 49.4476 111.089 49.3866 111.089H48.5257C48.4647 111.089 48.4153 111.039 48.4153 110.978Z" fill="#007B55"/>
<path fill-rule="evenodd" clip-rule="evenodd" d="M48.4656 112.943C48.4682 113.004 48.4209 113.056 48.36 113.058L47.0092 113.117C46.9483 113.119 46.8968 113.072 46.8941 113.011C46.8915 112.949 46.9388 112.897 46.9997 112.895L48.3505 112.836C48.4115 112.834 48.463 112.881 48.4656 112.943Z" fill="#007B55"/>
<path fill-rule="evenodd" clip-rule="evenodd" d="M47.5103 111.263C47.57 111.25 47.6285 111.289 47.6409 111.349L47.7875 112.057C47.7999 112.117 47.7616 112.176 47.7019 112.188C47.6422 112.201 47.5837 112.162 47.5713 112.102L47.4247 111.394C47.4123 111.334 47.4506 111.275 47.5103 111.263Z" fill="#007B55"/>
<path fill-rule="evenodd" clip-rule="evenodd" d="M46.093 113.414C46.154 113.412 46.2054 113.459 46.2079 113.521L46.2343 114.164C46.2368 114.225 46.1895 114.277 46.1286 114.28C46.0676 114.282 46.0162 114.234 46.0137 114.173L45.9873 113.53C45.9848 113.469 46.0321 113.417 46.093 113.414Z" fill="#007B55"/>
<defs>
<linearGradient id="paint0_linear_3247_10895" x1="145.224" y1="188.459" x2="224.036" y2="11.9432" gradientUnits="userSpaceOnUse">
<stop stop-color="#155042"/>
<stop offset="1" stop-color="#00AB55" stop-opacity="0.01"/>
</linearGradient>
<linearGradient id="paint1_linear_3247_10895" x1="5.91948" y1="7.17657" x2="0.956742" y2="0.0289693" gradientUnits="userSpaceOnUse">
<stop stop-color="#4EC9E5"/>
<stop offset="1" stop-color="#2EAECB"/>
</linearGradient>
<linearGradient id="paint2_linear_3247_10895" x1="5.92689" y1="7.18552" x2="0.957979" y2="0.0289791" gradientUnits="userSpaceOnUse">
<stop stop-color="#4EC9E5"/>
<stop offset="1" stop-color="#2EAECB"/>
</linearGradient>
<linearGradient id="paint3_linear_3247_10895" x1="5.91948" y1="7.17657" x2="0.956742" y2="0.0289693" gradientUnits="userSpaceOnUse">
<stop stop-color="#4EC9E5"/>
<stop offset="1" stop-color="#2EAECB"/>
</linearGradient>
<linearGradient id="paint4_linear_3247_10895" x1="100.716" y1="104.842" x2="69.3253" y2="55.2561" gradientUnits="userSpaceOnUse">
<stop stop-color="#4EC9E5"/>
<stop offset="1" stop-color="#2EAECB"/>
</linearGradient>
<linearGradient id="paint5_linear_3247_10895" x1="96.5011" y1="83.3411" x2="76.3987" y2="54.8672" gradientUnits="userSpaceOnUse">
<stop stop-color="#4EC9E5"/>
<stop offset="1" stop-color="#2EAECB"/>
</linearGradient>
<linearGradient id="paint6_linear_3247_10895" x1="96.5011" y1="83.3411" x2="76.3987" y2="54.8672" gradientUnits="userSpaceOnUse">
<stop stop-color="#4EC9E5"/>
<stop offset="1" stop-color="#2EAECB"/>
</linearGradient>
<linearGradient id="paint7_linear_3247_10895" x1="96.5011" y1="83.3411" x2="76.3987" y2="54.8672" gradientUnits="userSpaceOnUse">
<stop stop-color="#4EC9E5"/>
<stop offset="1" stop-color="#2EAECB"/>
</linearGradient>
<linearGradient id="paint8_linear_3247_10895" x1="96.5011" y1="83.3411" x2="76.3987" y2="54.8672" gradientUnits="userSpaceOnUse">
<stop stop-color="#4EC9E5"/>
<stop offset="1" stop-color="#2EAECB"/>
</linearGradient>
<linearGradient id="paint9_linear_3247_10895" x1="96.5011" y1="83.3411" x2="76.3987" y2="54.8672" gradientUnits="userSpaceOnUse">
<stop stop-color="#4EC9E5"/>
<stop offset="1" stop-color="#2EAECB"/>
</linearGradient>
<linearGradient id="paint10_linear_3247_10895" x1="96.5011" y1="83.3411" x2="76.3987" y2="54.8672" gradientUnits="userSpaceOnUse">
<stop stop-color="#4EC9E5"/>
<stop offset="1" stop-color="#2EAECB"/>
</linearGradient>
<linearGradient id="paint11_linear_3247_10895" x1="170.757" y1="132.318" x2="159.763" y2="112.389" gradientUnits="userSpaceOnUse">
<stop stop-color="#4EC9E5"/>
<stop offset="1" stop-color="#2EAECB"/>
</linearGradient>
<linearGradient id="paint12_linear_3247_10895" x1="170.757" y1="132.318" x2="159.763" y2="112.389" gradientUnits="userSpaceOnUse">
<stop stop-color="#4EC9E5"/>
<stop offset="1" stop-color="#2EAECB"/>
</linearGradient>
<linearGradient id="paint13_linear_3247_10895" x1="170.757" y1="132.318" x2="159.763" y2="112.389" gradientUnits="userSpaceOnUse">
<stop stop-color="#4EC9E5"/>
<stop offset="1" stop-color="#2EAECB"/>
</linearGradient>
<linearGradient id="paint14_linear_3247_10895" x1="156.147" y1="59.171" x2="147.667" y2="36.7972" gradientUnits="userSpaceOnUse">
<stop stop-color="#4EC9E5"/>
<stop offset="1" stop-color="#2EAECB"/>
</linearGradient>
<linearGradient id="paint15_linear_3247_10895" x1="156.147" y1="59.171" x2="147.667" y2="36.7972" gradientUnits="userSpaceOnUse">
<stop stop-color="#4EC9E5"/>
<stop offset="1" stop-color="#2EAECB"/>
</linearGradient>
<linearGradient id="paint16_linear_3247_10895" x1="156.147" y1="59.171" x2="147.667" y2="36.7972" gradientUnits="userSpaceOnUse">
<stop stop-color="#4EC9E5"/>
<stop offset="1" stop-color="#2EAECB"/>
</linearGradient>
<linearGradient id="paint17_linear_3247_10895" x1="156.147" y1="59.171" x2="147.667" y2="36.7972" gradientUnits="userSpaceOnUse">
<stop stop-color="#4EC9E5"/>
<stop offset="1" stop-color="#2EAECB"/>
</linearGradient>
<linearGradient id="paint18_linear_3247_10895" x1="156.147" y1="59.171" x2="147.667" y2="36.7972" gradientUnits="userSpaceOnUse">
<stop stop-color="#4EC9E5"/>
<stop offset="1" stop-color="#2EAECB"/>
</linearGradient>
<linearGradient id="paint19_linear_3247_10895" x1="1.83078" y1="4.99566" x2="-1.51707" y2="2.85334" gradientUnits="userSpaceOnUse">
<stop stop-color="#4EC9E5"/>
<stop offset="1" stop-color="#2EAECB"/>
</linearGradient>
<linearGradient id="paint20_linear_3247_10895" x1="78.8947" y1="60.9952" x2="57.2597" y2="124.479" gradientUnits="userSpaceOnUse">
<stop stop-color="#71CCB6" stop-opacity="0.06"/>
<stop offset="1" stop-color="#52B8AB"/>
</linearGradient>
<linearGradient id="paint21_linear_3247_10895" x1="151.275" y1="133.333" x2="148.7" y2="106.02" gradientUnits="userSpaceOnUse">
<stop stop-color="#4EC9E5"/>
<stop offset="1" stop-color="#2EAECB"/>
</linearGradient>
<linearGradient id="paint22_linear_3247_10895" x1="151.275" y1="133.333" x2="148.7" y2="106.02" gradientUnits="userSpaceOnUse">
<stop stop-color="#4EC9E5"/>
<stop offset="1" stop-color="#2EAECB"/>
</linearGradient>
<linearGradient id="paint23_linear_3247_10895" x1="151.275" y1="133.333" x2="148.7" y2="106.02" gradientUnits="userSpaceOnUse">
<stop stop-color="#4EC9E5"/>
<stop offset="1" stop-color="#2EAECB"/>
</linearGradient>
<linearGradient id="paint24_linear_3247_10895" x1="151.275" y1="133.333" x2="148.7" y2="106.02" gradientUnits="userSpaceOnUse">
<stop stop-color="#4EC9E5"/>
<stop offset="1" stop-color="#2EAECB"/>
</linearGradient>
<linearGradient id="paint25_linear_3247_10895" x1="151.275" y1="133.333" x2="148.7" y2="106.02" gradientUnits="userSpaceOnUse">
<stop stop-color="#4EC9E5"/>
<stop offset="1" stop-color="#2EAECB"/>
</linearGradient>
<linearGradient id="paint26_linear_3247_10895" x1="151.275" y1="133.333" x2="148.7" y2="106.02" gradientUnits="userSpaceOnUse">
<stop stop-color="#4EC9E5"/>
<stop offset="1" stop-color="#2EAECB"/>
</linearGradient>
<linearGradient id="paint27_linear_3247_10895" x1="151.275" y1="133.333" x2="148.7" y2="106.02" gradientUnits="userSpaceOnUse">
<stop stop-color="#4EC9E5"/>
<stop offset="1" stop-color="#2EAECB"/>
</linearGradient>
<linearGradient id="paint28_linear_3247_10895" x1="51.2418" y1="117.823" x2="50.1243" y2="111.831" gradientUnits="userSpaceOnUse">
<stop stop-color="#4EC9E5"/>
<stop offset="1" stop-color="#2EAECB"/>
</linearGradient>
<linearGradient id="paint29_linear_3247_10895" x1="51.2418" y1="117.823" x2="50.1243" y2="111.831" gradientUnits="userSpaceOnUse">
<stop stop-color="#4EC9E5"/>
<stop offset="1" stop-color="#2EAECB"/>
</linearGradient>
<linearGradient id="paint30_linear_3247_10895" x1="51.2418" y1="117.823" x2="50.1243" y2="111.831" gradientUnits="userSpaceOnUse">
<stop stop-color="#4EC9E5"/>
<stop offset="1" stop-color="#2EAECB"/>
</linearGradient>
<linearGradient id="paint31_linear_3247_10895" x1="153.183" y1="64.5098" x2="143.316" y2="10.4507" gradientUnits="userSpaceOnUse">
<stop stop-color="#4EC9E5"/>
<stop offset="1" stop-color="#2EAECB"/>
</linearGradient>
<linearGradient id="paint32_linear_3247_10895" x1="153.183" y1="64.5098" x2="143.316" y2="10.4507" gradientUnits="userSpaceOnUse">
<stop stop-color="#4EC9E5"/>
<stop offset="1" stop-color="#2EAECB"/>
</linearGradient>
<linearGradient id="paint33_linear_3247_10895" x1="153.183" y1="64.5098" x2="143.316" y2="10.4507" gradientUnits="userSpaceOnUse">
<stop stop-color="#4EC9E5"/>
<stop offset="1" stop-color="#2EAECB"/>
</linearGradient>
<linearGradient id="paint34_linear_3247_10895" x1="153.183" y1="64.5098" x2="143.316" y2="10.4507" gradientUnits="userSpaceOnUse">
<stop stop-color="#4EC9E5"/>
<stop offset="1" stop-color="#2EAECB"/>
</linearGradient>
<linearGradient id="paint35_linear_3247_10895" x1="94.716" y1="105.383" x2="86.8722" y2="94.0861" gradientUnits="userSpaceOnUse">
<stop stop-color="#4EC9E5"/>
<stop offset="1" stop-color="#2EAECB"/>
</linearGradient>
<linearGradient id="paint36_linear_3247_10895" x1="47.4417" y1="115.811" x2="35.6588" y2="100.81" gradientUnits="userSpaceOnUse">
<stop stop-color="#4EC9E5"/>
<stop offset="1" stop-color="#2EAECB"/>
</linearGradient>
<linearGradient id="paint37_linear_3247_10895" x1="47.4417" y1="115.811" x2="35.6588" y2="100.81" gradientUnits="userSpaceOnUse">
<stop stop-color="#4EC9E5"/>
<stop offset="1" stop-color="#2EAECB"/>
</linearGradient>
<linearGradient id="paint38_linear_3247_10895" x1="47.4417" y1="115.811" x2="35.6588" y2="100.81" gradientUnits="userSpaceOnUse">
<stop stop-color="#4EC9E5"/>
<stop offset="1" stop-color="#2EAECB"/>
</linearGradient>
</defs>
</svg>
