<svg width="25" height="24" viewBox="0 0 25 24" fill="none" xmlns="http://www.w3.org/2000/svg">
<path opacity="0.4" d="M21.64 10.3999C21.8401 10.3999 22 10.5623 22 10.7599C22 13.5804 21.0163 15.949 19.3551 17.6115C17.6939 19.2738 15.3253 20.2599 12.5 20.2599C9.67437 20.2599 7.30582 19.2761 5.6448 17.6151C3.98378 15.9541 3 13.5855 3 10.7599C3 10.556 3.15614 10.3999 3.36 10.3999H21.64Z" fill="#637381" stroke="#637381"/>
<path d="M12.6069 15.5458L12.6069 15.5458L12.6003 15.5525C12.5069 15.6492 12.3628 15.6492 12.2693 15.5525L12.2694 15.5524L12.2628 15.5458L9.4134 12.7064C9.41329 12.7063 9.41319 12.7062 9.41308 12.7061C9.36202 12.6549 9.33984 12.5944 9.33984 12.53C9.33984 12.4654 9.36211 12.4048 9.4134 12.3535C9.50814 12.2588 9.67155 12.2588 9.76629 12.3535L9.76742 12.3547L11.3374 13.9147L12.1898 14.7617V13.56V3.98999C12.1898 3.85613 12.306 3.73999 12.4398 3.73999C12.5737 3.73999 12.6898 3.85613 12.6898 3.98999V13.56V14.7671L13.5434 13.9135L15.1034 12.3535C15.1981 12.2588 15.3616 12.2588 15.4563 12.3535C15.5509 12.4482 15.551 12.6114 15.4565 12.7062C15.4565 12.7063 15.4564 12.7064 15.4563 12.7064L12.6069 15.5458Z" fill="#637381" stroke="#637381"/>
</svg>
