<svg width="25" height="24" viewBox="0 0 25 24" fill="none" xmlns="http://www.w3.org/2000/svg">
<path opacity="0.4" d="M8.31976 2.5H16.6898C18.4103 2.5 19.7236 3.01093 20.6062 3.89355C21.4888 4.77618 21.9998 6.08943 21.9998 7.81V16.18C21.9998 17.9006 21.4888 19.2138 20.6062 20.0964C19.7236 20.9791 18.4103 21.49 16.6898 21.49H8.31976C6.5992 21.49 5.28594 20.9791 4.40332 20.0964C3.52069 19.2138 3.00977 17.9006 3.00977 16.18V7.81C3.00977 6.08943 3.52069 4.77618 4.40332 3.89355C5.28594 3.01093 6.5992 2.5 8.31976 2.5Z" fill="#637381" stroke="#637381"/>
<path d="M13.5459 13.9526L13.2882 14.2833L13.5688 14.5947C14.649 15.7937 16.0281 16.47 17.5002 16.47C17.6254 16.47 17.7402 16.5774 17.7402 16.72C17.7402 16.8539 17.6241 16.97 17.4902 16.97C15.9346 16.97 14.4525 16.2897 13.2657 15.0188L12.93 14.6593L12.565 14.989C11.2005 16.2218 9.42797 16.97 7.49023 16.97C7.35638 16.97 7.24023 16.8539 7.24023 16.72C7.24023 16.5862 7.35638 16.47 7.49023 16.47C11.2463 16.47 14.3029 13.5062 14.6975 9.75231L14.7556 9.20004H14.2003H12.5002H7.51025C7.3764 9.20004 7.26025 9.0839 7.26025 8.95004C7.26025 8.81618 7.3764 8.70004 7.51025 8.70004H11.7502H12.2502V8.20004V7.27002C12.2502 7.13616 12.3664 7.02002 12.5002 7.02002C12.6341 7.02002 12.7502 7.13616 12.7502 7.27002V8.20004V8.70004H13.2502H14.9402C14.9624 8.70004 14.9826 8.69872 15.0002 8.69685C15.0179 8.69872 15.0381 8.70004 15.0602 8.70004H17.4902C17.6241 8.70004 17.7402 8.81619 17.7402 8.95004C17.7402 9.0839 17.6241 9.20004 17.4902 9.20004H15.7102H15.2493L15.2119 9.65948C15.08 11.2803 14.4772 12.7579 13.5459 13.9526Z" fill="#637381" stroke="#637381"/>
</svg>
