<svg width="25" height="24" viewBox="0 0 25 24" fill="none" xmlns="http://www.w3.org/2000/svg">
<path d="M19.9755 8C21.6323 8 22.9755 6.65685 22.9755 5C22.9755 3.34315 21.6323 2 19.9755 2C18.3186 2 16.9755 3.34315 16.9755 5C16.9755 6.65685 18.3186 8 19.9755 8Z" fill="#292D32"/>
<path opacity="0.4" d="M19.9755 9.5C17.4955 9.5 15.4755 7.48 15.4755 5C15.4755 4.28 15.6655 3.61 15.9655 3L8.49546 3C5.04546 3 2.97546 5.06 2.97546 8.52L2.97546 16.47C2.97546 19.94 5.04546 22 8.49546 22H16.4455C19.9055 22 21.9655 19.94 21.9655 16.48V9.01C21.3655 9.31 20.6955 9.5 19.9755 9.5Z" fill="#292D32"/>
</svg>
