<svg width="25" height="24" viewBox="0 0 25 24" fill="none" xmlns="http://www.w3.org/2000/svg">
<path opacity="0.4" d="M12.4254 21C17.6721 21 21.9254 16.7467 21.9254 11.5C21.9254 6.25329 17.6721 2 12.4254 2C7.17871 2 2.92542 6.25329 2.92542 11.5C2.92542 16.7467 7.17871 21 12.4254 21Z" fill="#292D32"/>
<path d="M22.2254 22.0001C22.0454 22.0001 21.8654 21.9301 21.7354 21.8001L19.8754 19.9401C19.6054 19.6701 19.6054 19.2301 19.8754 18.9501C20.1454 18.6801 20.5854 18.6801 20.8654 18.9501L22.7254 20.8101C22.9954 21.0801 22.9954 21.5201 22.7254 21.8001C22.5854 21.9301 22.4054 22.0001 22.2254 22.0001Z" fill="#292D32"/>
</svg>
