<svg width="25" height="24" viewBox="0 0 25 24" fill="none" xmlns="http://www.w3.org/2000/svg">
<path opacity="0.4" d="M2.95044 12.8801V11.1201C2.95044 10.0801 3.80044 9.22006 4.85044 9.22006C6.66044 9.22006 7.40044 7.94006 6.49044 6.37006C5.97044 5.47006 6.28044 4.30006 7.19044 3.78006L8.92044 2.79006C9.71044 2.32006 10.7304 2.60006 11.2004 3.39006L11.3104 3.58006C12.2104 5.15006 13.6904 5.15006 14.6004 3.58006L14.7104 3.39006C15.1804 2.60006 16.2004 2.32006 16.9904 2.79006L18.7204 3.78006C19.6304 4.30006 19.9404 5.47006 19.4204 6.37006C18.5104 7.94006 19.2504 9.22006 21.0604 9.22006C22.1004 9.22006 22.9604 10.0701 22.9604 11.1201V12.8801C22.9604 13.9201 22.1104 14.7801 21.0604 14.7801C19.2504 14.7801 18.5104 16.0601 19.4204 17.6301C19.9404 18.5401 19.6304 19.7001 18.7204 20.2201L16.9904 21.2101C16.2004 21.6801 15.1804 21.4001 14.7104 20.6101L14.6004 20.4201C13.7004 18.8501 12.2204 18.8501 11.3104 20.4201L11.2004 20.6101C10.7304 21.4001 9.71044 21.6801 8.92044 21.2101L7.19044 20.2201C6.28044 19.7001 5.97044 18.5301 6.49044 17.6301C7.40044 16.0601 6.66044 14.7801 4.85044 14.7801C3.80044 14.7801 2.95044 13.9201 2.95044 12.8801Z" fill="#292D32"/>
<path d="M12.9504 15.25C14.7454 15.25 16.2004 13.7949 16.2004 12C16.2004 10.2051 14.7454 8.75 12.9504 8.75C11.1555 8.75 9.70044 10.2051 9.70044 12C9.70044 13.7949 11.1555 15.25 12.9504 15.25Z" fill="#292D32"/>
</svg>
