<svg width="25" height="24" viewBox="0 0 25 24" fill="none" xmlns="http://www.w3.org/2000/svg">
<path opacity="0.4" d="M21.4664 15.8964L21.4652 15.8977C20.7867 16.5809 19.8613 17.5131 18.917 18.4644C17.8424 19.547 16.7432 20.6543 15.9553 21.4476L15.9493 21.4536L15.9436 21.4598C15.9295 21.475 15.9158 21.4836 15.9018 21.4893C15.8868 21.4954 15.8664 21.5 15.84 21.5H7.87C5.45614 21.5 3.5 19.5439 3.5 17.13V8.37C3.5 5.95614 5.45614 4 7.87 4H17.13C19.5439 4 21.5 5.95614 21.5 8.37V15.82C21.5 15.8389 21.497 15.8505 21.494 15.8582C21.4912 15.8651 21.4849 15.878 21.4664 15.8964Z" fill="#637381" stroke="#637381"/>
<path d="M8.79004 5.79C8.65052 5.79 8.54004 5.67821 8.54004 5.54V2.75C8.54004 2.61179 8.65052 2.5 8.79004 2.5C8.92956 2.5 9.04004 2.61179 9.04004 2.75V5.53C9.04004 5.68255 8.92529 5.79 8.79004 5.79Z" fill="#637381" stroke="#637381"/>
<path d="M16.21 5.79C16.0704 5.79 15.96 5.67821 15.96 5.54V2.75C15.96 2.61048 16.0717 2.5 16.21 2.5C16.3495 2.5 16.46 2.61179 16.46 2.75V5.53C16.46 5.68255 16.3452 5.79 16.21 5.79Z" fill="#637381" stroke="#637381"/>
<path d="M15.2804 12.71H7.86035C7.44035 12.71 7.11035 12.37 7.11035 11.96C7.11035 11.55 7.45035 11.21 7.86035 11.21H15.2804C15.7004 11.21 16.0304 11.55 16.0304 11.96C16.0304 12.37 15.7004 12.71 15.2804 12.71Z" fill="#292D32"/>
<path d="M12.5004 16.4199H7.86035C7.44035 16.4199 7.11035 16.0799 7.11035 15.6699C7.11035 15.2499 7.45035 14.9199 7.86035 14.9199H12.5004C12.9204 14.9199 13.2504 15.2599 13.2504 15.6699C13.2504 16.0799 12.9204 16.4199 12.5004 16.4199Z" fill="#292D32"/>
<path d="M22.0004 15.8199C22.0004 15.9699 21.9504 16.1199 21.8204 16.2499C20.3704 17.7099 17.7904 20.3099 16.3104 21.7999C16.1804 21.9399 16.0104 21.9999 15.8404 21.9999C15.5104 21.9999 15.1904 21.7399 15.1904 21.3599V17.8599C15.1904 16.3999 16.4304 15.1899 17.9504 15.1899C18.9004 15.1799 20.2204 15.1799 21.3504 15.1799C21.7404 15.1799 22.0004 15.4899 22.0004 15.8199Z" fill="#292D32"/>
</svg>
