<svg width="25" height="24" viewBox="0 0 25 24" fill="none" xmlns="http://www.w3.org/2000/svg">
<path opacity="0.4" d="M3.12029 6.45806L3.12034 6.45807L3.12162 6.45117C3.35729 5.18038 3.9358 4.20761 4.78554 3.54731C5.63861 2.88443 6.80621 2.50486 8.27082 2.5H16.7292C18.1938 2.50486 19.3614 2.88443 20.2145 3.54731C21.0642 4.20761 21.6427 5.18038 21.8784 6.45117L21.8783 6.45118L21.8797 6.45806C21.9619 6.86878 22 7.32493 22 7.81V16.19C22 17.9106 21.4891 19.2238 20.6064 20.1064C19.7238 20.9891 18.4106 21.5 16.69 21.5H8.31C6.58944 21.5 5.27618 20.9891 4.39355 20.1064C3.51093 19.2238 3 17.9106 3 16.19V7.81C3 7.32493 3.03815 6.86878 3.12029 6.45806Z" fill="#637381" stroke="#637381"/>
<path d="M8.77 6.36V2.5H9.27V6.36V6.86H9.77H15.23H15.73V6.36V2.5H16.23V6.36V6.86H16.73H21.9445C21.9648 7.02147 21.9793 7.18841 21.9884 7.36H3.01158C3.02067 7.18841 3.03521 7.02147 3.05548 6.86H8.27H8.77V6.36Z" fill="#637381" stroke="#637381"/>
<path d="M14.692 15.726L14.692 15.726L14.6903 15.727L12.6117 16.9261C12.2265 17.1448 11.8818 17.2401 11.5901 17.2401C11.3821 17.2401 11.1873 17.1903 11.0159 17.0947C10.6448 16.8827 10.3701 16.4083 10.3701 15.6401V13.2401C10.3701 12.4709 10.6455 11.9962 11.0174 11.7847C11.394 11.5704 11.9379 11.5692 12.6112 11.9537C12.6115 11.9539 12.6118 11.954 12.612 11.9542L14.6877 13.1517C15.3622 13.5518 15.6301 14.0043 15.6301 14.4301C15.6301 14.8667 15.3595 15.3445 14.692 15.726Z" fill="#637381" stroke="#637381"/>
</svg>
