<svg width="16" height="16" viewBox="0 0 16 16" fill="none" xmlns="http://www.w3.org/2000/svg">
<path d="M11 0C11.2083 0 11.4115 0.03125 11.6094 0.09375C11.8073 0.15625 11.9896 0.25 12.1562 0.375C12.3229 0.5 12.4688 0.640625 12.5938 0.796875C12.7188 0.953125 12.8177 1.13542 12.8906 1.34375L15.7266 9.84375C15.9089 10.3802 16 10.9323 16 11.5C16 11.9844 15.9089 12.4375 15.7266 12.8594C15.5443 13.2812 15.2943 13.651 14.9766 13.9688C14.6589 14.2865 14.2891 14.5365 13.8672 14.7188C13.4453 14.901 12.9896 14.9948 12.5 15C12.0365 15 11.5911 14.9115 11.1641 14.7344C10.737 14.5573 10.3568 14.3047 10.0234 13.9766C9.69531 13.6484 9.44271 13.2708 9.26562 12.8438C9.08854 12.4167 9 11.9688 9 11.5V8H7V11.5C7 11.9635 6.91146 12.4089 6.73438 12.8359C6.55729 13.263 6.30469 13.6432 5.97656 13.9766C5.64844 14.3047 5.27083 14.5573 4.84375 14.7344C4.41667 14.9115 3.96875 15 3.5 15C3.01562 15 2.5625 14.9089 2.14062 14.7266C1.71875 14.5443 1.34896 14.2943 1.03125 13.9766C0.713542 13.6589 0.463542 13.2891 0.28125 12.8672C0.0989583 12.4453 0.00520833 11.9896 0 11.5C0 10.9323 0.0911458 10.3802 0.273438 9.84375C0.299479 9.77083 0.359375 9.59375 0.453125 9.3125C0.546875 9.03125 0.661458 8.68229 0.796875 8.26562C0.932292 7.84896 1.08594 7.39062 1.25781 6.89062C1.42969 6.39062 1.60156 5.88281 1.77344 5.36719C1.94531 4.85156 2.11198 4.35156 2.27344 3.86719C2.4349 3.38281 2.57812 2.95052 2.70312 2.57031C2.82812 2.1901 2.92708 1.88802 3 1.66406C3.07292 1.4401 3.11198 1.32552 3.11719 1.32031C3.19531 1.1276 3.29688 0.950521 3.42188 0.789062C3.54688 0.627604 3.6901 0.486979 3.85156 0.367188C4.01302 0.247396 4.19271 0.158854 4.39062 0.101562C4.58854 0.0442708 4.79167 0.0104167 5 0C5.38542 0 5.70052 0.0625 5.94531 0.1875C6.1901 0.3125 6.38802 0.479167 6.53906 0.6875C6.6901 0.895833 6.79948 1.13802 6.86719 1.41406C6.9349 1.6901 6.97656 1.97656 6.99219 2.27344C7.00781 2.57031 7.01562 2.86719 7.01562 3.16406C7.01562 3.46094 7.01042 3.73958 7 4H9C9 3.74479 8.9974 3.46875 8.99219 3.17188C8.98698 2.875 8.98958 2.57552 9 2.27344C9.01042 1.97135 9.05469 1.6875 9.13281 1.42188C9.21094 1.15625 9.31771 0.914062 9.45312 0.695312C9.58854 0.476562 9.78646 0.307292 10.0469 0.1875C10.3073 0.0677083 10.625 0.00520833 11 0ZM3.5 14C3.84375 14 4.16667 13.9349 4.46875 13.8047C4.77083 13.6745 5.03385 13.4948 5.25781 13.2656C5.48177 13.0365 5.66146 12.7708 5.79688 12.4688C5.93229 12.1667 6 11.8438 6 11.5C6 11.1562 5.9349 10.8333 5.80469 10.5312C5.67448 10.2292 5.49479 9.96615 5.26562 9.74219C5.03646 9.51823 4.77083 9.33854 4.46875 9.20312C4.16667 9.06771 3.84375 9 3.5 9C3.15625 9 2.83333 9.0651 2.53125 9.19531C2.22917 9.32552 1.96615 9.50521 1.74219 9.73438C1.51823 9.96354 1.33854 10.2292 1.20312 10.5312C1.06771 10.8333 1 11.1562 1 11.5C1 11.8438 1.0651 12.1667 1.19531 12.4688C1.32552 12.7708 1.50521 13.0339 1.73438 13.2578C1.96354 13.4818 2.22917 13.6615 2.53125 13.7969C2.83333 13.9323 3.15625 14 3.5 14ZM6 2C6 1.85938 5.97396 1.72917 5.92188 1.60938C5.86979 1.48958 5.79948 1.38542 5.71094 1.29688C5.6224 1.20833 5.51562 1.13542 5.39062 1.07812C5.26562 1.02083 5.13542 0.994792 5 1C4.79688 1 4.60677 1.0625 4.42969 1.1875C4.2526 1.3125 4.1276 1.47396 4.05469 1.67188L1.79688 8.4375C2.0625 8.29688 2.33854 8.1901 2.625 8.11719C2.91146 8.04427 3.20312 8.00521 3.5 8C3.67188 8 3.88021 8.02344 4.125 8.07031C4.36979 8.11719 4.61719 8.1875 4.86719 8.28125C5.11719 8.375 5.34375 8.48698 5.54688 8.61719C5.75 8.7474 5.90104 8.89323 6 9.05469V2ZM9 7V5H7V7H9ZM10 9.05469C10.0938 8.89323 10.2422 8.7474 10.4453 8.61719C10.6484 8.48698 10.875 8.3776 11.125 8.28906C11.375 8.20052 11.6224 8.13021 11.8672 8.07812C12.112 8.02604 12.3229 8 12.5 8C12.7969 8 13.0885 8.03646 13.375 8.10938C13.6615 8.18229 13.9375 8.29167 14.2031 8.4375L11.9453 1.67188C11.8776 1.47396 11.7552 1.3125 11.5781 1.1875C11.401 1.0625 11.2083 1 11 1C10.8594 1 10.7292 1.02604 10.6094 1.07812C10.4896 1.13021 10.3854 1.20052 10.2969 1.28906C10.2083 1.3776 10.1354 1.48438 10.0781 1.60938C10.0208 1.73438 9.99479 1.86458 10 2V9.05469ZM12.5 14C12.8438 14 13.1667 13.9349 13.4688 13.8047C13.7708 13.6745 14.0339 13.4948 14.2578 13.2656C14.4818 13.0365 14.6615 12.7708 14.7969 12.4688C14.9323 12.1667 15 11.8438 15 11.5C15 11.1562 14.9349 10.8333 14.8047 10.5312C14.6745 10.2292 14.4948 9.96615 14.2656 9.74219C14.0365 9.51823 13.7708 9.33854 13.4688 9.20312C13.1667 9.06771 12.8438 9 12.5 9C12.1562 9 11.8333 9.0651 11.5312 9.19531C11.2292 9.32552 10.9661 9.50521 10.7422 9.73438C10.5182 9.96354 10.3385 10.2292 10.2031 10.5312C10.0677 10.8333 10 11.1562 10 11.5C10 11.8438 10.0651 12.1667 10.1953 12.4688C10.3255 12.7708 10.5052 13.0339 10.7344 13.2578C10.9635 13.4818 11.2292 13.6615 11.5312 13.7969C11.8333 13.9323 12.1562 14 12.5 14Z" fill="#292D32"/>
</svg>
