<svg width="20" height="20" viewBox="0 0 20 20" fill="none" xmlns="http://www.w3.org/2000/svg">
<path d="M16.2498 3.33317H13.7498V2.08317C13.7498 1.97266 13.7059 1.86668 13.6278 1.78854C13.5497 1.7104 13.4437 1.6665 13.3332 1.6665C13.2227 1.6665 13.1167 1.7104 13.0385 1.78854C12.9604 1.86668 12.9165 1.97266 12.9165 2.08317V3.33317H7.08317V2.08317C7.08317 1.97266 7.03927 1.86668 6.96113 1.78854C6.88299 1.7104 6.77701 1.6665 6.6665 1.6665C6.556 1.6665 6.45002 1.7104 6.37188 1.78854C6.29374 1.86668 6.24984 1.97266 6.24984 2.08317V3.33317H3.74984C3.19751 3.33383 2.66799 3.55354 2.27743 3.9441C1.88687 4.33465 1.66717 4.86417 1.6665 5.4165V16.2498C1.66717 16.8022 1.88687 17.3317 2.27743 17.7222C2.66799 18.1128 3.19751 18.3325 3.74984 18.3332H16.2498C16.8024 18.3332 17.3323 18.1137 17.723 17.723C18.1137 17.3323 18.3332 16.8024 18.3332 16.2498V5.4165C18.3332 4.86397 18.1137 4.33407 17.723 3.94336C17.3323 3.55266 16.8024 3.33317 16.2498 3.33317ZM17.4998 16.2498C17.4998 16.5814 17.3681 16.8993 17.1337 17.1337C16.8993 17.3681 16.5814 17.4998 16.2498 17.4998H3.74984C3.41832 17.4998 3.10037 17.3681 2.86595 17.1337C2.63153 16.8993 2.49984 16.5814 2.49984 16.2498V9.1665H17.4998V16.2498ZM17.4998 8.33317H2.49984V5.4165C2.49984 4.7265 3.05817 4.1665 3.74984 4.1665H6.24984V5.4165C6.24984 5.52701 6.29374 5.63299 6.37188 5.71113C6.45002 5.78927 6.556 5.83317 6.6665 5.83317C6.77701 5.83317 6.88299 5.78927 6.96113 5.71113C7.03927 5.63299 7.08317 5.52701 7.08317 5.4165V4.1665H12.9165V5.4165C12.9165 5.52701 12.9604 5.63299 13.0385 5.71113C13.1167 5.78927 13.2227 5.83317 13.3332 5.83317C13.4437 5.83317 13.5497 5.78927 13.6278 5.71113C13.7059 5.63299 13.7498 5.52701 13.7498 5.4165V4.1665H16.2498C16.5814 4.1665 16.8993 4.2982 17.1337 4.53262C17.3681 4.76704 17.4998 5.08498 17.4998 5.4165V8.33317Z" fill="black"/>
</svg>
