<svg width="56" height="56" viewBox="0 0 56 56" fill="none" xmlns="http://www.w3.org/2000/svg">
<path d="M7.30176 30.3334C10.4629 39.305 18.3776 46.3559 27.5867 49.8471C27.8531 49.9481 28.1474 49.9481 28.4138 49.8471C34.4704 47.551 39.8892 43.277 43.7968 38.2437C45.9901 35.4185 47.7311 32.3224 48.8348 29.1667H42.2419C41.7777 29.1667 41.3326 28.9823 41.0044 28.6541L38.8199 26.4696L36.4057 31.2979C35.8715 32.3663 34.4476 32.5973 33.603 31.7527L31.6491 29.7988L27.3684 35.7919C26.4921 37.0186 24.5782 36.6372 24.2392 35.1682L21.7127 24.22L17.7903 31.2803C17.1745 32.3886 15.6212 32.4947 14.8605 31.4804L12.7074 28.6095L11.4961 29.8208C11.1679 30.149 10.7227 30.3334 10.2586 30.3334H7.30176Z" fill="#52B8AB"/>
<path opacity="0.5" d="M5.83301 21.7904C5.83301 14.332 11.5148 8.16666 18.6757 8.16666C22.3725 8.16666 25.6776 9.82301 28.0001 12.4444C30.327 9.82235 33.6461 8.16666 37.3237 8.16666C44.4846 8.16666 50.1663 14.332 50.1663 21.7904C50.1663 23.4523 49.9448 25.1439 49.5296 26.8333H42.4829L39.8969 24.2473C39.0523 23.4027 37.6284 23.6338 37.0942 24.7021L34.6801 29.5305L32.8115 27.6619C32.0469 26.8973 30.7786 27.0022 30.1501 27.8822L26.2212 33.3826L23.6444 22.2165C23.284 20.6546 21.1879 20.3589 20.4094 21.7601L16.1869 29.3607L14.1699 26.6714C13.5309 25.8194 12.2855 25.7309 11.5325 26.484L10.0164 28H6.59902C6.09974 26.0068 5.83301 23.9315 5.83301 21.7904Z" fill="#52B8AB"/>
</svg>
