<svg xmlns="http://www.w3.org/2000/svg" width="38" height="31" viewBox="0 0 38 31" fill="none">
<path opacity="0.2" d="M21.499 29.7473V2.24731C21.499 1.91579 21.3673 1.59785 21.1329 1.36343C20.8985 1.12901 20.5805 0.997314 20.249 0.997314H5.24902C4.9175 0.997314 4.59956 1.12901 4.36514 1.36343C4.13072 1.59785 3.99902 1.91579 3.99902 2.24731V29.7473" fill="#ffffff"/>
<path d="M1.5 29.7473H36.5" stroke="#ffffff" stroke-width="2" stroke-linecap="round" stroke-linejoin="round" fill="#000000"/>
<path d="M21.499 29.7473V2.24731C21.499 1.91579 21.3673 1.59785 21.1329 1.36343C20.8985 1.12901 20.5805 0.997314 20.249 0.997314H5.24902C4.9175 0.997314 4.59956 1.12901 4.36514 1.36343C4.13072 1.59785 3.99902 1.91579 3.99902 2.24731V29.7473" stroke="#ffffff" stroke-width="2" stroke-linecap="round" stroke-linejoin="round" fill="#000000"/>
<path d="M33.999 29.7473V12.2473C33.999 11.9158 33.8673 11.5979 33.6329 11.3634C33.3985 11.129 33.0805 10.9973 32.749 10.9973H21.499" stroke="#ffffff" stroke-width="2" stroke-linecap="round" stroke-linejoin="round" fill="#000000"/>
<path d="M8.99902 7.24731H13.999" stroke="#ffffff" stroke-width="2" stroke-linecap="round" stroke-linejoin="round" fill="#000000"/>
<path d="M11.499 17.2473H16.499" stroke="#ffffff" stroke-width="2" stroke-linecap="round" stroke-linejoin="round" fill="#000000"/>
<path d="M8.99902 23.4973H13.999" stroke="#ffffff" stroke-width="2" stroke-linecap="round" stroke-linejoin="round" fill="#000000"/>
<path d="M26.499 23.4973H28.999" stroke="#ffffff" stroke-width="2" stroke-linecap="round" stroke-linejoin="round" fill="#000000"/>
<path d="M26.499 17.2473H28.999" stroke="#ffffff" stroke-width="2" stroke-linecap="round" stroke-linejoin="round" fill="#000000"/>
</svg>