<svg width="25" height="24" viewBox="0 0 25 24" fill="none" xmlns="http://www.w3.org/2000/svg">
<path opacity="0.4" d="M12.5 22C6.98 22 2.5 17.52 2.5 12C2.5 6.48 6.98 2 12.5 2C18.02 2 22.5 6.48 22.5 12C22.5 17.52 18.02 22 12.5 22Z" fill="#52B8AB"/>
<path d="M9.49011 15.6199C7.49011 15.6199 5.87012 13.9999 5.87012 11.9999C5.87012 9.99988 7.49011 8.37988 9.49011 8.37988C10.3701 8.37988 11.2101 8.69991 11.8801 9.27991C12.1901 9.54991 12.2201 10.0299 11.9501 10.3399C11.6801 10.6499 11.2001 10.6799 10.8901 10.4099C10.5001 10.0699 10.0101 9.87988 9.49011 9.87988C8.32011 9.87988 7.37012 10.8299 7.37012 11.9999C7.37012 13.1699 8.32011 14.1199 9.49011 14.1199C10.0001 14.1199 10.5001 13.9299 10.8901 13.5899C11.2001 13.3199 11.6801 13.3499 11.9501 13.6599C12.2201 13.9699 12.1901 14.4498 11.8801 14.7198C11.2101 15.2998 10.3601 15.6199 9.49011 15.6199Z" fill="#292D32"/>
<path d="M16.4901 15.6199C14.4901 15.6199 12.8701 13.9999 12.8701 11.9999C12.8701 9.99988 14.4901 8.37988 16.4901 8.37988C17.3701 8.37988 18.2101 8.69991 18.8801 9.27991C19.1901 9.54991 19.2201 10.0299 18.9501 10.3399C18.6801 10.6499 18.2001 10.6799 17.8901 10.4099C17.5001 10.0699 17.0101 9.87988 16.4901 9.87988C15.3201 9.87988 14.3701 10.8299 14.3701 11.9999C14.3701 13.1699 15.3201 14.1199 16.4901 14.1199C17.0001 14.1199 17.5001 13.9299 17.8901 13.5899C18.2001 13.3199 18.6801 13.3499 18.9501 13.6599C19.2201 13.9699 19.1901 14.4498 18.8801 14.7198C18.2101 15.2998 17.3601 15.6199 16.4901 15.6199Z" fill="#292D32"/>
</svg>
