<svg width="56" height="56" viewBox="0 0 56 56" fill="none" xmlns="http://www.w3.org/2000/svg">
<path opacity="0.5" d="M22.3322 38.4743C21.3443 40.6229 21.0233 43.0184 20.1836 45.2164C19.6956 47.044 18.0052 46.5673 16.899 45.5374C10.1666 38.0353 5.06682 19.8485 13.0464 11.4072C17.1254 6.86843 20.9999 13.2281 27.9999 13.2281C34.9999 13.2281 38.9258 6.91036 42.9782 11.4072C50.9614 19.9134 45.7153 38.0283 38.9528 45.5374C37.9115 46.662 36.114 46.9953 35.6435 45.2164C34.8038 43.0184 34.5074 40.6229 33.5196 38.4743C31.3209 33.182 24.5975 33.3897 22.3322 38.4743Z" fill="#52B8AB"/>
<path fill-rule="evenodd" clip-rule="evenodd" d="M16.1661 10.9426C15.4875 10.9699 14.7619 11.2437 13.9141 12.187L13.8944 12.2089L13.8942 12.2086C10.2793 16.0326 9.51031 22.2269 10.6056 28.6277C11.6913 34.9725 14.5544 41.1547 17.7301 44.7167C17.9244 44.8919 18.1333 45.0358 18.3323 45.1354C18.5488 45.2438 18.7122 45.2793 18.8096 45.2824C18.8543 45.2838 18.8765 45.2781 18.8826 45.2763C18.8865 45.2751 18.8868 45.2749 18.8896 45.2727L18.8896 45.2727C18.892 45.2708 18.9804 45.2 19.0564 44.9154L19.072 44.8567L19.0937 44.8C19.4386 43.8973 19.6904 42.9588 19.9606 41.9515C19.9986 41.8099 20.037 41.6669 20.076 41.5224C20.3847 40.3802 20.7324 39.1625 21.2693 37.993C22.5856 35.0449 25.2377 33.4476 27.9373 33.4163C30.6502 33.3849 33.3046 34.9372 34.5885 38.0064C35.1233 39.1749 35.4635 40.3906 35.7648 41.5281C35.8016 41.6669 35.8377 41.8043 35.8735 41.9404C36.14 42.9537 36.3876 43.8951 36.7332 44.8L36.7554 44.858L36.7713 44.918C36.8393 45.1752 36.9255 45.2514 36.9427 45.2652C36.957 45.2767 36.9891 45.2992 37.0812 45.299C37.3121 45.2985 37.7293 45.1388 38.0917 44.7501C41.2976 41.1866 44.2185 34.9977 45.3463 28.6423C46.4804 22.252 45.745 16.0601 42.1275 12.2056L42.1113 12.1884L42.1115 12.1882C41.2731 11.2579 40.5504 10.9865 39.868 10.9604C39.1018 10.9311 38.2208 11.2013 37.0557 11.7029C36.6952 11.8581 36.3128 12.0343 35.9087 12.2204C33.8342 13.176 31.1882 14.3948 27.9999 14.3948C24.8102 14.3948 22.1719 13.1674 20.1065 12.2066C19.7034 12.0191 19.3221 11.8417 18.9628 11.6856C17.803 11.1817 16.9281 10.912 16.1661 10.9426ZM21.2118 10.1422C23.2723 11.0926 25.3729 12.0614 27.9999 12.0614C30.6306 12.0614 32.7429 11.0966 34.8128 10.1512C35.2533 9.94999 35.6918 9.74969 36.133 9.55974C37.3309 9.04402 38.6288 8.57794 39.9572 8.62879C41.3662 8.68271 42.6513 9.3053 43.8368 10.6173C48.1953 15.2692 48.8269 22.3832 47.6438 29.05C46.4544 35.752 43.3739 42.3714 39.8196 46.3181L39.8088 46.3301L39.8087 46.33C39.131 47.062 38.1316 47.6298 37.0868 47.6324C36.5407 47.6337 35.9701 47.4763 35.4825 47.0851C35.0142 46.7094 34.7043 46.1841 34.533 45.5787C34.1498 44.564 33.8737 43.5125 33.6156 42.5295C33.5799 42.3934 33.5445 42.2586 33.5092 42.1255C33.2072 40.9849 32.9074 39.9357 32.4595 38.9616L32.4505 38.9419L32.4421 38.9219C31.5241 36.7121 29.7232 35.7291 27.9643 35.7495C26.1882 35.7701 24.3478 36.8167 23.3978 38.9491L23.3922 38.9617L23.3921 38.9616C22.9428 39.9388 22.6367 40.991 22.3285 42.1312C22.2913 42.269 22.2539 42.4086 22.2162 42.5494C21.9539 43.5283 21.6743 44.5724 21.2936 45.5796C21.1226 46.182 20.8214 46.7139 20.3505 47.0921C19.8545 47.4903 19.2776 47.6315 18.7366 47.6146C17.7224 47.5828 16.7657 47.0074 16.104 46.3913L16.0656 46.3556L16.0307 46.3166C12.4888 42.3698 9.45388 35.731 8.30571 29.0213C7.16378 22.348 7.83275 15.2339 12.1886 10.6163C13.3775 9.29781 14.6625 8.66785 16.0724 8.61118C17.403 8.55771 18.699 9.02693 19.8926 9.54556C20.3337 9.73719 20.7718 9.93927 21.2118 10.1422Z" fill="#52B8AB"/>
<path fill-rule="evenodd" clip-rule="evenodd" d="M38.6234 13.4782C38.9116 12.9019 39.6124 12.6683 40.1887 12.9565C43.1704 14.4473 43.1679 17.4524 43.167 18.608C43.1669 18.6281 43.1669 18.6477 43.1669 18.6666C43.1669 19.311 42.6446 19.8333 42.0003 19.8333C41.3559 19.8333 40.8336 19.311 40.8336 18.6666C40.8336 17.4426 40.7783 15.86 39.1452 15.0435C38.5689 14.7553 38.3353 14.0545 38.6234 13.4782Z" fill="#52B8AB"/>
</svg>
