<svg width="56" height="56" viewBox="0 0 56 56" fill="none" xmlns="http://www.w3.org/2000/svg">
<path fill-rule="evenodd" clip-rule="evenodd" d="M7.41218 29.1667C7.71969 29.3135 8.13493 29.4696 8.6636 29.6279C9.85321 29.9843 11.4877 30.3145 13.4636 30.5951C17.4071 31.1551 22.5827 31.5 27.9994 31.5C33.416 31.5 38.5916 31.1551 42.5351 30.5951C44.5109 30.3145 46.1455 29.9843 47.3351 29.6279C47.8638 29.4696 48.279 29.3135 48.5865 29.1667C48.4151 29.0849 48.2017 28.9961 47.9409 28.903C46.8713 28.5208 45.2719 28.1572 43.2535 27.8447C39.2341 27.2226 33.754 26.8333 27.9994 26.8333C22.2447 26.8333 16.7646 27.2226 12.7452 27.8447C10.7268 28.1572 9.12743 28.5208 8.05778 28.903C7.79702 28.9961 7.58355 29.0849 7.41218 29.1667ZM4.86999 29.9813C4.74825 29.7479 4.66602 29.4734 4.66602 29.1667C4.66602 28.3572 5.21257 27.818 5.6209 27.5195C6.06409 27.1955 6.64272 26.9307 7.27274 26.7057C8.54715 26.2503 10.3149 25.8598 12.3883 25.5389C16.5528 24.8942 22.1561 24.5 27.9994 24.5C33.8426 24.5 39.4459 24.8942 43.6104 25.5389C45.6838 25.8598 47.4515 26.2503 48.726 26.7057C49.356 26.9307 49.9346 27.1955 50.3778 27.5195C50.7861 27.818 51.3327 28.3572 51.3327 29.1667C51.3327 29.4734 51.2504 29.7479 51.1287 29.9813C50.2066 32.663 44.6038 46.6667 27.9994 46.6667C11.3949 46.6667 5.79213 32.663 4.86999 29.9813Z" fill="#52B8AB"/>
<path opacity="0.5" fill-rule="evenodd" clip-rule="evenodd" d="M16.6206 9.73378C17.0437 9.2479 17.7807 9.19707 18.2666 9.62026C18.732 10.0256 19.1154 10.4709 19.3874 11.0148C19.6593 11.5587 19.7855 12.1327 19.8305 12.7482C19.9376 14.2116 18.8668 15.0363 18.3313 15.4487C18.3067 15.4677 18.2833 15.4858 18.2611 15.503C17.5548 16.0517 17.5003 16.177 17.5003 16.3334C17.5003 16.9567 17.6532 17.4415 17.9024 17.8153C18.1516 18.1891 18.5403 18.5167 19.1157 18.7564C19.7105 19.0042 19.9917 19.6873 19.7439 20.2821C19.4961 20.8768 18.813 21.1581 18.2183 20.9103C17.2773 20.5182 16.4993 19.9171 15.961 19.1096C15.4226 18.3021 15.167 17.3528 15.167 16.3334C15.167 14.9333 16.2069 14.1373 16.7376 13.7311C16.7703 13.7061 16.801 13.6825 16.8295 13.6604C17.5186 13.125 17.5114 13.027 17.5035 12.9198L17.5034 12.9185C17.4741 12.5179 17.4011 12.2598 17.3004 12.0583C17.1996 11.8569 17.0369 11.6436 16.7341 11.3798C16.2482 10.9566 16.1974 10.2197 16.6206 9.73378Z" fill="#52B8AB"/>
<path opacity="0.5" fill-rule="evenodd" clip-rule="evenodd" d="M27.1206 9.73378C27.5437 9.2479 28.2807 9.19707 28.7666 9.62026C29.232 10.0256 29.6154 10.4709 29.8874 11.0148C30.1593 11.5587 30.2855 12.1327 30.3305 12.7482C30.4376 14.2116 29.3668 15.0363 28.8313 15.4487C28.8067 15.4677 28.7833 15.4858 28.7611 15.503C28.0548 16.0517 28.0003 16.177 28.0003 16.3334C28.0003 16.9567 28.1532 17.4415 28.4024 17.8153C28.6516 18.1891 29.0403 18.5167 29.6157 18.7564C30.2105 19.0042 30.4917 19.6873 30.2439 20.2821C29.9961 20.8768 29.313 21.1581 28.7183 20.9103C27.7773 20.5182 26.9993 19.9171 26.461 19.1096C25.9226 18.3021 25.667 17.3528 25.667 16.3334C25.667 14.9333 26.7069 14.1373 27.2376 13.7311C27.2703 13.7061 27.301 13.6825 27.3295 13.6604C28.0186 13.125 28.0114 13.027 28.0035 12.9198L28.0034 12.9185C27.9741 12.5179 27.9011 12.2598 27.8004 12.0583C27.6996 11.8569 27.5369 11.6436 27.2341 11.3798C26.7482 10.9566 26.6974 10.2197 27.1206 9.73378Z" fill="#52B8AB"/>
<path opacity="0.5" fill-rule="evenodd" clip-rule="evenodd" d="M37.6206 9.73378C38.0437 9.2479 38.7807 9.19707 39.2666 9.62026C39.732 10.0256 40.1154 10.4709 40.3874 11.0148C40.6593 11.5587 40.7855 12.1327 40.8305 12.7482C40.9376 14.2116 39.8668 15.0363 39.3313 15.4487C39.3067 15.4677 39.2833 15.4858 39.2611 15.503C38.5548 16.0517 38.5003 16.177 38.5003 16.3334C38.5003 16.9567 38.6532 17.4415 38.9024 17.8153C39.1516 18.1891 39.5403 18.5167 40.1157 18.7564C40.7105 19.0042 40.9917 19.6873 40.7439 20.2821C40.4961 20.8768 39.813 21.1581 39.2183 20.9103C38.2773 20.5182 37.4993 19.9171 36.961 19.1096C36.4226 18.3021 36.167 17.3528 36.167 16.3334C36.167 14.9333 37.2069 14.1373 37.7376 13.7311C37.7703 13.7061 37.801 13.6825 37.8295 13.6604C38.5186 13.125 38.5114 13.027 38.5035 12.9198L38.5034 12.9185C38.4741 12.5179 38.4011 12.2598 38.3004 12.0583C38.1996 11.8569 38.0369 11.6436 37.7341 11.3798C37.2482 10.9566 37.1974 10.2197 37.6206 9.73378Z" fill="#52B8AB"/>
</svg>
