<svg width="19" height="19" viewBox="0 0 19 19" fill="none" xmlns="http://www.w3.org/2000/svg">
<path d="M3.16667 8.7085V11.8752C3.16667 14.4877 3.16667 15.7939 3.97813 16.6054C4.78958 17.4168 6.09583 17.4168 8.70833 17.4168H10.2917C12.9042 17.4168 14.2104 17.4168 15.0219 16.6054C15.8333 15.7939 15.8333 14.4877 15.8333 11.8752V8.7085M9.5 4.63695C9.5 3.82713 9.1783 3.05047 8.60566 2.47783C8.03303 1.9052 7.25637 1.5835 6.44654 1.5835H6.16392C5.38333 1.5835 4.75 2.21604 4.75 2.99741C4.75 3.67223 5.01807 4.31942 5.49524 4.79659C5.97241 5.27376 6.6196 5.54183 7.29442 5.54183H9.5M9.5 4.63695V5.54183M9.5 4.63695C9.5 3.82713 9.8217 3.05047 10.3943 2.47783C10.967 1.9052 11.7436 1.5835 12.5535 1.5835H12.8361C13.6167 1.5835 14.25 2.21604 14.25 2.99741C14.25 3.33155 14.1842 3.66242 14.0563 3.97112C13.9284 4.27982 13.741 4.56032 13.5048 4.79659C13.2685 5.03286 12.988 5.22028 12.6793 5.34815C12.3706 5.47602 12.0397 5.54183 11.7056 5.54183H9.5M9.5 8.7085V17.4168M2.375 7.12516C2.375 6.533 2.375 6.23691 2.53412 6.01683C2.64699 5.86561 2.79659 5.74572 2.96875 5.6685C3.24425 5.54183 3.61396 5.54183 4.35417 5.54183H14.6458C15.386 5.54183 15.7558 5.54183 16.0313 5.6685C16.2118 5.75241 16.3614 5.87275 16.4659 6.01683C16.625 6.23691 16.625 6.533 16.625 7.12516C16.625 7.71733 16.625 8.01262 16.4659 8.23349C16.353 8.38471 16.2034 8.50461 16.0313 8.58183C15.7558 8.7085 15.386 8.7085 14.6458 8.7085H4.35417C3.61396 8.7085 3.24425 8.7085 2.96875 8.58183C2.79659 8.50461 2.64699 8.38471 2.53412 8.23349C2.375 8.01262 2.375 7.71733 2.375 7.12516Z" stroke="black" stroke-linecap="round" stroke-linejoin="round"/>
</svg>
