<svg width="20" height="20" viewBox="0 0 20 20" fill="none" xmlns="http://www.w3.org/2000/svg">
<path fill-rule="evenodd" clip-rule="evenodd" d="M16.0709 10.5374C16.6601 9.93888 16.9875 9.13082 16.9809 8.29097C16.9743 7.45112 16.6344 6.64828 16.0359 6.05905C15.7395 5.7673 15.3886 5.53677 15.0032 5.38064C14.6178 5.2245 14.2053 5.14581 13.7895 5.14906C12.9496 5.15562 12.1468 5.49555 11.5576 6.09405C11.3976 6.25405 11.1942 6.45044 10.9476 6.68322L10.2617 7.32905L9.5759 6.68322C9.32868 6.44989 9.12507 6.2535 8.96507 6.09405C8.3712 5.50019 7.56575 5.16656 6.7259 5.16656C5.88605 5.16656 5.0806 5.50019 4.48673 6.09405C3.2634 7.31822 3.24923 9.29739 4.44173 10.5274L10.2617 16.3474L16.0709 10.5374ZM3.77923 5.38739C4.16616 5.00036 4.62554 4.69335 5.13113 4.48388C5.63673 4.27442 6.17863 4.16661 6.7259 4.16661C7.27317 4.16661 7.81507 4.27442 8.32067 4.48388C8.82626 4.69335 9.28564 5.00036 9.67257 5.38739C9.82423 5.53961 10.0206 5.72905 10.2617 5.95572C10.5017 5.72905 10.6981 5.53933 10.8509 5.38655C11.6263 4.59919 12.6828 4.15212 13.7878 4.14368C14.8929 4.13524 15.956 4.56613 16.7434 5.34155C17.5308 6.11698 17.9778 7.17343 17.9863 8.27848C17.9947 9.38354 17.5638 10.4467 16.7884 11.2341L10.8509 17.1724C10.6946 17.3286 10.4827 17.4164 10.2617 17.4164C10.0408 17.4164 9.82884 17.3286 9.67257 17.1724L3.7334 11.2332C2.97177 10.4477 2.54966 9.39416 2.55823 8.30008C2.56681 7.20599 3.00538 6.15918 3.77923 5.38572V5.38739Z" fill="black"/>
</svg>
