<svg width="25" height="24" viewBox="0 0 25 24" fill="none" xmlns="http://www.w3.org/2000/svg">
<path d="M21.5 10C21.5 17 12.5 23 12.5 23C12.5 23 3.5 17 3.5 10C3.5 7.61305 4.44821 5.32387 6.13604 3.63604C7.82387 1.94821 10.1131 1 12.5 1C14.8869 1 17.1761 1.94821 18.864 3.63604C20.5518 5.32387 21.5 7.61305 21.5 10Z" stroke="url(#paint0_linear_93_772)" stroke-width="1.5" stroke-linecap="round" stroke-linejoin="round"/>
<path d="M12.5 13C14.1569 13 15.5 11.6569 15.5 10C15.5 8.34315 14.1569 7 12.5 7C10.8431 7 9.5 8.34315 9.5 10C9.5 11.6569 10.8431 13 12.5 13Z" stroke="url(#paint1_linear_93_772)" stroke-width="1.5" stroke-linecap="round" stroke-linejoin="round"/>
<defs>
<linearGradient id="paint0_linear_93_772" x1="18.44" y1="23" x2="2.43579" y2="4.02268" gradientUnits="userSpaceOnUse">
<stop stop-color="#4EC9E5"/>
<stop offset="1" stop-color="#2EAECB"/>
</linearGradient>
<linearGradient id="paint1_linear_93_772" x1="14.48" y1="13" x2="10.34" y2="7" gradientUnits="userSpaceOnUse">
<stop stop-color="#4EC9E5"/>
<stop offset="1" stop-color="#2EAECB"/>
</linearGradient>
</defs>
</svg>
