<svg width="56" height="56" viewBox="0 0 56 56" fill="none" xmlns="http://www.w3.org/2000/svg">
<path opacity="0.5" d="M26.8643 27.8049C24.7951 26.0997 23.1624 23.9178 21.3287 20.6944L11.3024 32.2157C8.28202 35.6864 8.64712 40.9486 12.1179 43.9689C15.5886 46.9893 20.8507 46.6242 23.8711 43.1535L24.8866 41.9866C23.8987 40.2737 23.3335 38.2862 23.3335 36.1667C23.3335 32.8876 24.6863 29.9244 26.8643 27.8049Z" fill="#52B8AB"/>
<path fill-rule="evenodd" clip-rule="evenodd" d="M40.5192 11.3324C37.5345 8.73502 33.0093 9.04898 30.4119 12.0337L22.7557 20.8314C24.1489 23.1958 25.4153 24.8939 26.8577 26.2465C29.073 24.4262 31.9088 23.3333 34.9999 23.3333C36.4005 23.3333 37.7506 23.5581 39.0148 23.9742L41.2204 21.4397C43.8178 18.455 43.5039 13.9298 40.5192 11.3324ZM24.4999 36.1667C24.4999 30.3677 29.2009 25.6667 34.9999 25.6667C36.3921 25.6667 37.7184 25.937 38.9311 26.427L39.7022 26.7386L42.9806 22.9715C46.424 19.0147 46.0077 13.0156 42.0509 9.57227C38.0941 6.12889 32.0951 6.54511 28.6517 10.5019L10.422 31.4498C6.97865 35.4066 7.39487 41.4056 11.3517 44.849C13.7877 46.9689 16.5339 47.509 19.1276 46.9423C21.6731 46.3861 23.9969 44.7858 25.7663 42.7525L26.3127 42.1247L25.8969 41.4038C25.0085 39.8633 24.4999 38.0762 24.4999 36.1667ZM25.1953 27.8859C23.3057 30.1209 22.1665 33.0108 22.1665 36.1667C22.1665 38.187 22.6342 40.1007 23.4676 41.8031C22.0412 43.2542 20.3469 44.2875 18.6296 44.6627C16.7387 45.0759 14.7493 44.7126 12.8834 43.0888C9.89874 40.4914 9.58478 35.9662 12.1822 32.9815L21.1451 22.6822" fill="#52B8AB"/>
<path fill-rule="evenodd" clip-rule="evenodd" d="M38.3701 13.0915C38.531 12.4676 38.1557 11.8313 37.5318 11.6703C33.8242 10.7138 31.5622 13.3162 30.66 14.3543C30.6462 14.3701 30.6328 14.3856 30.6196 14.4007C30.1966 14.8868 30.2477 15.6237 30.7338 16.0467C31.2199 16.4697 31.9568 16.4186 32.3798 15.9325C33.3289 14.8418 34.7008 13.3497 36.949 13.9297C37.5729 14.0907 38.2091 13.7154 38.3701 13.0915Z" fill="#52B8AB"/>
<path fill-rule="evenodd" clip-rule="evenodd" d="M35.0003 25.6667C29.2013 25.6667 24.5003 30.3677 24.5003 36.1667C24.5003 41.9657 29.2013 46.6667 35.0003 46.6667C40.7993 46.6667 45.5003 41.9657 45.5003 36.1667C45.5003 30.3677 40.7993 25.6667 35.0003 25.6667ZM22.167 36.1667C22.167 29.079 27.9127 23.3333 35.0003 23.3333C42.088 23.3333 47.8337 29.079 47.8337 36.1667C47.8337 43.2543 42.088 49 35.0003 49C27.9127 49 22.167 43.2543 22.167 36.1667Z" fill="#52B8AB"/>
<path fill-rule="evenodd" clip-rule="evenodd" d="M25.9846 38.5823C25.8178 37.9599 26.1872 37.3202 26.8095 37.1534L42.5863 32.9261C43.2087 32.7593 43.8484 33.1286 44.0152 33.751C44.182 34.3734 43.8126 35.0131 43.1902 35.1799L27.4134 39.4073C26.7911 39.574 26.1513 39.2047 25.9846 38.5823Z" fill="#22202A"/>
</svg>
