<svg width="20" height="20" viewBox="0 0 20 20" fill="none" xmlns="http://www.w3.org/2000/svg">
<path fill-rule="evenodd" clip-rule="evenodd" d="M2.6665 9.33317V17.3332H10.6665V9.33317H2.6665ZM8.33317 8.33317V2.5015C8.33317 2.0465 8.70734 1.6665 9.16817 1.6665H17.4982C17.9532 1.6665 18.3332 2.04067 18.3332 2.5015V10.8315C18.3332 11.2865 17.959 11.6665 17.4982 11.6665H11.6665V17.4982C11.6665 17.9532 11.2923 18.3332 10.8315 18.3332H2.5015C2.28039 18.3321 2.06864 18.2437 1.91228 18.0874C1.75592 17.931 1.6676 17.7193 1.6665 17.4982V9.16817C1.6665 8.71317 2.04067 8.33317 2.5015 8.33317H8.33317ZM9.33317 8.33317H10.8315C11.2865 8.33317 11.6665 8.70734 11.6665 9.16817V10.6665H17.3332V2.6665H9.33317V8.33317ZM7.454 12.2473H5.65067C5.88567 12.8023 6.20567 13.2973 6.609 13.7248C6.98209 13.2906 7.26889 12.7891 7.454 12.2473ZM9.354 12.2473H8.44317C8.15984 13.0673 7.774 13.749 7.279 14.3107C7.88234 14.744 8.61234 15.064 9.48734 15.2573C9.28734 15.4507 9.029 15.8365 8.89567 16.0782C7.9665 15.8365 7.21234 15.4623 6.5915 14.9615C5.93317 15.4807 5.13734 15.8607 4.18484 16.1257C4.03515 15.8336 3.85707 15.557 3.65317 15.2998C4.5765 15.0948 5.33067 14.7807 5.93984 14.3348C5.43984 13.7557 5.05317 13.0615 4.73984 12.2473H3.78567V11.3907H6.27067C6.20058 11.1192 6.10574 10.8548 5.98734 10.6007L6.929 10.3232C7.079 10.6065 7.24817 10.9865 7.30817 11.2398L6.81984 11.3907H9.35317L9.354 12.2473ZM14.6257 8.864L14.2673 7.72484H12.6173L12.259 8.864H11.2498L12.8807 4.1665H14.0365L15.6698 8.864H14.6257ZM13.4307 5.06484L12.829 6.989H14.0557L13.454 5.06484H13.4307Z" fill="black"/>
</svg>
