<svg width="56" height="56" viewBox="0 0 56 56" fill="none" xmlns="http://www.w3.org/2000/svg">
<path opacity="0.5" fill-rule="evenodd" clip-rule="evenodd" d="M20.374 7.00168C19.7306 6.96744 19.1812 7.46129 19.147 8.10471C18.9704 11.4233 19.6849 14.196 21.188 16.425C22.6865 18.6472 24.9032 20.2322 27.5681 21.2983C29.2127 21.9562 30.9845 22.7302 32.3476 23.8325C33.6757 24.9064 34.5374 26.224 34.5465 28.0183C34.5557 29.8402 33.6995 31.1646 32.3773 32.2329C31.0176 33.3314 29.2389 34.0938 27.5838 34.7285C24.8935 35.76 22.6767 37.3518 21.1827 39.5824C19.6861 41.817 18.9786 44.598 19.1469 47.8929C19.1797 48.5364 19.728 49.0314 20.3715 48.9985C21.015 48.9656 21.51 48.4174 21.4772 47.7739C21.3299 44.8894 21.952 42.627 23.1214 40.8809C24.2935 39.1308 26.0792 37.8044 28.4192 36.9071C30.083 36.2691 32.1715 35.3989 33.8437 34.0479C35.5532 32.6667 36.8935 30.7247 36.8798 28.0065C36.8662 25.3169 35.5152 23.3932 33.8147 22.0181C32.1493 20.6713 30.0764 19.7886 28.4348 19.1319C26.0936 18.1953 24.3001 16.8666 23.1226 15.1205C21.9498 13.3812 21.3226 11.131 21.477 8.22868C21.5113 7.58526 21.0174 7.03591 20.374 7.00168Z" fill="#52B8AB"/>
<path fill-rule="evenodd" clip-rule="evenodd" d="M35.626 7.00168C36.2694 6.96744 36.8188 7.46129 36.853 8.10471C37.0296 11.4233 36.3151 14.196 34.812 16.425C33.3135 18.6472 31.0968 20.2322 28.4319 21.2983C26.7873 21.9562 25.0155 22.7302 23.6524 23.8325C22.3243 24.9064 21.4626 26.224 21.4535 28.0183C21.4443 29.8402 22.3005 31.1646 23.6227 32.2329C24.9824 33.3314 26.7611 34.0938 28.4162 34.7285C31.1065 35.76 33.3233 37.3518 34.8173 39.5824C36.3139 41.817 37.0214 44.598 36.8531 47.8929C36.8203 48.5364 36.272 49.0314 35.6285 48.9985C34.985 48.9656 34.49 48.4174 34.5228 47.7739C34.6701 44.8894 34.048 42.627 32.8786 40.8809C31.7065 39.1308 29.9208 37.8044 27.5808 36.9071C25.917 36.2691 23.8285 35.3989 22.1563 34.0479C20.4468 32.6667 19.1065 30.7247 19.1202 28.0065C19.1338 25.3169 20.4848 23.3932 22.1853 22.0181C23.8507 20.6713 25.9236 19.7886 27.5652 19.1319C29.9064 18.1953 31.6999 16.8666 32.8774 15.1205C34.0502 13.3812 34.6774 11.131 34.523 8.22868C34.4887 7.58526 34.9826 7.03591 35.626 7.00168Z" fill="#52B8AB"/>
<path fill-rule="evenodd" clip-rule="evenodd" d="M22.167 45.5C22.167 44.8557 22.6893 44.3333 23.3337 44.3333H32.667C33.3113 44.3333 33.8337 44.8557 33.8337 45.5C33.8337 46.1443 33.3113 46.6667 32.667 46.6667H23.3337C22.6893 46.6667 22.167 46.1443 22.167 45.5Z" fill="#52B8AB"/>
<path fill-rule="evenodd" clip-rule="evenodd" d="M24.5 14C24.5 13.3557 25.0223 12.8333 25.6667 12.8333H30.3333C30.9777 12.8333 31.5 13.3557 31.5 14C31.5 14.6443 30.9777 15.1667 30.3333 15.1667H25.6667C25.0223 15.1667 24.5 14.6443 24.5 14Z" fill="#52B8AB"/>
<path fill-rule="evenodd" clip-rule="evenodd" d="M22.167 10.5C22.167 9.85568 22.6893 9.33334 23.3337 9.33334H32.667C33.3113 9.33334 33.8337 9.85568 33.8337 10.5C33.8337 11.1443 33.3113 11.6667 32.667 11.6667H23.3337C22.6893 11.6667 22.167 11.1443 22.167 10.5Z" fill="#22202A"/>
<path fill-rule="evenodd" clip-rule="evenodd" d="M24.5 42C24.5 41.3557 25.0223 40.8333 25.6667 40.8333H30.3333C30.9777 40.8333 31.5 41.3557 31.5 42C31.5 42.6443 30.9777 43.1667 30.3333 43.1667H25.6667C25.0223 43.1667 24.5 42.6443 24.5 42Z" fill="#22202A"/>
<path fill-rule="evenodd" clip-rule="evenodd" d="M24.6295 24.8888C24.6295 24.2445 25.1518 23.7221 25.7962 23.7221H30.2036C30.8479 23.7221 31.3702 24.2445 31.3702 24.8888C31.3702 25.5331 30.8479 26.0555 30.2036 26.0555H25.7962C25.1518 26.0555 24.6295 25.5331 24.6295 24.8888ZM22.4258 28.1944C22.4258 27.55 22.9481 27.0277 23.5924 27.0277H32.4073C33.0516 27.0277 33.5739 27.55 33.5739 28.1944C33.5739 28.8387 33.0516 29.361 32.4073 29.361H23.5924C22.9481 29.361 22.4258 28.8387 22.4258 28.1944ZM24.6295 31.4999C24.6295 30.8556 25.1518 30.3332 25.7962 30.3332H30.2036C30.8479 30.3332 31.3702 30.8556 31.3702 31.4999C31.3702 32.1442 30.8479 32.6666 30.2036 32.6666H25.7962C25.1518 32.6666 24.6295 32.1442 24.6295 31.4999Z" fill="#22202A"/>
</svg>
