<svg width="20" height="20" viewBox="0 0 20 20" fill="none" xmlns="http://www.w3.org/2000/svg">
<path d="M14.1665 1.6665V3.33317M9.99984 1.6665V3.33317M5.83317 1.6665V3.33317M11.2498 13.3332H14.1665M11.2498 7.49984H14.1665M2.9165 8.33317C2.9165 5.58317 2.9165 4.20817 3.77067 3.354C4.62484 2.49984 5.99984 2.49984 8.74984 2.49984H11.2498C13.9998 2.49984 15.3748 2.49984 16.229 3.354C17.0832 4.20817 17.0832 5.58317 17.0832 8.33317V12.4998C17.0832 15.2498 17.0832 16.6248 16.229 17.479C15.3748 18.3332 13.9998 18.3332 11.2498 18.3332H8.74984C5.99984 18.3332 4.62484 18.3332 3.77067 17.479C2.9165 16.6248 2.9165 15.2498 2.9165 12.4998V8.33317Z" stroke="#292D32" stroke-linecap="round" stroke-linejoin="round"/>
<path d="M5.83301 8.33317C5.83301 8.33317 6.24967 8.33317 6.66634 9.1665C6.66634 9.1665 7.98967 7.08317 9.16634 6.6665M5.83301 14.1665C5.83301 14.1665 6.24967 14.1665 6.66634 14.9998C6.66634 14.9998 7.98967 12.9165 9.16634 12.4998" stroke="#292D32" stroke-linecap="round" stroke-linejoin="round"/>
</svg>
