<svg width="56" height="56" viewBox="0 0 56 56" fill="none" xmlns="http://www.w3.org/2000/svg">
<path opacity="0.5" fill-rule="evenodd" clip-rule="evenodd" d="M28.0026 12.4793C28.6469 12.4793 29.1693 13.0016 29.1693 13.6459V37.1458C29.1693 37.7901 28.6469 38.3125 28.0026 38.3125C27.3583 38.3125 26.8359 37.7901 26.8359 37.1458V13.6459C26.8359 13.0016 27.3583 12.4793 28.0026 12.4793Z" fill="#52B8AB"/>
<path fill-rule="evenodd" clip-rule="evenodd" d="M17.9473 15.9863C17.6761 15.5551 17.609 15.1866 17.6327 14.8856C17.6577 14.5671 17.7916 14.2407 18.0423 13.9304C18.5639 13.2849 19.4985 12.8303 20.4161 12.8333C21.0604 12.8355 21.5845 12.3148 21.5866 11.6705C21.5887 11.0262 21.0681 10.5021 20.4238 10.5C18.818 10.4948 17.2057 11.2532 16.2274 12.4639C15.7283 13.0816 15.374 13.844 15.3065 14.7028C15.2383 15.5709 15.47 16.4564 16.0127 17.292L16.0355 17.3272L16.0608 17.3606C17.2351 18.9122 19.0312 19.7113 20.7624 20.1473C22.506 20.5864 24.3479 20.6972 25.7856 20.7495C26.4295 20.7729 26.9705 20.2699 26.9939 19.626C27.0173 18.9821 26.5142 18.4411 25.8703 18.4177C24.4556 18.3663 22.8223 18.2599 21.3323 17.8846C19.8478 17.5107 18.6624 16.9083 17.9473 15.9863Z" fill="#52B8AB"/>
<path fill-rule="evenodd" clip-rule="evenodd" d="M9.97057 21.77C10.6105 21.695 11.1901 22.1531 11.265 22.7931C11.562 25.33 13.2733 28.5221 15.8661 30.3651C17.1409 31.2713 18.5972 31.8294 20.1813 31.8565C21.7603 31.8836 23.5588 31.3849 25.528 30.025C26.0582 29.6589 26.7848 29.7919 27.151 30.3221C27.5171 30.8523 27.3841 31.5789 26.8539 31.945C24.5441 33.5401 22.2761 34.2261 20.1414 34.1895C18.0119 34.1531 16.1073 33.3993 14.5143 32.267C11.3715 30.033 9.31951 26.2421 8.94748 23.0644C8.87256 22.4244 9.33061 21.8449 9.97057 21.77Z" fill="#52B8AB"/>
<path fill-rule="evenodd" clip-rule="evenodd" d="M8.70106 28.2917C9.3418 28.2238 9.91627 28.6882 9.98416 29.329C10.0724 30.1616 10.5098 31.4432 11.3231 32.7852C12.128 34.1132 13.2456 35.4078 14.6062 36.3195C15.9545 37.223 17.5282 37.7445 19.3078 37.5845C21.0947 37.4239 23.2142 36.5647 25.6225 34.4797C26.1097 34.0579 26.8465 34.1109 27.2682 34.5981C27.6899 35.0852 27.6369 35.822 27.1498 36.2437C24.4706 38.5632 21.9069 39.6936 19.5167 39.9085C17.1192 40.124 15.0219 39.4068 13.3073 38.2579C11.605 37.1171 10.2677 35.5456 9.32766 33.9946C8.39609 32.4574 7.7986 30.8469 7.66382 29.5748C7.59592 28.9341 8.06031 28.3596 8.70106 28.2917Z" fill="#52B8AB"/>
<path fill-rule="evenodd" clip-rule="evenodd" d="M8.36144 34.6432C8.9892 34.7884 9.38041 35.415 9.23522 36.0427C8.38819 39.7052 10.4373 42.5197 13.4734 43.0678C16.5382 43.6212 21.1464 41.9189 25.19 35.1796C25.5215 34.6271 26.2381 34.4479 26.7906 34.7794C27.3431 35.1109 27.5223 35.8276 27.1908 36.3801C22.8714 43.579 17.4441 46.1558 13.0589 45.3641C8.64506 44.5672 5.8297 40.4125 6.96189 35.517C7.10708 34.8892 7.73367 34.498 8.36144 34.6432Z" fill="#22202A"/>
<path fill-rule="evenodd" clip-rule="evenodd" d="M34.475 11.6336C34.4933 10.9896 35.0302 10.4822 35.6743 10.5005C37.2426 10.5449 38.8269 11.3016 39.7911 12.5025C40.2833 13.1155 40.6335 13.8711 40.6984 14.7238C40.7639 15.5856 40.5312 16.4628 39.9927 17.292L39.9699 17.3272L39.9445 17.3606C38.77 18.9125 36.9736 19.7108 35.2427 20.1463C33.4993 20.5849 31.6575 20.6957 30.221 20.7494C29.5772 20.7735 29.0357 20.2711 29.0116 19.6272C28.9875 18.9833 29.4899 18.4418 30.1338 18.4177C31.5497 18.3648 33.183 18.2585 34.6733 17.8835C36.1579 17.5099 37.343 16.9082 38.0581 15.9863C38.328 15.5572 38.3941 15.1944 38.3717 14.9007C38.3481 14.5901 38.2184 14.2706 37.9717 13.9633C37.458 13.3237 36.5288 12.859 35.6082 12.8329C34.9641 12.8146 34.4568 12.2777 34.475 11.6336Z" fill="#22202A"/>
<path fill-rule="evenodd" clip-rule="evenodd" d="M43.7822 16.4545C44.4173 16.5633 44.8439 17.1664 44.7351 17.8014C44.0885 21.576 42.3068 24.2899 39.6224 25.8565C36.9749 27.4015 33.6193 27.7312 29.9826 27.1178C29.3472 27.0106 28.919 26.4087 29.0262 25.7733C29.1334 25.138 29.7353 24.7098 30.3707 24.817C33.6752 25.3744 36.4245 25.0211 38.4463 23.8412C40.4313 22.6828 41.8832 20.6298 42.4353 17.4074C42.5441 16.7724 43.1471 16.3457 43.7822 16.4545Z" fill="#22202A"/>
<path fill-rule="evenodd" clip-rule="evenodd" d="M12.19 16.4553C12.8247 16.3441 13.4294 16.7684 13.5406 17.403C14.1057 20.6268 15.5645 22.6815 17.5541 23.8408C19.5798 25.0213 22.3296 25.3743 25.6339 24.817C26.2692 24.7098 26.8712 25.138 26.9783 25.7733C27.0855 26.4087 26.6573 27.0106 26.022 27.1178C22.385 27.7313 19.0298 27.4014 16.3793 25.8569C13.6926 24.2913 11.9038 21.5791 11.2423 17.8059C11.1311 17.1712 11.5554 16.5666 12.19 16.4553Z" fill="#22202A"/>
<path fill-rule="evenodd" clip-rule="evenodd" d="M46.0346 21.77C46.6746 21.8449 47.1326 22.4244 47.0577 23.0644C46.6853 26.2453 44.6171 30.0354 41.4689 32.2677C39.8732 33.3992 37.9672 34.1531 35.8403 34.1895C33.7075 34.2261 31.4454 33.5396 29.1484 31.943C28.6193 31.5752 28.4885 30.8482 28.8563 30.3191C29.224 29.7901 29.951 29.6593 30.4801 30.027C32.4342 31.3853 34.2246 31.8836 35.8003 31.8565C37.3818 31.8294 38.8402 31.2713 40.1192 30.3644C42.7206 28.5198 44.4436 25.3268 44.7402 22.7931C44.8151 22.1531 45.3946 21.695 46.0346 21.77Z" fill="#22202A"/>
<path fill-rule="evenodd" clip-rule="evenodd" d="M47.3125 28.2926C47.9528 28.3646 48.4134 28.9421 48.3413 29.5824C48.1991 30.8457 47.6111 32.4515 46.6891 33.9897C45.7597 35.5403 44.4367 37.1134 42.7436 38.2558C41.0374 39.4069 38.946 40.1239 36.5444 39.9085C34.1517 39.6939 31.5742 38.5651 28.8621 36.2489C28.3722 35.8304 28.3142 35.094 28.7327 34.604C29.1511 34.1141 29.8875 34.0561 30.3775 34.4746C32.8226 36.5628 34.9597 37.4237 36.7528 37.5845C38.5371 37.7446 40.1026 37.2228 41.4385 36.3215C42.7874 35.4115 43.8914 34.1186 44.6877 32.7901C45.4915 31.4491 45.9279 30.1628 46.0226 29.3214C46.0947 28.6811 46.6722 28.2205 47.3125 28.2926Z" fill="#22202A"/>
<path fill-rule="evenodd" clip-rule="evenodd" d="M47.6468 34.6424C48.275 34.4991 48.9004 34.8923 49.0436 35.5205C50.1592 40.4132 47.3462 44.567 42.9355 45.364C38.553 46.156 33.1327 43.5781 28.8139 36.3801C28.4824 35.8276 28.6615 35.1109 29.2141 34.7794C29.7666 34.4479 30.4832 34.6271 30.8147 35.1796C34.8588 41.9198 39.4601 43.6209 42.5206 43.0679C45.553 42.5199 47.6044 39.7046 46.7687 36.0392C46.6254 35.411 47.0186 34.7856 47.6468 34.6424Z" fill="#22202A"/>
</svg>
