<svg width="36" height="24" viewBox="0 0 36 24" fill="none" xmlns="http://www.w3.org/2000/svg">
<g id="icon/ic_payment_paypal">
<rect id="background" width="36" height="24" rx="4" fill="white"/>
<path id="Path" d="M14.3405 21.3199L14.6905 19.1199H13.9105H10.2305L12.7905 2.85993C12.7973 2.80955 12.8222 2.76336 12.8605 2.72993C12.9007 2.69887 12.9497 2.68136 13.0005 2.67993H19.2105C21.2805 2.67993 22.7005 3.10993 23.4505 3.95993C23.7823 4.31646 24.0135 4.75473 24.1205 5.22993C24.2371 5.80744 24.2371 6.40243 24.1205 6.97993V7.47993L24.4705 7.67993C24.7369 7.81273 24.9774 7.99224 25.1805 8.20993C25.4861 8.57893 25.6835 9.02548 25.7505 9.49993C25.8254 10.1201 25.7984 10.7484 25.6705 11.3599C25.5386 12.1027 25.278 12.8168 24.9005 13.4699C24.5954 13.9936 24.183 14.4468 23.6905 14.7999C23.1947 15.138 22.6428 15.3852 22.0605 15.5299C21.4068 15.6948 20.7346 15.7755 20.0605 15.7699H19.5705C19.227 15.77 18.8945 15.8903 18.6305 16.1099C18.3651 16.3335 18.1908 16.6466 18.1405 16.9899V17.1899L17.5305 21.0699V21.2199C17.5377 21.2461 17.5377 21.2738 17.5305 21.2999H17.4705L14.3405 21.3199Z" fill="#253D80"/>
<path id="Path_2" d="M24.8002 7.08008L24.7402 7.45008C23.9202 11.6501 21.1102 13.1101 17.5302 13.1101H15.7102C15.2724 13.1095 14.8991 13.4276 14.8302 13.8601L13.9002 19.7801L13.6302 21.4601C13.61 21.5946 13.649 21.7313 13.7372 21.8349C13.8254 21.9384 13.9542 21.9987 14.0902 22.0001H17.3302C17.7144 21.9997 18.0411 21.7197 18.1002 21.3401V21.1801L18.7102 17.3101V17.1001C18.7648 16.722 19.0883 16.4411 19.4702 16.4401H20.0002C23.1302 16.4401 25.5902 15.1701 26.3002 11.4401C26.6844 10.1652 26.4474 8.78395 25.6602 7.71008C25.4105 7.45389 25.1198 7.24099 24.8002 7.08008V7.08008Z" fill="#189BD7"/>
<path id="Path_3" d="M23.9404 6.74009L23.5604 6.64009L23.1404 6.56009C22.6108 6.4809 22.0758 6.44412 21.5404 6.45009H16.6604C16.5464 6.44696 16.4333 6.47095 16.3304 6.52009C16.0985 6.62865 15.9369 6.84667 15.9004 7.10009L14.9004 13.6701V13.8601C14.9693 13.4276 15.3425 13.1096 15.7804 13.1101H17.6004C21.1804 13.1101 23.9904 11.6501 24.8104 7.45009L24.8704 7.08009C24.655 6.96878 24.4309 6.87514 24.2004 6.80009L23.9404 6.74009Z" fill="#242E65"/>
<path id="Path_4" d="M15.9004 7.1C15.9369 6.84658 16.0985 6.62856 16.3304 6.52C16.4333 6.47086 16.5464 6.44687 16.6604 6.45H21.5404C22.0758 6.44403 22.6108 6.48081 23.1404 6.56L23.5604 6.64L23.9404 6.74L24.1304 6.8C24.3609 6.87505 24.585 6.96869 24.8004 7.08C25.1254 5.83063 24.8275 4.50118 24.0004 3.51C23.0004 2.45 21.3604 2 19.2204 2H13.0004C12.5625 1.99947 12.1893 2.31756 12.1204 2.75L9.53038 19.16C9.50719 19.3148 9.55227 19.472 9.65395 19.5909C9.75563 19.7098 9.9039 19.7788 10.0604 19.78H13.9004L14.9004 13.67L15.9004 7.1Z" fill="#253D80"/>
</g>
</svg>
