<svg width="36" height="36" viewBox="0 0 36 36" fill="none" xmlns="http://www.w3.org/2000/svg">
<rect width="36" height="36" rx="18" fill="white"/>
<rect x="0.5" y="0.5" width="35" height="35" rx="17.5" stroke="#2E2E2E" stroke-opacity="0.1"/>
<path d="M20.9453 9.75C22.2167 10.0919 23.376 10.762 24.307 11.6929C25.238 12.6239 25.908 13.7832 26.2499 15.0546" stroke="#52B8AB" stroke-width="1.5" stroke-linecap="round" stroke-linejoin="round"/>
<path d="M20.1689 12.6484C20.9318 12.8536 21.6274 13.2556 22.186 13.8142C22.7445 14.3728 23.1466 15.0684 23.3517 15.8312" stroke="#52B8AB" stroke-width="1.5" stroke-linecap="round" stroke-linejoin="round"/>
<path d="M14.6697 17.7014C15.4476 19.2919 16.7369 20.5753 18.3309 21.346C18.4475 21.4013 18.5765 21.4252 18.7052 21.4155C18.8339 21.4058 18.9579 21.3627 19.0648 21.2905L21.4119 19.7254C21.5157 19.6562 21.6352 19.6139 21.7594 19.6025C21.8837 19.5911 22.0088 19.6109 22.1235 19.66L26.5144 21.5419C26.6636 21.6052 26.7881 21.7154 26.8693 21.8556C26.9504 21.9959 26.9838 22.1588 26.9643 22.3197C26.8255 23.4057 26.2956 24.4039 25.4739 25.1273C24.6521 25.8508 23.5948 26.2499 22.5 26.25C19.1185 26.25 15.8755 24.9067 13.4844 22.5156C11.0933 20.1245 9.75 16.8815 9.75 13.5C9.75006 12.4051 10.1492 11.3479 10.8726 10.5261C11.5961 9.70435 12.5943 9.17448 13.6803 9.03569C13.8412 9.01622 14.004 9.04956 14.1443 9.1307C14.2846 9.21183 14.3947 9.33636 14.4581 9.48552L16.3416 13.8803C16.3903 13.994 16.4101 14.118 16.3994 14.2412C16.3886 14.3644 16.3475 14.483 16.2798 14.5865L14.7201 16.9696C14.6491 17.0768 14.6072 17.2006 14.5983 17.3288C14.5895 17.4571 14.614 17.5855 14.6697 17.7014V17.7014Z" stroke="#52B8AB" stroke-width="1.5" stroke-linecap="round" stroke-linejoin="round"/>
</svg>
