<svg width="13" height="12" viewBox="0 0 13 12" fill="none" xmlns="http://www.w3.org/2000/svg">
<path d="M6.51495 0.233643C6.44756 0.0905757 6.30851 0 6.15625 0C6.00399 0 5.86494 0.0905757 5.79756 0.233643L4.16005 3.71037L0.498777 4.26749C0.348095 4.29042 0.222903 4.401 0.175845 4.55274C0.128786 4.70447 0.168023 4.87105 0.277056 4.98241L2.92646 7.68851L2.30085 11.51C2.27511 11.6672 2.3368 11.8262 2.45998 11.9199C2.58316 12.0137 2.74647 12.0261 2.88124 11.9518L6.15625 10.1476L9.43126 11.9518C9.56603 12.0261 9.72934 12.0137 9.85252 11.9199C9.97571 11.8262 10.0374 11.6672 10.0117 11.51L9.38604 7.68851L12.0354 4.98241C12.1445 4.87105 12.1837 4.70447 12.1367 4.55274C12.0896 4.401 11.9644 4.29042 11.8137 4.26749L8.15245 3.71037L6.51495 0.233643Z" fill="#FFAA00"/>
</svg>
