<svg width="68" height="68" viewBox="0 0 68 68" fill="none" xmlns="http://www.w3.org/2000/svg">
<path opacity="0.5" d="M46.7503 32.5834C46.7503 29.4538 49.2874 26.9167 52.417 26.9167C55.5466 26.9167 58.0837 29.4538 58.0837 32.5834C58.0837 35.2239 56.2777 37.4425 53.8337 38.0716V48.1668C53.8337 52.4656 52.1541 55.7114 49.5481 57.832C46.979 59.9225 43.6173 60.8356 40.3337 60.7391C33.8388 60.548 26.917 56.2781 26.917 48.1668H29.7503C29.7503 54.222 34.8702 57.7438 40.417 57.9069C43.1542 57.9875 45.8133 57.2183 47.7598 55.6343C49.6694 54.0804 51.0003 51.6596 51.0003 48.1668V38.0716C48.5563 37.4425 46.7503 35.2239 46.7503 32.5834Z" fill="white"/>
<path d="M53.8333 32.5834C53.8333 33.3658 53.1991 34.0001 52.4167 34.0001C51.6343 34.0001 51 33.3658 51 32.5834C51 31.801 51.6343 31.1667 52.4167 31.1667C53.1991 31.1667 53.8333 31.801 53.8333 32.5834Z" fill="white"/>
<path d="M37.9524 15.7321C38.1444 15.2476 38.25 14.7194 38.25 14.1666C38.25 13.7081 38.1774 13.2665 38.0431 12.8528C41.3788 13.4268 43.9167 16.3336 43.9167 19.8332V33.9999C43.9167 42.6063 36.9398 49.5832 28.3333 49.5832C19.7269 49.5832 12.75 42.6063 12.75 33.9999V21.2499C12.75 16.9641 15.9219 13.4191 20.0463 12.8345C19.9081 13.2535 19.8333 13.7013 19.8333 14.1666C19.8333 14.7059 19.9338 15.2218 20.117 15.6965C17.5303 16.2214 15.5833 18.5083 15.5833 21.2499V33.9999C15.5833 41.0415 21.2917 46.7499 28.3333 46.7499C35.375 46.7499 41.0833 41.0415 41.0833 33.9999V19.8332C41.0833 17.8733 39.7567 16.2233 37.9524 15.7321Z" fill="white"/>
<path opacity="0.5" d="M24.083 9.91675C21.7358 9.91675 19.833 11.8195 19.833 14.1667C19.833 16.514 21.7358 18.4167 24.083 18.4167C26.4302 18.4167 28.333 16.514 28.333 14.1667C28.333 11.8195 26.4302 9.91675 24.083 9.91675Z" fill="white"/>
<path opacity="0.5" d="M34 9.91675C31.6528 9.91675 29.75 11.8195 29.75 14.1667C29.75 16.514 31.6528 18.4167 34 18.4167C36.3472 18.4167 38.25 16.514 38.25 14.1667C38.25 11.8195 36.3472 9.91675 34 9.91675Z" fill="white"/>
</svg>
