<svg width="56" height="56" viewBox="0 0 56 56" fill="none" xmlns="http://www.w3.org/2000/svg">
<path opacity="0.5" d="M23.8166 36.9159L24.7594 37.8587C25.1499 38.2492 25.7831 38.2492 26.1736 37.8587L36.191 27.8414L27.9414 19.5918L17.9241 29.6091C17.5335 29.9997 17.5335 30.6328 17.9241 31.0234L18.8669 31.9662L23.8166 36.9159Z" fill="#52B8AB"/>
<path fill-rule="evenodd" clip-rule="evenodd" d="M41.6257 9.78837C41.4678 8.64425 42.8545 7.95505 43.6711 8.77171L47.0106 12.1112C47.8273 12.9279 47.138 14.3146 45.9939 14.1566C45.7008 14.1161 45.429 13.981 45.2198 13.7718L44.4401 12.9921L41.9653 15.467L46.915 20.4167C47.3706 20.8724 47.3706 21.611 46.915 22.0667C46.4594 22.5223 45.7207 22.5223 45.2651 22.0667L44.4401 21.2417L27.941 37.7409C26.8634 38.8184 25.258 39.0465 23.957 38.425L23.8162 38.5658C21.9937 40.3883 19.039 40.3883 17.2165 38.5658C15.3941 36.7434 15.3941 33.7886 17.2165 31.9661L17.3573 31.8253C16.7359 30.5243 16.9639 28.9189 18.0415 27.8414L34.5406 11.3422L33.7157 10.5172C33.2601 10.0616 33.2601 9.32294 33.7157 8.86733C34.1713 8.41172 34.91 8.41172 35.3656 8.86733L37.0153 10.5171L40.3153 13.8171L42.7902 11.3422L42.0105 10.5625C41.8013 10.3533 41.6662 10.0815 41.6257 9.78837ZM36.1906 12.9921L29.5909 19.5918L36.1906 26.1914L42.7902 19.5918L36.1906 12.9921ZM34.5406 27.8414L27.941 21.2417L19.6914 29.4913C19.2358 29.9469 19.2358 30.6856 19.6914 31.1412L24.6411 36.0909C25.0968 36.5465 25.8354 36.5465 26.2911 36.0909L34.5406 27.8414ZM18.8664 33.6161C17.9552 34.5273 17.9552 36.0047 18.8664 36.9159C19.7777 37.8271 21.255 37.8271 22.1663 36.9159L18.8664 33.6161Z" fill="#52B8AB"/>
<path fill-rule="evenodd" clip-rule="evenodd" d="M18.867 36.9159C19.3226 37.3715 19.3226 38.1102 18.867 38.5658L12.0914 45.3413C11.6358 45.7969 10.8971 45.7969 10.4415 45.3413C9.98587 44.8857 9.98587 44.147 10.4415 43.6914L17.217 36.9159C17.6726 36.4602 18.4113 36.4602 18.867 36.9159Z" fill="#52B8AB"/>
</svg>
