<svg width="20" height="20" viewBox="0 0 20 20" fill="none" xmlns="http://www.w3.org/2000/svg">
<path opacity="0.4" d="M15.2919 16.4C14.8336 17.575 13.7169 18.3333 12.4586 18.3333H7.54189C6.27523 18.3333 5.16689 17.575 4.70856 16.4C4.25023 15.2167 4.56689 13.9083 5.50023 13.0583L8.87523 10H11.1336L14.5002 13.0583C15.4336 13.9083 15.7419 15.2167 15.2919 16.4Z" fill="#0B8071"/>
<path d="M11.5165 15.1166H8.48317C8.1665 15.1166 7.9165 14.8583 7.9165 14.5499C7.9165 14.2333 8.17484 13.9833 8.48317 13.9833H11.5165C11.8332 13.9833 12.0832 14.2416 12.0832 14.5499C12.0832 14.8583 11.8248 15.1166 11.5165 15.1166Z" fill="#0B8071"/>
<path d="M15.2919 3.59996C14.8335 2.42496 13.7169 1.66663 12.4585 1.66663H7.54188C6.28355 1.66663 5.16688 2.42496 4.70855 3.59996C4.25855 4.78329 4.56688 6.09163 5.50855 6.94163L8.87521 9.99996H11.1335L14.5002 6.94163C15.4335 6.09163 15.7419 4.78329 15.2919 3.59996ZM11.5169 6.02496H8.48355C8.16688 6.02496 7.91688 5.76663 7.91688 5.45829C7.91688 5.14996 8.17522 4.89163 8.48355 4.89163H11.5169C11.8335 4.89163 12.0835 5.14996 12.0835 5.45829C12.0835 5.76663 11.8252 6.02496 11.5169 6.02496Z" fill="#0B8071"/>
</svg>
