<svg width="24" height="24" viewBox="0 0 24 24" fill="none" xmlns="http://www.w3.org/2000/svg">
<path opacity="0.4" d="M12 22C17.5228 22 22 17.5228 22 12C22 6.47715 17.5228 2 12 2C6.47715 2 2 6.47715 2 12C2 17.5228 6.47715 22 12 22Z" fill="#292D32"/>
<path d="M11.9999 15.01C11.8099 15.01 11.6199 14.94 11.4699 14.79L7.93991 11.26C7.64991 10.97 7.64991 10.49 7.93991 10.2C8.22991 9.91001 8.70991 9.91001 8.99991 10.2L11.9999 13.2L14.9999 10.2C15.2899 9.91001 15.7699 9.91001 16.0599 10.2C16.3499 10.49 16.3499 10.97 16.0599 11.26L12.5299 14.79C12.3799 14.94 12.1899 15.01 11.9999 15.01Z" fill="#292D32"/>
</svg>
