<svg width="24" height="25" viewBox="0 0 24 25" fill="none" xmlns="http://www.w3.org/2000/svg">
<path opacity="0.4" d="M16.19 2.5H7.81C4.17 2.5 2 4.67 2 8.31V16.68C2 20.33 4.17 22.5 7.81 22.5H16.18C19.82 22.5 21.99 20.33 21.99 16.69V8.31C22 4.67 19.83 2.5 16.19 2.5Z" fill="#292D32"/>
<path d="M13.2599 16.78C13.0699 16.78 12.8799 16.71 12.7299 16.56L9.19992 13.03C8.90992 12.74 8.90992 12.26 9.19992 11.97L12.7299 8.43997C13.0199 8.14997 13.4999 8.14997 13.7899 8.43997C14.0799 8.72997 14.0799 9.20997 13.7899 9.49997L10.7899 12.5L13.7899 15.5C14.0799 15.79 14.0799 16.27 13.7899 16.56C13.6499 16.71 13.4599 16.78 13.2599 16.78Z" fill="#292D32"/>
</svg>
