<svg width="24" height="24" viewBox="0 0 24 24" fill="none" xmlns="http://www.w3.org/2000/svg">
<path d="M16.9999 8.72004C16.8099 8.72004 16.6199 8.65004 16.4699 8.50004L14.4699 6.50004C14.1799 6.21004 14.1799 5.73004 14.4699 5.44004C14.7599 5.15004 15.2399 5.15004 15.5299 5.44004L16.9999 6.91004L20.4699 3.45004C20.7599 3.16004 21.2399 3.16004 21.5299 3.45004C21.8199 3.74004 21.8199 4.22004 21.5299 4.51004L17.5299 8.51004C17.3799 8.64004 17.1899 8.72004 16.9999 8.72004Z" fill="white"/>
<path opacity="0.4" d="M11.79 14.21L8.52 17.48C8.16 17.16 7.81 16.83 7.47 16.49C6.44 15.45 5.51 14.36 4.68 13.22C3.86 12.08 3.2 10.94 2.72 9.81C2.24 8.67 2 7.58 2 6.54C2 5.86 2.12 5.21 2.36 4.61C2.6 4 2.98 3.44 3.51 2.94C4.15 2.31 4.85 2 5.59 2C5.87 2 6.15 2.06 6.4 2.18C6.66 2.3 6.89 2.48 7.07 2.74L9.39 6.01C9.57 6.26 9.7 6.49 9.79 6.71C9.88 6.92 9.93 7.13 9.93 7.32C9.93 7.56 9.86 7.8 9.72 8.03C9.59 8.26 9.4 8.5 9.16 8.74L8.4 9.53C8.29 9.64 8.24 9.77 8.24 9.93C8.24 10.01 8.25 10.08 8.27 10.16C8.3 10.24 8.33 10.3 8.35 10.36C8.53 10.69 8.84 11.12 9.28 11.64C9.73 12.16 10.21 12.69 10.73 13.22C11.09 13.57 11.44 13.91 11.79 14.21Z" fill="white"/>
<path d="M21.0455 19.0922L21.0493 19.0846C21.0685 19.0462 21.0852 19.0037 21.1156 18.9226C21.1862 18.7232 21.2201 18.5203 21.2201 18.33C21.2201 18.169 21.188 18.0176 21.119 17.8418C21.0721 17.7401 20.9914 17.6362 20.8332 17.5267L20.8259 17.5216L20.8259 17.5216L17.5223 15.1761C17.3029 15.0273 17.1217 14.9279 16.9661 14.8642C16.8239 14.806 16.7202 14.79 16.6401 14.79C16.5439 14.79 16.4473 14.8133 16.3201 14.8907L16.2989 14.9035L16.277 14.915C16.139 14.987 15.9601 15.1207 15.7404 15.3404L15.7369 15.3439L15.7369 15.3439L14.9783 16.0925C14.7357 16.3342 14.4186 16.48 14.0401 16.48C13.892 16.48 13.7164 16.4634 13.5268 16.3923L13.5106 16.3862L13.4947 16.3794C13.4534 16.3617 13.4151 16.3441 13.3879 16.3317C13.3852 16.3304 13.3826 16.3292 13.3801 16.3281C13.3477 16.3132 13.3367 16.3084 13.3316 16.3064L13.296 16.2922L13.2621 16.2744C13.1654 16.2238 13.0644 16.1658 12.9597 16.101L10.7258 18.335C10.8786 18.4509 11.0349 18.5672 11.1946 18.6859C12.2927 19.4851 13.3926 20.115 14.4841 20.5801C15.5588 21.038 16.5487 21.25 17.4501 21.25C18.0435 21.25 18.5875 21.1387 19.0875 20.9353L19.2164 20.8829C19.6718 20.6789 20.0894 20.3715 20.4844 19.9364L21.0455 19.0922ZM21.0455 19.0922L21.0419 19.0998M21.0455 19.0922L21.0419 19.0998M21.0419 19.0998C20.9017 19.3967 20.722 19.6741 20.4845 19.9362L21.0419 19.0998ZM19.0497 20.9542C19.0487 20.9547 19.0502 20.954 19.0521 20.953L19.0497 20.9542Z" fill="white" stroke="white" stroke-width="1.5"/>
</svg>
