<svg width="44" height="44" viewBox="0 0 44 44" fill="none" xmlns="http://www.w3.org/2000/svg">
<rect width="44" height="44" rx="22" fill="#04285C"/>
<path d="M12.8973 33L20.4853 13.4H23.5653L31.0973 33H27.8773L23.3973 21.184C23.3413 21.0533 23.2293 20.736 23.0613 20.232C22.9119 19.728 22.7346 19.168 22.5293 18.552C22.3239 17.936 22.1373 17.376 21.9693 16.872C21.8013 16.3493 21.6893 16.0133 21.6333 15.864L22.2773 15.836C22.1653 16.1533 22.0253 16.5547 21.8573 17.04C21.7079 17.5253 21.5399 18.0387 21.3533 18.58C21.1853 19.1213 21.0173 19.6347 20.8493 20.12C20.6813 20.5867 20.5413 20.9787 20.4293 21.296L15.9773 33H12.8973ZM16.2573 28.128L17.3773 25.216H26.2813L27.5693 28.128H16.2573Z" fill="white"/>
</svg>
