<svg width="24" height="24" viewBox="0 0 24 24" fill="none" xmlns="http://www.w3.org/2000/svg">
<path opacity="0.4" d="M19.8801 20.9399C18.9301 21.6399 17.6801 21.9999 16.1901 21.9999H7.81009C7.57009 21.9999 7.3301 21.9899 7.1001 21.9599L14.0001 15.0599L19.8801 20.9399Z" fill="white"/>
<path opacity="0.4" d="M21.2501 8.87063V16.19C21.2501 17.1586 21.0851 17.9828 20.7829 18.6622L16.1207 14L21.2501 8.87063Z" fill="white" stroke="white" stroke-width="1.5"/>
<path opacity="0.4" d="M14.5297 13.4697L14 13.9993L13.9993 14L13.4697 14.5297L6.81798 21.1814C6.38259 21.1286 5.98368 21.0275 5.6148 20.8883L5.61482 20.8883L5.60684 20.8853C3.82065 20.2343 2.75 18.661 2.75 16.19V7.81C2.75 6.13915 3.24514 4.89552 4.07033 4.07033C4.89552 3.24514 6.13915 2.75 7.81 2.75H16.19C18.661 2.75 20.2343 3.82064 20.8853 5.60683L20.8853 5.60685L20.8883 5.61479C21.0275 5.98367 21.1286 6.38258 21.1814 6.81797L14.5297 13.4697Z" fill="white" stroke="white" stroke-width="1.5"/>
<mask id="path-4-inside-1_1580_5189" fill="white">
<path d="M15.0601 14L20.9401 19.88C20.6501 20.3 20.3001 20.65 19.8801 20.94L14.0001 15.06L7.1001 21.96C6.4601 21.92 5.8801 21.79 5.3501 21.59L5.74008 21.2L21.5901 5.34998C21.7901 5.87998 21.9201 6.45998 21.9601 7.09998L15.0601 14Z"/>
</mask>
<path d="M15.0601 14L20.9401 19.88C20.6501 20.3 20.3001 20.65 19.8801 20.94L14.0001 15.06L7.1001 21.96C6.4601 21.92 5.8801 21.79 5.3501 21.59L5.74008 21.2L21.5901 5.34998C21.7901 5.87998 21.9201 6.45998 21.9601 7.09998L15.0601 14Z" fill="white"/>
<path d="M15.0601 14L13.9994 12.9393L12.9388 14L13.9994 15.0606L15.0601 14ZM20.9401 19.88L22.1744 20.7323L22.8848 19.7034L22.0008 18.8193L20.9401 19.88ZM19.8801 20.94L18.8194 22.0006L19.7035 22.8847L20.7324 22.1743L19.8801 20.94ZM14.0001 15.06L15.0608 13.9993L14.0001 12.9387L12.9394 13.9993L14.0001 15.06ZM7.1001 21.96L7.00653 23.4571L7.68212 23.4993L8.16076 23.0206L7.1001 21.96ZM5.3501 21.59L4.28942 20.5293L2.64601 22.1728L4.82051 22.9934L5.3501 21.59ZM5.74008 21.2L4.67942 20.1393L4.6794 20.1393L5.74008 21.2ZM21.5901 5.34998L22.9935 4.82039L22.1729 2.64584L20.5294 4.28932L21.5901 5.34998ZM21.9601 7.09998L23.0207 8.16064L23.4994 7.68199L23.4572 7.00641L21.9601 7.09998ZM13.9994 15.0606L19.8794 20.9406L22.0008 18.8193L16.1207 12.9393L13.9994 15.0606ZM19.7057 19.0277C19.5189 19.2983 19.2984 19.5188 19.0278 19.7056L20.7324 22.1743C21.3018 21.7811 21.7813 21.3017 22.1744 20.7323L19.7057 19.0277ZM20.9408 19.8793L15.0608 13.9993L12.9394 16.1206L18.8194 22.0006L20.9408 19.8793ZM12.9394 13.9993L6.03944 20.8993L8.16076 23.0206L15.0608 16.1206L12.9394 13.9993ZM7.19367 20.4629C6.70238 20.4322 6.26937 20.3336 5.87968 20.1866L4.82051 22.9934C5.49082 23.2463 6.21782 23.4078 7.00653 23.4571L7.19367 20.4629ZM6.41078 22.6506L6.80076 22.2606L4.6794 20.1393L4.28942 20.5293L6.41078 22.6506ZM6.80074 22.2606L22.6507 6.41064L20.5294 4.28932L4.67942 20.1393L6.80074 22.2606ZM20.1867 5.87956C20.3337 6.26924 20.4323 6.70224 20.463 7.19354L23.4572 7.00641C23.4079 6.21771 23.2464 5.49071 22.9935 4.82039L20.1867 5.87956ZM20.8994 6.03932L13.9994 12.9393L16.1207 15.0606L23.0207 8.16064L20.8994 6.03932Z" fill="white" mask="url(#path-4-inside-1_1580_5189)"/>
<path d="M12.2398 7.93003C11.8598 6.28003 10.3998 5.54003 9.11981 5.53003C7.83981 5.53003 6.37981 6.27003 5.99981 7.92003C5.57981 9.75003 6.6998 11.28 7.7098 12.24C8.1098 12.62 8.60981 12.8 9.11981 12.8C9.62981 12.8 10.1298 12.61 10.5298 12.24C11.5398 11.28 12.6598 9.75003 12.2398 7.93003ZM9.14981 9.49003C8.59981 9.49003 8.14981 9.04003 8.14981 8.49003C8.14981 7.94003 8.58981 7.49003 9.14981 7.49003H9.15982C9.70982 7.49003 10.1598 7.94003 10.1598 8.49003C10.1598 9.04003 9.69981 9.49003 9.14981 9.49003Z" fill="white"/>
</svg>
